SplineFontDB: 3.2
FontName: Newstroke-Regular
FullName: Newstroke
FamilyName: Newstroke
Weight: Regular
Copyright: Copyright (c) 2024, zeankun.dev. font belongs to kicad (https://kicad.org)
UComments: "2024-8-8: Created with FontForge (http://fontforge.org)"
Version: 001.000
ItalicAngle: 0
UnderlinePosition: -100
UnderlineWidth: 50
Ascent: 800
Descent: 200
InvalidEm: 0
LayerCount: 2
Layer: 0 0 "Back" 1
Layer: 1 0 "Fore" 0
XUID: [1021 604 195320272 3412]
FSType: 0
OS2Version: 0
OS2_WeightWidthSlopeOnly: 0
OS2_UseTypoMetrics: 1
CreationTime: 1723116213
ModificationTime: 1739696679
PfmFamily: 17
TTFWeight: 400
TTFWidth: 5
LineGap: 90
VLineGap: 0
OS2TypoAscent: 0
OS2TypoAOffset: 1
OS2TypoDescent: 0
OS2TypoDOffset: 1
OS2TypoLinegap: 90
OS2WinAscent: 0
OS2WinAOffset: 1
OS2WinDescent: 0
OS2WinDOffset: 1
HheadAscent: 0
HheadAOffset: 1
HheadDescent: 0
HheadDOffset: 1
OS2Vendor: 'PfEd'
MarkAttachClasses: 1
DEI: 91125
LangName: 1055
LangName: 1033
Encoding: ISO8859-1
UnicodeInterp: none
NameList: AGL For New Fonts
DisplaySize: -48
AntiAlias: 1
FitToEm: 0
WinInfo: 0 38 12
BeginPrivate: 0
EndPrivate
TeXData: 1 0 0 346030 173015 115343 683945 1048576 115343 783286 444596 497025 792723 393216 433062 380633 303038 157286 324010 404750 52429 2506097 1059062 262144
BeginChars: 256 140

StartChar: A
Encoding: 65 65 0
Width: 800
Flags: HW
LayerCount: 2
Fore
SplineSet
393.594726562 909.473632812 m 4
 415.3828125 909.473632812 434.725585938 895.53125 441.615234375 874.862304688 c 6
 633.9453125 297.874023438 l 6
 634.3046875 296.899414062 634.633789062 295.911132812 634.93359375 294.909179688 c 6
 711.58203125 64.9638671875 l 6
 720.422851562 38.4423828125 706.08984375 9.7783203125 679.568359375 0.9345703125 c 4
 653.047851562 -7.908203125 624.380859375 6.427734375 615.540039062 32.94921875 c 6
 549.935546875 229.763671875 l 5
 237.25390625 229.763671875 l 5
 171.6484375 32.94921875 l 6
 162.80859375 6.427734375 134.142578125 -7.908203125 107.62109375 0.9345703125 c 4
 81.099609375 9.7783203125 66.7666015625 38.4423828125 75.6064453125 64.9638671875 c 6
 152.239257812 294.860351562 l 6
 152.547851562 295.89453125 152.887695312 296.916015625 153.259765625 297.921875 c 6
 345.573242188 874.862304688 l 6
 352.462890625 895.53125 371.806640625 909.473632812 393.594726562 909.473632812 c 4
271 331 m 5
 516.189453125 331 l 5
 393.594726562 698.78515625 l 5
 271 331 l 5
EndSplineSet
Validated: 33
EndChar

StartChar: B
Encoding: 66 66 1
Width: 745
Flags: HW
LayerCount: 2
Fore
SplineSet
88.7626953125 858.298828125 m 2
 88.7626953125 886.25390625 111.424804688 908.916992188 139.380859375 908.916992188 c 2
 409.34765625 908.916992188 l 2
 417.204101562 908.916992188 424.952148438 907.087890625 431.978515625 903.576171875 c 2
 509.106445312 865.024414062 l 2
 513.979492188 862.588867188 518.427734375 859.3828125 522.278320312 855.529296875 c 2
 560.858398438 816.928710938 l 2
 564.69921875 813.0859375 567.895507812 808.649414062 570.327148438 803.790039062 c 2
 608.903320312 726.6640625 l 2
 612.419921875 719.633789062 614.25 711.880859375 614.25 704.020507812 c 2
 614.250976562 626.942382812 l 2
 614.250976562 619.083007812 612.420898438 611.33203125 608.90625 604.302734375 c 2
 570.327148438 527.154296875 l 2
 567.896484375 522.29296875 564.698242188 517.854492188 560.856445312 514.010742188 c 2
 531.962890625 485.1015625 l 1
 541.063476562 482.067382812 l 2
 548.510742188 479.584960938 555.279296875 475.403320312 560.83203125 469.854492188 c 2
 599.41015625 431.307617188 l 2
 603.263671875 427.45703125 606.470703125 423.008789062 608.907226562 418.135742188 c 2
 647.458984375 341.026367188 l 2
 650.97265625 333.998046875 652.801757812 326.249023438 652.801757812 318.391601562 c 2
 652.802734375 202.721679688 l 2
 652.802734375 194.864257812 650.9765625 187.12109375 647.467773438 180.099609375 c 2
 608.9140625 102.928710938 l 2
 606.482421875 98.056640625 603.28125 93.6142578125 599.43359375 89.763671875 c 2
 560.85546875 51.1640625 l 2
 557.0078125 47.314453125 552.563476562 44.1142578125 547.6953125 41.6787109375 c 2
 470.56640625 3.099609375 l 2
 463.537109375 -0.4140625 455.784179688 -2.2431640625 447.923828125 -2.2431640625 c 2
 139.379882812 -2.2431640625 l 2
 111.424804688 -2.236328125 88.7626953125 20.4208984375 88.7626953125 48.3779296875 c 2
 88.7626953125 858.298828125 l 2
190 422.006835938 m 1
 190 99 l 1
 435.97265625 98.9921875 l 1
 495.061523438 128.54296875 l 1
 522.021484375 155.521484375 l 1
 551.56640625 214.657226562 l 1
 551.564453125 306.442382812 l 1
 522.034179688 365.506835938 l 1
 497.719726562 389.803710938 l 1
 401.129882812 422.006835938 l 1
 190 422.006835938 l 1
397.395507812 523.244140625 m 1
 456.485351562 552.79296875 l 1
 483.450195312 579.771484375 l 1
 513.012695312 638.891601562 l 1
 513.012695312 692.067382812 l 1
 483.454101562 751.165039062 l 1
 456.487304688 778.146484375 l 1
 397.401367188 807.6796875 l 1
 190 807.6796875 l 1
 190 523.244140625 l 1
 397.395507812 523.244140625 l 1
EndSplineSet
Validated: 1
EndChar

StartChar: C
Encoding: 67 67 2
Width: 790
Flags: HW
LayerCount: 2
Fore
SplineSet
380.8515625 905.961914062 m 2
 386.012695312 907.682617188 391.41796875 908.560546875 396.859375 908.560546875 c 2
 473.991210938 908.560546875 l 2
 479.4296875 908.560546875 484.833007812 907.68359375 489.9921875 905.96484375 c 2
 605.69921875 867.4140625 l 2
 613.166992188 864.92578125 619.952148438 860.729492188 625.513671875 855.16015625 c 2
 664.065429688 816.55859375 l 2
 683.8203125 796.778320312 683.799804688 764.728515625 664.018554688 744.973632812 c 0
 644.23828125 725.21875 612.188476562 725.239257812 592.43359375 745.01953125 c 2
 562.340820312 775.151367188 l 1
 465.780273438 807.323242188 l 1
 405.075195312 807.323242188 l 1
 308.48828125 775.123046875 l 1
 245.620117188 712.295898438 l 1
 213.20703125 647.475585938 l 1
 177.513671875 504.615234375 l 1
 177.513671875 401.41796875 l 1
 213.206054688 258.55859375 l 1
 245.625 193.729492188 l 1
 308.5 130.8359375 l 1
 405.078125 98.6435546875 l 1
 465.776367188 98.6357421875 l 1
 562.345703125 130.829101562 l 1
 592.444335938 160.950195312 l 2
 612.205078125 180.729492188 644.255859375 180.736328125 664.029296875 160.979492188 c 0
 683.8046875 141.21484375 683.815429688 109.165039062 664.0546875 89.3935546875 c 2
 625.502929688 50.814453125 l 2
 619.944335938 45.25 613.166992188 41.0576171875 605.70703125 38.572265625 c 2
 490 0 l 2
 484.836914062 -1.720703125 479.430664062 -2.599609375 473.98828125 -2.599609375 c 2
 396.859375 -2.599609375 l 2
 391.418945312 -2.5927734375 386.014648438 -1.720703125 380.853515625 0 c 2
 265.143554688 38.5791015625 l 2
 257.6875 41.064453125 250.912109375 45.25 245.35546875 50.8076171875 c 2
 168.2265625 127.958007812 l 2
 164.381835938 131.80078125 161.181640625 136.243164062 158.75 141.107421875 c 2
 120.170898438 218.2578125 l 2
 118.518554688 221.557617188 117.231445312 225.036132812 116.3359375 228.622070312 c 2
 77.78515625 382.920898438 l 2
 76.783203125 386.93359375 76.2763671875 391.0546875 76.2763671875 395.190429688 c 2
 76.2763671875 510.84375 l 2
 76.2763671875 514.979492188 76.783203125 519.100585938 77.7861328125 523.11328125 c 2
 116.336914062 677.41015625 l 2
 117.233398438 680.99609375 118.518554688 684.473632812 120.171875 687.779296875 c 2
 158.749023438 764.927734375 l 2
 161.184570312 769.797851562 164.390625 774.244140625 168.2421875 778.09375 c 2
 245.372070312 855.171875 l 2
 250.92578125 860.72265625 257.694335938 864.904296875 265.143554688 867.387695312 c 2
 380.8515625 905.961914062 l 2
EndSplineSet
Validated: 33
EndChar

StartChar: D
Encoding: 68 68 3
Width: 742
Flags: HW
LayerCount: 2
Fore
SplineSet
86.76171875 858.306640625 m 2
 86.76171875 886.26171875 109.424804688 908.924804688 137.380859375 908.924804688 c 2
 330.216796875 908.924804688 l 2
 335.655273438 908.924804688 341.05859375 908.047851562 346.217773438 906.329101562 c 2
 461.923828125 867.778320312 l 2
 469.383789062 865.29296875 476.162109375 861.103515625 481.721679688 855.54296875 c 2
 558.853515625 778.390625 l 2
 562.693359375 774.548828125 565.890625 770.114257812 568.321289062 765.2578125 c 2
 606.899414062 688.178710938 l 2
 608.556640625 684.8671875 609.844726562 681.384765625 610.7421875 677.79296875 c 2
 649.291992188 523.487304688 l 2
 650.293945312 519.475585938 650.80078125 515.35546875 650.80078125 511.219726562 c 2
 650.802734375 395.52734375 l 2
 650.802734375 391.390625 650.295898438 387.268554688 649.291992188 383.25390625 c 2
 610.740234375 228.993164062 l 2
 609.84375 225.407226562 608.557617188 221.936523438 606.905273438 218.62890625 c 2
 568.328125 141.486328125 l 2
 565.896484375 136.622070312 562.697265625 132.186523438 558.852539062 128.34375 c 2
 481.723632812 51.193359375 l 2
 476.16796875 45.6357421875 469.396484375 41.4501953125 461.943359375 38.96484375 c 2
 346.234375 0.3642578125 l 2
 341.067382812 -1.3564453125 335.65625 -2.2353515625 330.209960938 -2.2353515625 c 2
 137.374023438 -2.2138671875 l 2
 109.420898438 -2.20703125 86.76171875 20.4501953125 86.76171875 48.4072265625 c 2
 86.76171875 858.306640625 l 2
187.999023438 807.6875 m 1
 187.999023438 99.021484375 l 1
 322 99 l 1
 418.575195312 131.21484375 l 1
 481.453125 194.114257812 l 1
 513.87109375 258.936523438 l 1
 549.564453125 401.755859375 l 1
 549.564453125 504.991210938 l 1
 513.874023438 647.850585938 l 1
 481.459960938 712.614257812 l 1
 418.580078125 775.510742188 l 1
 322.005859375 807.6875 l 1
 187.999023438 807.6875 l 1
EndSplineSet
Validated: 1
EndChar

StartChar: E
Encoding: 69 69 4
Width: 667
Flags: HW
LayerCount: 2
Fore
SplineSet
88.7626953125 861.298828125 m 6
 88.7626953125 889.25390625 111.424804688 911.916992188 139.380859375 911.916992188 c 6
 525.0546875 911.916992188 l 6
 553.010742188 911.916992188 575.673828125 889.25390625 575.673828125 861.298828125 c 4
 575.673828125 833.341796875 553.010742188 810.6796875 525.0546875 810.6796875 c 6
 190 810.6796875 l 5
 190 526.244140625 l 5
 409.34765625 526.244140625 l 6
 437.302734375 526.244140625 459.965820312 503.58203125 459.965820312 475.625976562 c 4
 459.965820312 447.669921875 437.302734375 425.006835938 409.34765625 425.006835938 c 6
 190 425.006835938 l 5
 190 102 l 5
 525.0546875 102 l 6
 553.010742188 102 575.673828125 79.3359375 575.673828125 51.3779296875 c 4
 575.673828125 23.4208984375 553.010742188 0.7568359375 525.0546875 0.7568359375 c 6
 139.380859375 0.7568359375 l 6
 111.424804688 0.7568359375 88.7626953125 23.4208984375 88.7626953125 51.3779296875 c 6
 88.7626953125 861.298828125 l 6
EndSplineSet
Validated: 1
EndChar

StartChar: F
Encoding: 70 70 5
Width: 664
Flags: HW
LayerCount: 2
Fore
SplineSet
91.380859375 860.520507812 m 2
 91.380859375 888.475585938 114.043945312 911.138671875 142 911.138671875 c 2
 527.672851562 911.138671875 l 2
 555.629882812 911.138671875 578.291992188 888.475585938 578.291992188 860.520507812 c 0
 578.291992188 832.563476562 555.629882812 809.901367188 527.672851562 809.901367188 c 2
 192.618164062 809.901367188 l 1
 192.618164062 525.465820312 l 1
 411.965820312 525.465820312 l 2
 439.921875 525.465820312 462.584960938 502.803710938 462.584960938 474.84765625 c 0
 462.584960938 446.891601562 439.921875 424.228515625 411.965820312 424.228515625 c 2
 192.618164062 424.228515625 l 1
 192.618164062 50.62109375 l 2
 192.618164062 22.6640625 169.955078125 0 142 0 c 0
 114.043945312 0 91.380859375 22.6640625 91.380859375 50.62109375 c 2
 91.380859375 860.520507812 l 2
EndSplineSet
Validated: 1
EndChar

StartChar: G
Encoding: 71 71 6
Width: 757
Flags: HW
LayerCount: 2
Fore
SplineSet
366.861328125 905.96484375 m 2
 372.020507812 907.68359375 377.423828125 908.560546875 382.861328125 908.560546875 c 2
 498.569335938 908.560546875 l 2
 506.424804688 908.560546875 514.172851562 906.731445312 521.200195312 903.219726562 c 2
 598.329101562 864.66796875 l 2
 623.3359375 852.169921875 633.474609375 821.765625 620.9765625 796.759765625 c 0
 608.477539062 771.752929688 578.073242188 761.614257812 553.067382812 774.112304688 c 2
 486.623046875 807.323242188 l 1
 391.072265625 807.323242188 l 1
 294.498046875 775.146484375 l 1
 231.620117188 712.25 l 1
 199.206054688 647.485351562 l 1
 163.512695312 504.626953125 l 1
 163.512695312 401.392578125 l 1
 199.206054688 258.573242188 l 1
 231.625976562 193.75 l 1
 294.504882812 130.850585938 l 1
 391.081054688 98.6357421875 l 1
 451.774414062 98.6435546875 l 1
 548.346679688 130.8359375 l 1
 563.630859375 146.12890625 l 1
 563.630859375 344.572265625 l 1
 459.990234375 344.572265625 l 2
 432.034179688 344.572265625 409.372070312 367.234375 409.372070312 395.190429688 c 0
 409.372070312 423.146484375 432.034179688 445.80859375 459.990234375 445.80859375 c 2
 614.250976562 445.80859375 l 2
 627.674804688 445.80859375 640.55078125 440.4765625 650.04296875 430.983398438 c 0
 659.53515625 421.490234375 664.869140625 408.615234375 664.869140625 395.190429688 c 2
 664.868164062 125.171875 l 2
 664.868164062 111.75 659.538085938 98.87890625 650.052734375 89.3857421875 c 2
 611.501953125 50.814453125 l 2
 605.943359375 45.25 599.166015625 41.064453125 591.70703125 38.5791015625 c 2
 476 0 l 2
 470.838867188 -1.720703125 465.434570312 -2.5927734375 459.993164062 -2.599609375 c 2
 382.864257812 -2.599609375 l 2
 377.418945312 -2.599609375 372.009765625 -1.720703125 366.84375 0 c 2
 251.13671875 38.6005859375 l 2
 243.684570312 41.0859375 236.912109375 45.271484375 231.357421875 50.8291015625 c 2
 154.227539062 127.979492188 l 2
 150.383789062 131.822265625 147.184570312 136.2578125 144.752929688 141.122070312 c 2
 106.172851562 218.264648438 l 2
 104.51953125 221.572265625 103.233398438 225.04296875 102.336914062 228.62890625 c 2
 63.7861328125 382.890625 l 2
 62.783203125 386.904296875 62.275390625 391.025390625 62.275390625 395.163085938 c 2
 62.275390625 510.854492188 l 2
 62.275390625 514.991210938 62.7822265625 519.111328125 63.78515625 523.124023438 c 2
 102.337890625 677.428710938 l 2
 103.235351562 681.021484375 104.524414062 684.50390625 106.181640625 687.815429688 c 2
 144.759765625 764.89453125 l 2
 147.190429688 769.75 150.38671875 774.184570312 154.2265625 778.025390625 c 2
 231.35546875 855.177734375 l 2
 236.916015625 860.739257812 243.693359375 864.928710938 251.154296875 867.4140625 c 2
 366.861328125 905.96484375 l 2
EndSplineSet
Validated: 33
EndChar

StartChar: H
Encoding: 72 72 7
Width: 736
Flags: HW
LayerCount: 2
Fore
SplineSet
124.196289062 911.138671875 m 4
 152.15234375 911.138671875 174.814453125 888.475585938 174.814453125 860.520507812 c 6
 174.814453125 525.465820312 l 5
 536.380859375 525.465820312 l 5
 536.380859375 860.520507812 l 6
 536.380859375 888.475585938 559.04296875 911.138671875 587 911.138671875 c 4
 614.955078125 911.138671875 637.618164062 888.475585938 637.618164062 860.520507812 c 6
 637.618164062 50.62109375 l 6
 637.618164062 22.6640625 614.955078125 0 587 0 c 4
 559.04296875 0 536.380859375 22.6640625 536.380859375 50.62109375 c 6
 536.380859375 424.228515625 l 5
 174.814453125 424.228515625 l 5
 174.814453125 50.62109375 l 6
 174.814453125 22.6640625 152.15234375 0 124.196289062 0 c 4
 96.240234375 0 73.5771484375 22.6640625 73.5771484375 50.62109375 c 6
 73.5771484375 860.520507812 l 6
 73.5771484375 888.475585938 96.240234375 911.138671875 124.196289062 911.138671875 c 4
EndSplineSet
Validated: 1
EndChar

StartChar: I
Encoding: 73 73 8
Width: 235
Flags: HW
LayerCount: 2
Fore
SplineSet
115 911.138671875 m 4
 142.956054688 911.138671875 165.618164062 888.475585938 165.618164062 860.520507812 c 6
 165.618164062 50.62109375 l 6
 165.618164062 22.6640625 142.956054688 0 115 0 c 4
 87.0439453125 0 64.3818359375 22.6640625 64.3818359375 50.62109375 c 6
 64.3818359375 860.520507812 l 6
 64.3818359375 888.475585938 87.0439453125 911.138671875 115 911.138671875 c 4
EndSplineSet
Validated: 1
EndChar

StartChar: J
Encoding: 74 74 9
Width: 577
Flags: HW
LayerCount: 2
Fore
SplineSet
417.520507812 911.16015625 m 0
 445.475585938 911.16015625 468.138671875 888.497070312 468.138671875 860.541992188 c 2
 468.138671875 282.057617188 l 2
 468.138671875 276.619140625 467.262695312 271.215820312 465.54296875 266.056640625 c 2
 426.993164062 150.357421875 l 2
 424.506835938 142.900390625 420.319335938 136.12109375 414.759765625 130.564453125 c 2
 337.602539062 53.421875 l 2
 332.049804688 47.87109375 325.28125 43.685546875 317.833984375 41.2001953125 c 2
 202.154296875 2.599609375 l 2
 196.98828125 0.87890625 191.577148438 0 186.130859375 0 c 2
 109 0 l 2
 81.0439453125 0.0068359375 58.3828125 22.671875 58.3837890625 50.62109375 c 0
 58.384765625 78.5791015625 81.048828125 101.243164062 109.004882812 101.243164062 c 2
 177.913085938 101.235351562 l 1
 274.465820312 133.450195312 l 1
 334.725585938 193.700195312 l 1
 366.901367188 290.268554688 l 1
 366.901367188 860.541992188 l 2
 366.901367188 888.497070312 389.563476562 911.16015625 417.520507812 911.16015625 c 0
EndSplineSet
Validated: 33
EndChar

StartChar: K
Encoding: 75 75 10
Width: 721
Flags: HW
LayerCount: 2
Fore
SplineSet
118 911.138671875 m 0
 145.956054688 911.138671875 168.619140625 888.475585938 168.619140625 860.520507812 c 2
 168.619140625 519.943359375 l 1
 545.01171875 896.313476562 l 2
 564.780273438 916.081054688 596.830078125 916.080078125 616.59765625 896.311523438 c 0
 636.364257812 876.54296875 636.364257812 844.493164062 616.595703125 824.725585938 c 2
 300.534179688 508.68359375 l 1
 621.298828125 80.9931640625 l 2
 638.072265625 58.62109375 633.5390625 26.900390625 611.173828125 10.12109375 c 0
 588.809570312 -6.650390625 557.08203125 -2.1142578125 540.30859375 20.25 c 2
 228.220703125 436.374023438 l 1
 168.619140625 376.775390625 l 1
 168.619140625 50.62109375 l 2
 168.619140625 22.6640625 145.956054688 0 118 0 c 0
 90.044921875 0 67.3818359375 22.6640625 67.3818359375 50.62109375 c 2
 67.3818359375 860.520507812 l 2
 67.3818359375 888.475585938 90.044921875 911.138671875 118 911.138671875 c 0
EndSplineSet
Validated: 33
EndChar

StartChar: L
Encoding: 76 76 11
Width: 586
Flags: HW
LayerCount: 2
Fore
SplineSet
103 911.16015625 m 0
 130.956054688 911.16015625 153.619140625 888.497070312 153.619140625 860.541992188 c 2
 153.619140625 101.243164062 l 1
 488.673828125 101.243164062 l 2
 516.629882812 101.243164062 539.29296875 78.5791015625 539.29296875 50.62109375 c 0
 539.29296875 22.6640625 516.629882812 0 488.673828125 0 c 2
 103 0 l 2
 75.0439453125 0 52.3818359375 22.6640625 52.3818359375 50.62109375 c 2
 52.3818359375 860.541992188 l 2
 52.3818359375 888.497070312 75.0439453125 911.16015625 103 911.16015625 c 0
EndSplineSet
Validated: 1
EndChar

StartChar: M
Encoding: 77 77 12
Width: 748
Flags: HW
LayerCount: 2
Fore
SplineSet
86.0361328125 909.931640625 m 0
 109.205078125 915.072265625 132.833007812 903.42578125 142.869140625 881.921875 c 2
 366.965820312 401.727539062 l 1
 591.061523438 881.921875 l 2
 601.09765625 903.42578125 624.725585938 915.072265625 647.893554688 909.931640625 c 0
 671.0625 904.791992188 687.549804688 884.24609375 687.549804688 860.514648438 c 2
 687.55078125 50.6142578125 l 2
 687.55078125 22.6572265625 664.887695312 0 636.931640625 0 c 0
 608.975585938 0 586.313476562 22.6572265625 586.313476562 50.6142578125 c 2
 586.3125 632.352539062 l 1
 412.834960938 260.625 l 2
 404.518554688 242.799804688 386.6328125 231.4140625 366.965820312 231.4140625 c 0
 347.299804688 231.4140625 329.413085938 242.799804688 321.095703125 260.625 c 2
 147.618164062 632.353515625 l 1
 147.618164062 50.6142578125 l 2
 147.618164062 22.6572265625 124.955078125 0 97 0 c 0
 69.0439453125 0 46.380859375 22.6572265625 46.380859375 50.6142578125 c 2
 46.380859375 860.514648438 l 2
 46.380859375 884.24609375 62.8681640625 904.791992188 86.0361328125 909.931640625 c 0
EndSplineSet
Validated: 33
EndChar

StartChar: N
Encoding: 78 78 13
Width: 700
Flags: HW
LayerCount: 2
Fore
SplineSet
93.0078125 909.438476562 m 0
 115.190429688 915.329101562 138.561523438 905.557617188 149.94921875 885.62890625 c 2
 518.184570312 241.221679688 l 1
 518.184570312 860.514648438 l 2
 518.184570312 888.470703125 540.846679688 911.133789062 568.803710938 911.133789062 c 0
 596.758789062 911.133789062 619.421875 888.470703125 619.421875 860.514648438 c 2
 619.421875 50.6142578125 l 2
 619.421875 27.6640625 603.979492188 7.5859375 581.795898438 1.693359375 c 0
 559.612304688 -4.2001953125 536.2421875 5.5712890625 524.854492188 25.5 c 2
 156.618164062 669.908203125 l 1
 156.618164062 50.6142578125 l 2
 156.618164062 22.6572265625 133.956054688 0 106 0 c 0
 78.0439453125 0 55.380859375 22.6572265625 55.380859375 50.6142578125 c 2
 55.380859375 860.514648438 l 2
 55.380859375 883.466796875 70.82421875 903.546875 93.0078125 909.438476562 c 0
EndSplineSet
Validated: 33
EndChar

StartChar: O
Encoding: 79 79 14
Width: 760
Flags: HW
LayerCount: 2
Fore
SplineSet
272.359375 905.813476562 m 6
 279.389648438 909.329101562 287.141601562 911.16015625 295.001953125 911.16015625 c 6
 449.260742188 911.16015625 l 6
 457.114257812 911.16015625 464.859375 909.333007812 471.884765625 905.822265625 c 6
 549.04296875 867.271484375 l 6
 553.916015625 864.836914062 558.364257812 861.630859375 562.215820312 857.778320312 c 6
 639.345703125 780.625 l 6
 645.831054688 774.137695312 650.430664062 766.010742188 652.655273438 757.111328125 c 6
 691.205078125 602.876953125 l 6
 692.208007812 598.862304688 692.71484375 594.741210938 692.71484375 590.602539062 c 6
 692.715820312 320.625976562 l 6
 692.715820312 316.48828125 692.208984375 312.365234375 691.205078125 308.350585938 c 6
 652.653320312 154.107421875 l 6
 650.4296875 145.21484375 645.830078125 137.0859375 639.34765625 130.599609375 c 6
 562.220703125 53.435546875 l 6
 558.374023438 49.5859375 553.931640625 46.37890625 549.064453125 43.943359375 c 6
 471.907226562 5.349609375 l 6
 464.875976562 1.8291015625 457.122070312 0 449.260742188 0 c 6
 295 0 l 6
 287.141601562 0.0068359375 279.388671875 1.8359375 272.359375 5.349609375 c 6
 195.231445312 43.921875 l 6
 190.364257812 46.357421875 185.922851562 49.5576171875 182.075195312 53.4072265625 c 6
 104.947265625 130.557617188 l 6
 98.462890625 137.04296875 93.8623046875 145.171875 91.63671875 154.064453125 c 6
 53.056640625 308.36328125 l 6
 52.052734375 312.37890625 51.544921875 316.501953125 51.544921875 320.641601562 c 6
 51.544921875 590.591796875 l 6
 51.544921875 594.73046875 52.052734375 598.854492188 53.056640625 602.870117188 c 6
 91.6357421875 757.166992188 l 6
 93.8623046875 766.072265625 98.4677734375 774.204101562 104.9609375 780.693359375 c 6
 182.091796875 857.772460938 l 6
 185.935546875 861.612304688 190.372070312 864.809570312 195.231445312 867.239257812 c 6
 272.359375 905.813476562 l 6
306.954101562 809.922851562 m 5
 247.8515625 780.36328125 l 5
 186.446289062 719 l 5
 152.782226562 584.359375 l 5
 152.782226562 326.874023438 l 5
 186.451171875 192.221679688 l 5
 247.862304688 130.79296875 l 5
 306.955078125 101.243164062 l 5
 437.307617188 101.235351562 l 5
 496.424804688 130.807617188 l 5
 557.834960938 192.256835938 l 5
 591.478515625 326.85546875 l 5
 591.477539062 584.373046875 l 5
 557.837890625 718.96484375 l 5
 496.435546875 780.384765625 l 5
 437.318359375 809.922851562 l 5
 306.954101562 809.922851562 l 5
EndSplineSet
Validated: 1
EndChar

StartChar: P
Encoding: 80 80 15
Width: 673
Flags: HW
LayerCount: 2
Fore
SplineSet
46.3818359375 860.520507812 m 2
 46.3818359375 888.475585938 69.0439453125 911.138671875 97 911.138671875 c 2
 405.543945312 911.138671875 l 2
 413.400390625 911.138671875 421.1484375 909.309570312 428.17578125 905.797851562 c 2
 505.3046875 867.24609375 l 2
 510.177734375 864.810546875 514.625 861.604492188 518.4765625 857.750976562 c 2
 557.055664062 819.150390625 l 2
 560.899414062 815.303710938 564.098632812 810.86328125 566.530273438 805.999023438 c 2
 605.080078125 728.874023438 l 2
 608.592773438 721.846679688 610.420898438 714.09765625 610.420898438 706.241210938 c 2
 610.420898438 590.584960938 l 2
 610.419921875 582.73046875 608.592773438 574.984375 605.081054688 567.958007812 c 2
 566.53125 490.813476562 l 2
 564.096679688 485.942382812 560.892578125 481.49609375 557.041015625 477.645507812 c 2
 518.46484375 439.075195312 l 2
 514.623046875 435.233398438 510.1875 432.036132812 505.329101562 429.604492188 c 2
 428.198242188 391.002929688 l 2
 421.165039062 387.482421875 413.408203125 385.650390625 405.54296875 385.650390625 c 2
 147.619140625 385.653320312 l 1
 147.619140625 50.62109375 l 2
 147.619140625 22.6640625 124.956054688 0 97 0 c 0
 69.0439453125 0 46.3818359375 22.6640625 46.3818359375 50.62109375 c 2
 46.3818359375 860.520507812 l 2
147.619140625 486.891601562 m 1
 393.584960938 486.887695312 l 1
 452.685546875 516.465820312 l 1
 479.646484375 543.422851562 l 1
 509.182617188 602.528320312 l 1
 509.18359375 694.296875 l 1
 479.645507812 753.392578125 l 1
 452.685546875 780.368164062 l 1
 393.598632812 809.901367188 l 1
 147.619140625 809.901367188 l 1
 147.619140625 486.891601562 l 1
EndSplineSet
Validated: 1
EndChar

StartChar: Q
Encoding: 81 81 16
Width: 764
Flags: HW
LayerCount: 2
Fore
SplineSet
266.219726562 892.341796875 m 2
 272.78125 895.788085938 280.015625 897.58203125 287.352539062 897.58203125 c 2
 431.327148438 897.58203125 l 2
 438.659179688 897.58203125 445.890625 895.7890625 452.44921875 892.348632812 c 2
 524.436523438 854.567382812 l 2
 528.982421875 852.181640625 533.131835938 849.041015625 536.725585938 845.267578125 c 2
 608.713867188 769.657226562 l 2
 614.763671875 763.302734375 619.057617188 755.341796875 621.133789062 746.624023438 c 2
 657.140625 595.47265625 l 2
 658.079101562 591.537109375 658.552734375 587.493164062 658.552734375 583.436523438 c 2
 658.5546875 318.858398438 l 2
 658.5546875 314.799804688 658.081054688 310.756835938 657.142578125 306.8203125 c 2
 621.133789062 155.6640625 l 2
 619.057617188 146.948242188 614.768554688 138.98828125 608.720703125 132.640625 c 2
 570.126953125 92.08203125 l 1
 603.283203125 57.2919921875 l 1
 668.421875 23.083984375 l 2
 691.76171875 10.826171875 701.21484375 -18.97265625 689.541015625 -43.4794921875 c 0
 677.868164062 -67.98046875 649.491210938 -77.90625 626.155273438 -65.6484375 c 2
 554.16796875 -27.8486328125 l 2
 549.6328125 -25.4609375 545.493164062 -22.3330078125 541.90625 -18.56640625 c 2
 494 31.7001953125 l 1
 452.459960938 9.8876953125 l 2
 445.8984375 6.4375 438.663085938 4.6455078125 431.326171875 4.6455078125 c 2
 287.352539062 4.6455078125 l 2
 280.015625 4.6455078125 272.779296875 6.4375 266.217773438 9.8876953125 c 2
 194.231445312 47.6875 l 2
 189.692382812 50.0751953125 185.548828125 53.2109375 181.959960938 56.9765625 c 2
 109.94921875 132.583984375 l 2
 103.892578125 138.947265625 99.595703125 146.913085938 97.5185546875 155.634765625 c 2
 61.537109375 306.849609375 l 2
 60.6005859375 310.78125 60.1279296875 314.819335938 60.1279296875 318.874023438 c 2
 60.1279296875 583.424804688 l 2
 60.1279296875 587.478515625 60.6005859375 591.517578125 61.537109375 595.44921875 c 2
 97.517578125 746.661132812 l 2
 99.595703125 755.39453125 103.8984375 763.368164062 109.963867188 769.73046875 c 2
 181.977539062 845.268554688 l 2
 185.5625 849.028320312 189.701171875 852.16015625 194.234375 854.540039062 c 2
 266.219726562 892.341796875 l 2
503.3046875 162.229492188 m 1
 532.642578125 193.057617188 l 1
 564.06640625 324.966796875 l 1
 564.064453125 577.326171875 l 1
 532.643554688 709.2265625 l 1
 475.327148438 769.42578125 l 1
 420.177734375 798.369140625 l 1
 298.5078125 798.369140625 l 1
 243.342773438 769.399414062 l 1
 186.01171875 709.263671875 l 1
 154.616210938 577.321289062 l 1
 154.616210938 324.978515625 l 1
 186.015625 193.022460938 l 1
 243.352539062 132.822265625 l 1
 298.508789062 103.85546875 l 1
 420.169921875 103.85546875 l 1
 423.569335938 105.640625 l 1
 367.333007812 164.700195312 l 1
 312.1796875 193.659179688 l 1
 251.345703125 193.659179688 l 2
 225.25390625 193.659179688 204.1015625 215.870117188 204.1015625 243.268554688 c 0
 204.1015625 270.665039062 225.25390625 292.875 251.345703125 292.875 c 2
 323.334960938 292.875 l 2
 330.670898438 292.875 337.90625 291.081054688 344.466796875 287.635742188 c 2
 416.454101562 249.83203125 l 2
 420.995117188 247.448242188 425.139648438 244.310546875 428.73046875 240.538085938 c 2
 503.3046875 162.229492188 l 1
EndSplineSet
Validated: 33
EndChar

StartChar: R
Encoding: 82 82 17
Width: 685
Flags: HW
LayerCount: 2
Fore
SplineSet
52.5498046875 851.391601562 m 2
 52.5498046875 879.346679688 75.212890625 902.009765625 103.168945312 902.009765625 c 2
 411.713867188 902.009765625 l 2
 419.569335938 902.009765625 427.318359375 900.180664062 434.344726562 896.668945312 c 2
 511.473632812 858.1171875 l 2
 516.3515625 855.678710938 520.803710938 852.46875 524.658203125 848.609375 c 2
 563.209960938 810.0078125 l 2
 567.043945312 806.16796875 570.236328125 801.737304688 572.6640625 796.8828125 c 2
 611.243164062 719.7578125 l 2
 614.760742188 712.727539062 616.590820312 704.973632812 616.590820312 697.11328125 c 2
 616.590820312 581.456054688 l 2
 616.590820312 573.596679688 614.760742188 565.845703125 611.245117188 558.81640625 c 2
 572.666992188 481.670898438 l 2
 570.235351562 476.810546875 567.037109375 472.372070312 563.1953125 468.52734375 c 2
 524.643554688 429.958007812 l 2
 520.798828125 426.111328125 516.360351562 422.91015625 511.497070312 420.475585938 c 2
 434.368164062 381.874023438 l 2
 427.334960938 378.353515625 419.577148438 376.521484375 411.712890625 376.521484375 c 2
 393.228515625 376.521484375 l 1
 607.44140625 70.5 l 2
 623.47265625 47.5927734375 617.90234375 16.03515625 595 0 c 0
 572.09765625 -16.029296875 540.53515625 -10.45703125 524.502929688 12.4423828125 c 2
 269.65234375 376.5234375 l 1
 153.787109375 376.524414062 l 1
 153.787109375 41.4921875 l 2
 153.787109375 13.53515625 131.125 -9.12890625 103.168945312 -9.12890625 c 0
 75.212890625 -9.12890625 52.5498046875 13.53515625 52.5498046875 41.4921875 c 2
 52.5498046875 851.391601562 l 2
153.787109375 477.762695312 m 1
 295.130859375 477.760742188 l 2
 295.685546875 477.76953125 296.240234375 477.76953125 296.793945312 477.760742188 c 2
 399.75390625 477.758789062 l 1
 458.844726562 507.333007812 l 1
 485.790039062 534.291992188 l 1
 515.353515625 593.407226562 l 1
 515.353515625 685.159179688 l 1
 485.787109375 744.266601562 l 1
 458.845703125 771.244140625 l 1
 399.768554688 800.772460938 l 1
 153.787109375 800.772460938 l 1
 153.787109375 477.762695312 l 1
EndSplineSet
Validated: 33
EndChar

StartChar: S
Encoding: 83 83 18
Width: 676
Flags: HW
LayerCount: 2
Fore
SplineSet
229.934570312 905.813476562 m 2
 236.96484375 909.329101562 244.715820312 911.16015625 252.577148438 911.16015625 c 2
 445.4140625 911.16015625 l 2
 450.853515625 911.16015625 456.2578125 910.283203125 461.416992188 908.563476562 c 2
 577.09765625 870.012695312 l 2
 603.619140625 861.173828125 617.955078125 832.5078125 609.116210938 805.986328125 c 0
 600.276367188 779.46484375 571.611328125 765.12890625 545.08984375 773.967773438 c 2
 437.201171875 809.922851562 l 1
 264.529296875 809.922851562 l 1
 205.43359375 780.3671875 l 1
 178.462890625 753.400390625 l 1
 148.91015625 694.354492188 l 1
 148.91015625 641.116210938 l 1
 178.46875 582.00390625 l 1
 205.432617188 555.04296875 l 1
 270.248046875 522.626953125 l 1
 419.114257812 485.401367188 l 2
 422.686523438 484.5078125 426.150390625 483.227539062 429.444335938 481.583984375 c 2
 506.57421875 443.079101562 l 2
 511.450195312 440.64453125 515.90234375 437.438476562 519.756835938 433.583984375 c 2
 558.333984375 395.009765625 l 2
 562.184570312 391.16015625 565.388671875 386.713867188 567.822265625 381.842773438 c 2
 606.374023438 304.694335938 l 2
 609.884765625 297.66796875 611.712890625 289.921875 611.712890625 282.067382812 c 2
 611.712890625 204.921875 l 2
 611.712890625 197.064453125 609.884765625 189.321289062 606.374023438 182.29296875 c 2
 567.823242188 105.142578125 l 2
 565.388671875 100.271484375 562.184570312 95.8291015625 558.333984375 91.978515625 c 2
 519.755859375 53.400390625 l 2
 515.91015625 49.5576171875 511.470703125 46.357421875 506.606445312 43.921875 c 2
 429.477539062 5.349609375 l 2
 422.447265625 1.8359375 414.696289062 0.0068359375 406.836914062 0 c 2
 214 0 l 2
 208.55859375 0 203.151367188 0.87890625 197.989257812 2.599609375 c 2
 82.28125 41.1787109375 l 2
 55.7607421875 50.021484375 41.4296875 78.685546875 50.271484375 105.20703125 c 0
 59.1142578125 131.728515625 87.78125 146.057617188 114.301757812 137.21484375 c 2
 222.21484375 101.235351562 l 1
 394.8828125 101.243164062 l 1
 453.979492188 130.79296875 l 1
 480.938476562 157.75 l 1
 510.475585938 216.864257812 l 1
 510.475585938 270.124023438 l 1
 480.9375 329.235351562 l 1
 453.993164062 356.176757812 l 1
 389.181640625 388.53125 l 1
 240.296875 425.762695312 l 2
 236.712890625 426.658203125 233.23828125 427.944335938 229.934570312 429.596679688 c 2
 152.805664062 468.170898438 l 2
 147.942382812 470.602539062 143.502929688 473.803710938 139.657226562 477.647460938 c 2
 101.078125 516.22265625 l 2
 97.23046875 520.069335938 94.0283203125 524.512695312 91.5947265625 529.37890625 c 2
 53.017578125 606.52734375 l 2
 49.5029296875 613.555664062 47.6728515625 621.307617188 47.6728515625 629.166015625 c 2
 47.6728515625 706.314453125 l 2
 47.6728515625 714.1796875 49.505859375 721.936523438 53.0263671875 728.969726562 c 2
 91.603515625 806.048828125 l 2
 94.0361328125 810.908203125 97.2353515625 815.344726562 101.078125 819.1875 c 2
 139.657226562 857.762695312 l 2
 143.502929688 861.607421875 147.942382812 864.807617188 152.805664062 867.239257812 c 2
 229.934570312 905.813476562 l 2
EndSplineSet
Validated: 33
EndChar

StartChar: T
Encoding: 84 84 19
Width: 685
Flags: HW
LayerCount: 2
Fore
SplineSet
57.9921875 860.520507812 m 0
 57.9921875 888.475585938 80.6552734375 911.138671875 108.611328125 911.138671875 c 2
 571.415039062 911.138671875 l 2
 599.370117188 911.138671875 622.033203125 888.475585938 622.033203125 860.520507812 c 0
 622.033203125 832.563476562 599.370117188 809.901367188 571.415039062 809.901367188 c 2
 390.618164062 809.901367188 l 1
 390.618164062 50.62109375 l 2
 390.618164062 22.6640625 367.955078125 0 340 0 c 0
 312.043945312 0 289.380859375 22.6640625 289.380859375 50.62109375 c 2
 289.380859375 809.901367188 l 1
 108.611328125 809.901367188 l 2
 80.6552734375 809.901367188 57.9921875 832.563476562 57.9921875 860.520507812 c 0
EndSplineSet
Validated: 1
EndChar

StartChar: U
Encoding: 85 85 20
Width: 706
Flags: HW
LayerCount: 2
Fore
SplineSet
110.442382812 906.153320312 m 4
 138.3984375 906.153320312 161.061523438 883.490234375 161.061523438 855.53515625 c 6
 161.061523438 211.864257812 l 5
 190.6015625 152.7578125 l 5
 217.563476562 125.779296875 l 5
 276.65234375 96.228515625 l 5
 407.006835938 96.236328125 l 5
 466.104492188 125.79296875 l 5
 493.0625 152.743164062 l 5
 522.599609375 211.857421875 l 5
 522.599609375 855.53515625 l 6
 522.599609375 883.490234375 545.262695312 906.153320312 573.21875 906.153320312 c 4
 601.174804688 906.153320312 623.837890625 883.490234375 623.837890625 855.53515625 c 6
 623.836914062 199.915039062 l 6
 623.836914062 192.057617188 622.008789062 184.314453125 618.498046875 177.286132812 c 6
 579.948242188 100.135742188 l 6
 577.513671875 95.2646484375 574.309570312 90.822265625 570.458984375 86.9716796875 c 6
 531.87890625 48.3935546875 l 6
 528.034179688 44.55078125 523.594726562 41.3505859375 518.73046875 38.9150390625 c 6
 441.602539062 0.3427734375 l 6
 434.573242188 -3.1708984375 426.8203125 -5 418.9609375 -5.0068359375 c 6
 264.703125 -5.0068359375 l 6
 256.841796875 -5.0068359375 249.08984375 -3.177734375 242.059570312 0.3359375 c 6
 164.9296875 38.9150390625 l 6
 160.061523438 41.3505859375 155.618164062 44.55078125 151.76953125 48.400390625 c 6
 113.192382812 87 l 6
 109.346679688 90.8427734375 106.146484375 95.2861328125 103.71484375 100.157226562 c 6
 65.1640625 177.29296875 l 6
 61.65234375 184.322265625 59.82421875 192.064453125 59.82421875 199.921875 c 6
 59.82421875 855.53515625 l 6
 59.82421875 883.490234375 82.486328125 906.153320312 110.442382812 906.153320312 c 4
EndSplineSet
Validated: 1
EndChar

StartChar: V
Encoding: 86 86 21
Width: 802
Flags: HW
LayerCount: 2
Fore
SplineSet
108.026367188 908.541992188 m 0
 134.547851562 917.381835938 163.21484375 903.048828125 172.0546875 876.52734375 c 2
 394 210.693359375 l 1
 615.9453125 876.52734375 l 2
 624.78515625 903.048828125 653.451171875 917.381835938 679.97265625 908.541992188 c 0
 706.494140625 899.701171875 720.827148438 871.03515625 711.987304688 844.513671875 c 2
 442.020507812 34.6142578125 l 2
 435.130859375 13.943359375 415.788085938 0 394 0 c 0
 372.211914062 0 352.869140625 13.943359375 345.978515625 34.6142578125 c 2
 76.0126953125 844.513671875 l 2
 67.171875 871.03515625 81.5048828125 899.701171875 108.026367188 908.541992188 c 0
EndSplineSet
Validated: 33
EndChar

StartChar: W
Encoding: 87 87 22
Width: 916
Flags: HW
LayerCount: 2
Fore
SplineSet
84.212890625 909.743164062 m 0
 111.408203125 916.21875 138.704101562 899.421875 145.1796875 872.225585938 c 2
 291.55078125 257.482421875 l 1
 394.123046875 642.166992188 l 2
 400.032226562 664.326171875 420.098632812 679.744140625 443.032226562 679.744140625 c 0
 465.96484375 679.745117188 486.033203125 664.328125 491.942382812 642.169921875 c 2
 594.540039062 257.473632812 l 1
 740.915039062 872.225585938 l 2
 747.385742188 899.421875 774.686523438 916.21875 801.87890625 909.743164062 c 0
 829.079101562 903.268554688 845.872070312 875.97265625 839.400390625 848.776367188 c 2
 646.561523438 38.8935546875 l 2
 641.19140625 16.3359375 621.18359375 0.314453125 598 0 c 0
 574.81640625 -0.3134765625 554.385742188 15.171875 548.41015625 37.5712890625 c 2
 443.038085938 432.673828125 l 1
 337.684570312 37.564453125 l 2
 331.7109375 15.1572265625 311.279296875 -0.3212890625 288.095703125 -0.013671875 c 0
 264.912109375 0.30078125 244.903320312 16.3212890625 239.532226562 38.87890625 c 2
 46.6953125 848.776367188 l 2
 40.2197265625 875.97265625 57.0166015625 903.268554688 84.212890625 909.743164062 c 0
EndSplineSet
Validated: 33
EndChar

StartChar: X
Encoding: 88 88 23
Width: 787
Flags: HW
LayerCount: 2
Fore
SplineSet
82.9111328125 894.131835938 m 0
 106.171875 909.638671875 137.599609375 903.353515625 153.107421875 880.092773438 c 2
 380.956054688 538.319335938 l 1
 608.8046875 880.092773438 l 2
 624.3125 903.353515625 655.739257812 909.638671875 679 894.131835938 c 0
 702.260742188 878.625 708.546875 847.197265625 693.0390625 823.936523438 c 2
 441.791992188 447.065429688 l 1
 693.0390625 70.193359375 l 2
 708.546875 46.935546875 702.260742188 15.5068359375 679 0 c 0
 655.739257812 -15.5068359375 624.3125 -9.2216796875 608.8046875 14.0361328125 c 2
 380.956054688 355.810546875 l 1
 153.107421875 14.0361328125 l 2
 137.599609375 -9.2216796875 106.171875 -15.5068359375 82.9111328125 0 c 0
 59.650390625 15.5068359375 53.365234375 46.935546875 68.8720703125 70.193359375 c 2
 320.120117188 447.065429688 l 1
 68.8720703125 823.936523438 l 2
 53.365234375 847.197265625 59.650390625 878.625 82.9111328125 894.131835938 c 0
EndSplineSet
Validated: 33
EndChar

StartChar: Y
Encoding: 89 89 24
Width: 808
Flags: HW
LayerCount: 2
Fore
SplineSet
96.857421875 903.247070312 m 4
 120.443359375 918.255859375 151.729492188 911.302734375 166.73828125 887.716796875 c 6
 394 530.581054688 l 5
 621.260742188 887.716796875 l 6
 636.26953125 911.302734375 667.555664062 918.255859375 691.141601562 903.247070312 c 4
 714.727539062 888.23828125 721.680664062 856.952148438 706.671875 833.366210938 c 6
 444.619140625 421.555664062 l 5
 444.619140625 50.62109375 l 6
 444.619140625 22.6640625 421.956054688 0 394 0 c 4
 366.043945312 0 343.381835938 22.6640625 343.381835938 50.62109375 c 6
 343.381835938 421.555664062 l 5
 81.3271484375 833.366210938 l 6
 66.3193359375 856.952148438 73.2724609375 888.23828125 96.857421875 903.247070312 c 4
EndSplineSet
Validated: 33
EndChar

StartChar: Z
Encoding: 90 90 25
Width: 772
Flags: HW
LayerCount: 2
Fore
SplineSet
58.4501953125 860.541992188 m 0
 58.4501953125 888.497070312 81.11328125 911.16015625 109.069335938 911.16015625 c 2
 649.000976562 911.16015625 l 2
 667.669921875 911.16015625 684.822265625 900.884765625 693.630859375 884.426757812 c 0
 702.439453125 867.966796875 701.474609375 847.99609375 691.119140625 832.462890625 c 2
 203.6484375 101.256835938 l 1
 649.00390625 101.243164062 l 2
 676.958984375 101.243164062 699.62109375 78.5791015625 699.620117188 50.62109375 c 0
 699.619140625 22.6640625 676.956054688 0 649 0 c 2
 109.067382812 0.021484375 l 2
 90.3994140625 0.021484375 73.2470703125 10.2998046875 64.439453125 26.7568359375 c 0
 55.630859375 43.21484375 56.5966796875 63.185546875 66.9521484375 78.7216796875 c 2
 554.419921875 809.922851562 l 1
 109.069335938 809.922851562 l 2
 81.11328125 809.922851562 58.4501953125 832.584960938 58.4501953125 860.541992188 c 0
EndSplineSet
Validated: 33
EndChar

StartChar: at
Encoding: 64 64 26
Width: 1000
Flags: H
LayerCount: 2
Fore
SplineSet
499.564453125 936.42578125 m 2
 508.244140625 938.595703125 517.325195312 938.594726562 526.004882812 936.423828125 c 2
 692.131835938 894.8828125 l 2
 698.193359375 893.366210938 703.94921875 890.8203125 709.1484375 887.354492188 c 2
 833.751953125 804.271484375 l 2
 839.736328125 800.280273438 844.875 795.145507812 848.8671875 789.161132812 c 2
 931.928710938 664.612304688 l 2
 937.8984375 655.65625 941.090820312 645.131835938 941.090820312 634.366210938 c 2
 941.090820312 426.66015625 l 2
 941.090820312 418.200195312 939.12109375 409.858398438 935.344726562 402.291992188 c 2
 893.821289062 319.208984375 l 2
 888.551757812 308.653320312 879.990234375 300.094726562 869.436523438 294.818359375 c 2
 786.346679688 253.276367188 l 2
 778.779296875 249.493164062 770.435546875 247.522460938 761.975585938 247.522460938 c 2
 720.458007812 247.518554688 l 2
 705.998046875 247.517578125 692.130859375 253.260742188 681.907226562 263.485351562 c 2
 678.91796875 266.47265625 l 1
 675.946289062 263.499023438 l 2
 671.79296875 259.34375 666.995117188 255.88671875 661.73828125 253.26171875 c 2
 578.677734375 211.799804688 l 2
 571.125976562 208.022460938 562.801757812 206.061523438 554.362304688 206.053710938 c 2
 471.26953125 206.0078125 l 2
 462.797851562 206 454.442382812 207.96875 446.865234375 211.75390625 c 2
 363.803710938 253.26953125 l 2
 358.55078125 255.895507812 353.755859375 259.352539062 349.606445312 263.5078125 c 2
 308.088867188 305.073242188 l 2
 303.956054688 309.209960938 300.515625 313.985351562 297.900390625 319.215820312 c 2
 256.35546875 402.298828125 l 2
 252.5703125 409.869140625 250.598632812 418.215820312 250.598632812 426.6796875 c 2
 250.598632812 509.762695312 l 2
 250.598632812 518.228515625 252.5703125 526.578125 256.358398438 534.149414062 c 2
 297.904296875 617.208007812 l 2
 300.526367188 622.450195312 303.975585938 627.233398438 308.12109375 631.377929688 c 2
 349.63671875 672.872070312 l 2
 353.780273438 677.01171875 358.5625 680.458007812 363.801757812 683.077148438 c 2
 446.866210938 724.59375 l 2
 454.43359375 728.375976562 462.77734375 730.344726562 471.237304688 730.344726562 c 2
 554.327148438 730.344726562 l 2
 562.778320312 730.344726562 571.11328125 728.380859375 578.674804688 724.60546875 c 2
 629.627929688 699.169921875 l 1
 638.372070312 717.600585938 657.151367188 730.344726562 678.907226562 730.344726562 c 0
 709.013671875 730.344726562 733.419921875 705.939453125 733.419921875 675.833007812 c 2
 733.419921875 593.126953125 l 2
 733.420898438 592.922851562 733.420898438 592.719726562 733.419921875 592.516601562 c 2
 733.420898438 366.15625 l 1
 743.030273438 356.544921875 l 1
 749.099609375 356.545898438 l 1
 804.420898438 384.205078125 l 1
 832.067382812 439.521484375 l 1
 832.067382812 617.856445312 l 1
 764.208007812 719.60546875 l 1
 656.522460938 791.405273438 l 1
 512.77734375 827.350585938 l 1
 369.043945312 791.4296875 l 1
 261.361328125 719.602539062 l 1
 189.581054688 611.950195312 l 1
 153.6328125 468.211914062 l 1
 189.58203125 324.454101562 l 1
 261.358398438 216.7421875 l 1
 369.030273438 145.022460938 l 1
 512.786132812 109.077148438 l 1
 656.524414062 145 l 1
 773.274414062 222.841796875 l 2
 798.321289062 239.541992188 832.16796875 232.775390625 848.8671875 207.72265625 c 0
 865.575195312 182.676757812 858.805664062 148.830078125 833.751953125 132.130859375 c 2
 709.146484375 49.0458984375 l 2
 703.946289062 45.5771484375 698.1875 43.0302734375 692.123046875 41.515625 c 2
 526 0 l 2
 526 0 508.239257812 -2.169921875 499.55859375 0 c 2
 333.434570312 41.5380859375 l 2
 327.380859375 43.0537109375 321.630859375 45.591796875 316.436523438 49.0537109375 c 2
 191.829101562 132.061523438 l 2
 185.831054688 136.053710938 180.68359375 141.200195312 176.686523438 147.200195312 c 2
 93.6240234375 271.84765625 l 2
 90.162109375 277.04296875 87.6181640625 282.793945312 86.103515625 288.8515625 c 2
 44.5576171875 454.98828125 l 2
 42.38671875 463.670898438 42.38671875 472.755859375 44.5576171875 481.439453125 c 2
 86.1044921875 647.5625 l 2
 87.6201171875 653.624023438 90.1669921875 659.379882812 93.6328125 664.578125 c 2
 176.6953125 789.149414062 l 2
 180.684570312 795.131835938 185.818359375 800.266601562 191.80078125 804.256835938 c 2
 316.408203125 887.374023438 l 2
 321.611328125 890.84375 327.373046875 893.393554688 333.440429688 894.91015625 c 2
 499.564453125 936.42578125 l 2
624.395507812 366.147460938 m 1
 624.395507812 570.252929688 l 1
 605.104492188 589.556640625 l 1
 541.4765625 621.3203125 l 1
 484.102539062 621.3203125 l 1
 420.455078125 589.5078125 l 1
 391.452148438 560.520507812 l 1
 359.624023438 496.889648438 l 1
 359.624023438 439.549804688 l 1
 391.46484375 375.874023438 l 1
 420.4765625 346.828125 l 1
 484.083984375 315.038085938 l 1
 541.461914062 315.073242188 l 1
 605.104492188 346.844726562 l 1
 624.395507812 366.147460938 l 1
EndSplineSet
Validated: 33
EndChar

StartChar: grave
Encoding: 96 96 27
Width: 324
Flags: HW
LayerCount: 2
Fore
SplineSet
73.2021484375 956.048828125 m 0
 91.017578125 972.30859375 119.90234375 972.30859375 137.71875 956.048828125 c 2
 241.999023438 860.879882812 l 2
 259.815429688 844.62109375 259.815429688 818.259765625 242 802 c 0
 224.184570312 785.741210938 195.298828125 785.741210938 177.483398438 802 c 2
 73.2021484375 897.169921875 l 2
 55.3857421875 913.428710938 55.3857421875 939.790039062 73.2021484375 956.048828125 c 0
EndSplineSet
Validated: 33
EndChar

StartChar: zero
Encoding: 48 48 28
Width: 763
Flags: HW
LayerCount: 2
Fore
SplineSet
310.5859375 893.645507812 m 6
 318.15625 897.11328125 326.504882812 898.918945312 334.969726562 898.918945312 c 6
 418.03125 898.918945312 l 6
 426.495117188 898.918945312 434.840820312 897.114257812 442.41015625 893.646484375 c 6
 525.502929688 855.5859375 l 6
 530.743164062 853.186523438 535.52734375 850.02734375 539.668945312 846.232421875 c 6
 581.184570312 808.201171875 l 6
 585.323242188 804.412109375 588.768554688 800.034179688 591.387695312 795.239257812 c 6
 632.934570312 719.189453125 l 6
 634.719726562 715.922851562 636.107421875 712.486328125 637.07421875 708.94140625 c 6
 678.588867188 556.706054688 l 6
 679.668945312 552.74609375 680.213867188 548.682617188 680.213867188 544.6015625 c 6
 680.215820312 354.338867188 l 6
 680.215820312 350.255859375 679.668945312 346.188476562 678.588867188 342.227539062 c 6
 637.0703125 190.067382812 l 6
 636.106445312 186.537109375 634.72265625 183.112304688 632.944335938 179.849609375 c 6
 591.401367188 103.719726562 l 6
 588.78515625 98.927734375 585.34375 94.5498046875 581.209960938 90.7607421875 c 6
 539.69140625 52.677734375 l 6
 535.540039062 48.87109375 530.743164062 45.7001953125 525.487304688 43.2978515625 c 6
 442.397460938 5.2646484375 l 6
 434.821289062 1.796875 426.46875 -0.0068359375 418 0 c 6
 334.936523438 0.0419921875 l 6
 326.49609375 0.048828125 318.172851562 1.8466796875 310.62109375 5.306640625 c 6
 227.559570312 43.291015625 l 6
 222.301757812 45.693359375 217.502929688 48.8642578125 213.349609375 52.669921875 c 6
 171.833984375 90.7314453125 l 6
 167.697265625 94.5224609375 164.252929688 98.900390625 161.635742188 103.69140625 c 6
 120.08984375 179.807617188 l 6
 118.310546875 183.0703125 116.92578125 186.495117188 115.9609375 190.032226562 c 6
 74.4150390625 342.258789062 l 6
 73.333984375 346.221679688 72.787109375 350.290039062 72.787109375 354.373046875 c 6
 72.787109375 544.590820312 l 6
 72.787109375 548.673828125 73.333984375 552.743164062 74.4150390625 556.703125 c 6
 115.9609375 708.932617188 l 6
 116.92578125 712.467773438 118.309570312 715.895507812 120.088867188 719.155273438 c 6
 161.635742188 795.26953125 l 6
 164.259765625 800.078125 167.716796875 804.467773438 171.869140625 808.268554688 c 6
 213.38671875 846.255859375 l 6
 217.522460938 850.041992188 222.295898438 853.19140625 227.524414062 855.586914062 c 6
 310.5859375 893.645507812 l 6
347.840820312 799.0390625 m 5
 284.186523438 769.874023438 l 5
 255.18359375 743.336914062 l 5
 220.278320312 679.38671875 l 5
 181.811523438 538.44140625 l 5
 181.811523438 360.522460938 l 5
 220.278320312 219.577148438 l 5
 255.196289062 155.607421875 l 5
 284.194335938 129.025390625 l 5
 347.8359375 99.9208984375 l 5
 405.189453125 99.8857421875 l 5
 468.82421875 129.01171875 l 5
 497.83203125 155.614257812 l 5
 532.750976562 219.611328125 l 5
 571.19140625 360.486328125 l 5
 571.189453125 538.45703125 l 5
 532.75390625 679.401367188 l 5
 497.846679688 743.296875 l 5
 468.8359375 769.875 l 5
 405.163085938 799.0390625 l 5
 347.840820312 799.0390625 l 5
EndSplineSet
Validated: 1
EndChar

StartChar: one
Encoding: 49 49 29
Width: 679
Flags: HW
LayerCount: 2
Fore
SplineSet
353.547851562 868.711914062 m 0
 373.953125 862.53515625 387.909179688 843.727539062 387.909179688 822.407226562 c 2
 387.909179688 96.7578125 l 1
 560.708007812 96.7578125 l 2
 587.426757812 96.7578125 609.087890625 75.095703125 609.087890625 48.3759765625 c 0
 609.087890625 21.662109375 587.426757812 0 560.708007812 0 c 2
 341.6875 0 l 2
 340.971679688 -0.0341796875 340.251953125 -0.0478515625 339.529296875 -0.0478515625 c 0
 338.805664062 -0.0478515625 338.0859375 -0.0341796875 337.37109375 0 c 2
 118.375 0 l 2
 91.6552734375 0 69.9951171875 21.662109375 69.9951171875 48.3759765625 c 0
 69.9951171875 75.095703125 91.6552734375 96.7578125 118.375 96.7578125 c 2
 291.149414062 96.7578125 l 1
 291.149414062 668.7421875 l 1
 226.291992188 603.930664062 l 2
 222.622070312 600.262695312 218.384765625 597.208984375 213.744140625 594.887695312 c 2
 140.025390625 557.997070312 l 2
 116.130859375 546.040039062 87.06640625 555.716796875 75.1103515625 579.612304688 c 0
 63.1533203125 603.506835938 72.830078125 632.571289062 96.724609375 644.52734375 c 2
 163.438476562 677.911132812 l 1
 228.21875 742.646484375 l 1
 299.2734375 849.241210938 l 2
 311.098632812 866.981445312 333.141601562 874.889648438 353.547851562 868.711914062 c 0
EndSplineSet
Validated: 33
EndChar

StartChar: two
Encoding: 50 50 30
Width: 781
Flags: HW
LayerCount: 2
Fore
SplineSet
236.681640625 894.944335938 m 6
 243.7421875 898.41796875 251.52734375 900.2265625 259.419921875 900.2265625 c 6
 453.073242188 900.2265625 l 6
 460.966796875 900.2265625 468.751953125 898.416992188 475.811523438 894.943359375 c 6
 553.266601562 856.825195312 l 6
 558.14453125 854.423828125 562.596679688 851.266601562 566.455078125 847.474609375 c 6
 605.19921875 809.38671875 l 6
 609.067382812 805.583984375 612.287109375 801.190429688 614.734375 796.377929688 c 6
 653.448242188 720.213867188 l 6
 656.979492188 713.268554688 658.817382812 705.607421875 658.817382812 697.840820312 c 6
 658.81640625 621.5859375 l 6
 658.81640625 616.211914062 657.936523438 610.872070312 656.208984375 605.7734375 c 6
 617.49609375 491.479492188 l 6
 615 484.11328125 610.796875 477.418945312 605.215820312 471.9296875 c 6
 227.235351562 99.9931640625 l 5
 607.979492188 100.036132812 l 6
 636.053710938 100.036132812 658.814453125 77.6484375 658.817382812 50.025390625 c 4
 658.8203125 22.400390625 636.064453125 0.0068359375 607.990234375 0 c 6
 104.513671875 -0.048828125 l 6
 83.9541015625 -0.048828125 65.4169921875 12.1328125 57.546875 30.8212890625 c 4
 49.677734375 49.509765625 54.025390625 71.0283203125 68.5634765625 85.3271484375 c 6
 524.83984375 534.30859375 l 5
 557.151367188 629.701171875 l 5
 557.151367188 686.033203125 l 5
 527.5 744.366210938 l 5
 500.423828125 770.985351562 l 5
 441.068359375 800.196289062 l 5
 271.421875 800.196289062 l 5
 212.069335938 770.989257812 l 5
 179.154296875 738.626953125 l 6
 159.294921875 719.102539062 127.109375 719.11328125 107.265625 738.65234375 c 4
 87.4208984375 758.19140625 87.4326171875 789.859375 107.291015625 809.383789062 c 6
 146.033203125 847.475585938 l 6
 149.891601562 851.26953125 154.346679688 854.427734375 159.2265625 856.829101562 c 6
 236.681640625 894.944335938 l 6
EndSplineSet
Validated: 33
EndChar

StartChar: three
Encoding: 51 51 31
Width: 756
Flags: HW
LayerCount: 2
Fore
SplineSet
63.6181640625 856.494140625 m 0
 63.6181640625 884.4921875 86.6826171875 907.189453125 115.1328125 907.189453125 c 2
 625.384765625 907.189453125 l 2
 645.59765625 907.189453125 663.942382812 895.556640625 672.295898438 877.442382812 c 0
 680.6484375 859.328125 677.463867188 838.081054688 664.154296875 823.110351562 c 2
 464.182617188 598.189453125 l 1
 468.360351562 598.190429688 l 2
 476.358398438 598.192382812 484.24609375 596.360351562 491.401367188 592.842773438 c 2
 569.89453125 554.231445312 l 2
 574.85546875 551.791992188 579.381835938 548.581054688 583.30078125 544.720703125 c 2
 622.561523438 506.059570312 l 2
 626.470703125 502.2109375 629.723632812 497.768554688 632.196289062 492.901367188 c 2
 671.455078125 415.658203125 l 2
 675.033203125 408.6171875 676.896484375 400.8515625 676.897460938 392.98046875 c 2
 676.897460938 199.900390625 l 2
 676.897460938 192.0234375 675.036132812 184.26171875 671.459960938 177.229492188 c 2
 632.19921875 99.9462890625 l 2
 629.724609375 95.07421875 626.469726562 90.625 622.55859375 86.7763671875 c 2
 583.299804688 48.1162109375 l 2
 579.379882812 44.2607421875 574.852539062 41.048828125 569.893554688 38.609375 c 2
 491.400390625 0 l 2
 484.24609375 -3.5126953125 476.357421875 -5.34375 468.359375 -5.34375 c 2
 232.876953125 -5.30078125 l 2
 224.89453125 -5.2939453125 217.021484375 -3.4697265625 209.879882812 0.04296875 c 2
 131.383789062 38.6025390625 l 2
 126.419921875 41.0419921875 121.889648438 44.25390625 117.966796875 48.109375 c 2
 78.7080078125 86.7470703125 l 2
 58.58984375 106.541992188 58.5888671875 138.641601562 78.7060546875 158.443359375 c 0
 98.8232421875 178.237304688 131.439453125 178.245117188 151.557617188 158.443359375 c 2
 184.89453125 125.635742188 l 1
 245.036132812 96.0908203125 l 1
 456.21875 96.046875 l 1
 516.345703125 125.622070312 l 1
 543.78125 152.641601562 l 1
 573.870117188 211.86328125 l 1
 573.869140625 381.0078125 l 1
 543.786132812 440.198242188 l 1
 516.344726562 467.219726562 l 1
 456.216796875 496.795898438 l 1
 350.651367188 496.77734375 l 2
 330.436523438 496.7734375 312.087890625 508.405273438 303.733398438 526.520507812 c 0
 295.37890625 544.635742188 298.561523438 565.885742188 311.873046875 580.856445312 c 2
 511.862304688 805.796875 l 1
 115.1328125 805.796875 l 2
 86.6826171875 805.796875 63.6181640625 828.495117188 63.6181640625 856.494140625 c 0
EndSplineSet
Validated: 33
EndChar

StartChar: four
Encoding: 52 52 32
Width: 666
Flags: HW
LayerCount: 2
Fore
SplineSet
296.328125 958.865234375 m 0
 323.021484375 949.870117188 337.447265625 920.702148438 328.549804688 893.717773438 c 2
 156.814453125 372.903320312 l 1
 423.360351562 372.909179688 l 1
 423.360351562 372.909179688 416 585 415.759765625 585.258789062 c 2
 415 611 446.169921875 647.5859375 474.307617188 647.5859375 c 0
 502.4453125 647.5859375 525.256835938 624.526367188 525.256835938 596.081054688 c 2
 525.256835938 372.91015625 l 1
 590.765625 372.911132812 l 2
 618.90234375 372.913085938 641.713867188 349.854492188 641.71484375 321.409179688 c 0
 641.715820312 292.963867188 618.904296875 269.900390625 590.767578125 269.900390625 c 2
 525.256835938 269.900390625 l 1
 525.256835938 46.697265625 l 2
 525.256835938 18.2568359375 502.4453125 -4.802734375 474.307617188 -4.802734375 c 0
 446.169921875 -4.802734375 423.360351562 18.2568359375 423.360351562 46.697265625 c 2
 423.360351562 269.900390625 l 1
 86.1279296875 269.892578125 l 2
 69.75 269.892578125 54.37109375 277.8515625 44.794921875 291.282226562 c 0
 35.2197265625 304.713867188 32.6142578125 321.979492188 37.7939453125 337.684570312 c 2
 231.883789062 926.29296875 l 2
 240.783203125 953.278320312 269.633789062 967.861328125 296.328125 958.865234375 c 0
EndSplineSet
EndChar

StartChar: five
Encoding: 53 53 33
Width: 754
Flags: HW
LayerCount: 2
Fore
SplineSet
104.223632812 848.1953125 m 6
 106.870117188 873.5546875 129.147460938 892.8671875 155.75390625 892.8671875 c 6
 550.327148438 892.8671875 l 6
 578.928710938 892.8671875 602.114257812 870.657226562 602.114257812 843.26171875 c 4
 602.114257812 815.865234375 578.928710938 793.655273438 550.327148438 793.655273438 c 6
 202.622070312 793.655273438 l 5
 179.265625 569.833007812 l 5
 211.498046875 585.274414062 l 6
 218.69140625 588.720703125 226.62109375 590.513671875 234.663085938 590.513671875 c 6
 431.94921875 590.513671875 l 6
 439.986328125 590.513671875 447.913085938 588.72265625 455.1015625 585.280273438 c 6
 534.012695312 547.5 l 6
 538.999023438 545.11328125 543.549804688 541.970703125 547.490234375 538.194335938 c 6
 586.958007812 500.364257812 l 6
 590.890625 496.594726562 594.163085938 492.244140625 596.650390625 487.478515625 c 6
 636.091796875 411.89453125 l 6
 639.684570312 405.0078125 641.555664062 397.415039062 641.555664062 389.715820312 c 6
 641.555664062 200.788085938 l 6
 641.555664062 193.087890625 639.685546875 185.5 636.095703125 178.612304688 c 6
 596.655273438 102.998046875 l 6
 594.166992188 98.2236328125 590.891601562 93.8701171875 586.956054688 90.0966796875 c 6
 547.487304688 52.2685546875 l 6
 543.546875 48.49609375 538.99609375 45.353515625 534.01171875 42.966796875 c 6
 455.102539062 5.1875 l 6
 447.91015625 1.75 439.978515625 -0.0419921875 431.938476562 -0.0419921875 c 6
 234.650390625 0 l 6
 226.625 0.0068359375 218.711914062 1.7919921875 211.532226562 5.228515625 c 6
 132.623046875 42.958984375 l 6
 127.62890625 45.3466796875 123.0703125 48.49609375 119.124023438 52.2763671875 c 6
 79.6826171875 90.076171875 l 6
 59.4638671875 109.459960938 59.4736328125 140.868164062 79.703125 160.23046875 c 4
 99.9326171875 179.598632812 132.72265625 179.591796875 152.940429688 160.215820312 c 6
 186.42578125 128.12109375 l 5
 246.876953125 99.2109375 l 5
 419.736328125 99.1689453125 l 5
 480.180664062 128.107421875 l 5
 507.7578125 154.5390625 l 5
 537.981445312 212.486328125 l 5
 537.982421875 378.0078125 l 5
 507.760742188 435.922851562 l 5
 480.178710938 462.359375 l 5
 419.728515625 491.301757812 l 5
 246.890625 491.301757812 l 5
 186.438476562 462.341796875 l 5
 152.94140625 430.234375 l 6
 137.466796875 415.40234375 113.927734375 411.493164062 94.142578125 420.46875 c 4
 74.3583984375 429.446289062 62.6044921875 449.369140625 64.7822265625 470.234375 c 6
 104.223632812 848.1953125 l 6
EndSplineSet
Validated: 33
EndChar

StartChar: six
Encoding: 54 54 34
Width: 674
Flags: HW
LayerCount: 2
Fore
SplineSet
314.205078125 892.137695312 m 2
 321.284179688 895.62109375 329.090820312 897.434570312 337.005859375 897.434570312 c 2
 492.359375 897.434570312 l 2
 520.508789062 897.434570312 543.328125 874.981445312 543.328125 847.284179688 c 0
 543.328125 819.5859375 520.508789062 797.1328125 492.359375 797.1328125 c 2
 349.041992188 797.1328125 l 1
 289.536132812 767.845703125 l 1
 260.12890625 738.915039062 l 1
 190.166015625 635.681640625 l 1
 169.245117188 553.364257812 l 1
 236.555664062 586.467773438 l 2
 243.630859375 589.948242188 251.432617188 591.758789062 259.342773438 591.758789062 c 2
 414.697265625 591.758789062 l 2
 422.611328125 591.758789062 430.416992188 589.9453125 437.49609375 586.461914062 c 2
 515.158203125 548.244140625 l 2
 520.060546875 545.831054688 524.536132812 542.657226562 528.41015625 538.841796875 c 2
 567.23046875 500.624023438 l 2
 571.09375 496.819335938 574.310546875 492.427734375 576.7578125 487.6171875 c 2
 615.6015625 411.25 l 2
 619.146484375 404.28125 620.991210938 396.59765625 620.991210938 388.8046875 c 2
 620.993164062 197.71484375 l 2
 620.993164062 189.930664062 619.150390625 182.244140625 615.610351562 175.28125 c 2
 576.764648438 98.84375 l 2
 574.317382812 94.03125 571.096679688 89.6357421875 567.229492188 85.8291015625 c 2
 528.412109375 47.6064453125 l 2
 524.52734375 43.7841796875 520.041015625 40.6005859375 515.125976562 38.1875 c 2
 437.461914062 0.0419921875 l 2
 437.461914062 0.0419921875 422.609375 -5.2373046875 414.711914062 -5.244140625 c 2
 259.356445312 -5.2861328125 l 2
 259.356445312 -5.2861328125 243.634765625 -3.482421875 236.5546875 0 c 2
 158.892578125 38.1943359375 l 2
 153.98046875 40.607421875 149.497070312 43.7919921875 145.6171875 47.61328125 c 2
 106.797851562 85.857421875 l 2
 102.936523438 89.658203125 99.72265625 94.044921875 97.27734375 98.857421875 c 2
 58.431640625 175.252929688 l 2
 54.890625 182.223632812 53.0458984375 189.901367188 53.0458984375 197.694335938 c 2
 53.0458984375 387.745117188 l 2
 53.03125 388.442382812 53.03125 389.141601562 53.0458984375 389.83984375 c 2
 53.0458984375 503.427734375 l 2
 53.0458984375 507.528320312 53.556640625 511.614257812 54.568359375 515.594726562 c 2
 93.4140625 668.443359375 l 2
 94.8310546875 674.021484375 97.2138671875 679.317382812 100.455078125 684.100585938 c 2
 178.118164062 798.694335938 l 2
 179.979492188 801.44140625 182.11328125 804.000976562 184.485351562 806.334960938 c 2
 223.3046875 844.526367188 l 2
 227.17578125 848.334960938 231.646484375 851.504882812 236.541992188 853.915039062 c 2
 314.205078125 892.137695312 l 2
154.984375 376.911132812 m 1
 154.984375 209.5390625 l 1
 184.751953125 150.993164062 l 1
 211.880859375 124.270507812 l 1
 271.361328125 95.021484375 l 1
 402.674804688 95.0576171875 l 1
 462.171875 124.284179688 l 1
 489.28515625 150.978515625 l 1
 519.0546875 209.5546875 l 1
 519.053710938 376.955078125 l 1
 489.293945312 435.463867188 l 1
 462.158203125 462.177734375 l 1
 402.662109375 491.456054688 l 1
 271.37109375 491.456054688 l 1
 211.8828125 462.200195312 l 1
 184.754882812 435.471679688 l 1
 154.984375 376.911132812 l 1
EndSplineSet
Validated: 1
EndChar

StartChar: seven
Encoding: 55 55 35
Width: 765
Flags: HW
LayerCount: 2
Fore
SplineSet
53.6435546875 848.393554688 m 0
 53.6435546875 876.041015625 76.49609375 898.455078125 104.6875 898.455078125 c 2
 649.138671875 898.455078125 l 2
 666.295898438 898.455078125 682.305664062 890 691.75 875.952148438 c 0
 701.1953125 861.90234375 702.8125 844.138671875 696.053710938 828.671875 c 2
 346.051757812 27.6611328125 l 2
 334.947265625 2.2431640625 304.940429688 -9.5263671875 279.03125 1.3603515625 c 0
 253.119140625 12.2548828125 241.116210938 41.6845703125 252.220703125 67.1025390625 c 2
 571.73046875 798.329101562 l 1
 104.6875 798.329101562 l 2
 76.49609375 798.329101562 53.6435546875 820.743164062 53.6435546875 848.393554688 c 0
EndSplineSet
Validated: 33
EndChar

StartChar: eight
Encoding: 56 56 36
Width: 715
Flags: HW
LayerCount: 2
Fore
SplineSet
257.981445312 888.700195312 m 2
 265.09765625 892.1640625 272.9453125 893.967773438 280.901367188 893.967773438 c 2
 437.05859375 893.967773438 l 2
 445.012695312 893.967773438 452.859375 892.165039062 459.973632812 888.702148438 c 2
 538.079101562 850.6875 l 2
 543.00390625 848.290039062 547.5 845.13671875 551.39453125 841.346679688 c 2
 590.420898438 803.362304688 l 2
 594.311523438 799.576171875 597.549804688 795.204101562 600.012695312 790.415039062 c 2
 639.067382812 714.458984375 l 2
 642.630859375 707.529296875 644.485351562 699.884765625 644.485351562 692.134765625 c 2
 644.486328125 654.1015625 l 2
 644.486328125 646.35546875 642.6328125 638.715820312 639.072265625 631.787109375 c 2
 600.01953125 555.7890625 l 2
 597.560546875 551.005859375 594.329101562 546.638671875 590.4453125 542.854492188 c 2
 551.41796875 504.821289062 l 2
 550.432617188 503.859375 549.407226562 502.939453125 548.345703125 502.061523438 c 1
 549.391601562 501.196289062 550.401367188 500.291015625 551.375 499.345703125 c 2
 590.401367188 461.403320312 l 2
 594.305664062 457.608398438 597.5546875 453.223632812 600.022460938 448.419921875 c 2
 639.075195312 372.399414062 l 2
 642.633789062 365.47265625 644.486328125 357.834960938 644.486328125 350.090820312 c 2
 644.485351562 198.049804688 l 2
 644.485351562 190.301757812 642.6328125 182.6640625 639.075195312 175.739257812 c 2
 600.020507812 99.716796875 l 2
 597.559570312 94.9306640625 594.322265625 90.5595703125 590.432617188 86.765625 c 2
 551.407226562 48.7578125 l 2
 547.500976562 44.95703125 542.98828125 41.7900390625 538.044921875 39.3896484375 c 2
 459.940429688 1.4453125 l 2
 452.838867188 -2.0029296875 445.009765625 -3.798828125 437.073242188 -3.8056640625 c 2
 280.91796875 -3.84765625 l 2
 272.959960938 -3.8544921875 265.111328125 -2.0537109375 257.993164062 1.41015625 c 2
 179.915039062 39.396484375 l 2
 174.981445312 41.796875 170.478515625 44.95703125 166.580078125 48.7509765625 c 2
 127.528320312 86.787109375 l 2
 123.633789062 90.5810546875 120.392578125 94.9580078125 117.930664062 99.7587890625 c 2
 78.9052734375 175.794921875 l 2
 75.3525390625 182.713867188 73.50390625 190.350585938 73.50390625 198.0859375 c 2
 73.50390625 350.08203125 l 2
 73.50390625 357.826171875 75.35546875 365.461914062 78.912109375 372.387695312 c 2
 117.936523438 448.370117188 l 2
 120.40234375 453.172851562 123.649414062 457.555664062 127.55078125 461.349609375 c 2
 166.604492188 499.333984375 l 2
 167.58203125 500.283203125 168.595703125 501.193359375 169.646484375 502.061523438 c 1
 168.591796875 502.93359375 167.572265625 503.84765625 166.591796875 504.801757812 c 2
 127.538085938 542.813476562 l 2
 123.640625 546.607421875 120.396484375 550.989257812 117.932617188 555.7890625 c 2
 78.9072265625 631.809570312 l 2
 75.353515625 638.732421875 73.50390625 646.366210938 73.50390625 654.10546875 c 2
 73.50390625 692.116210938 l 2
 73.50390625 699.85546875 75.353515625 707.489257812 78.9072265625 714.411132812 c 2
 117.93359375 790.43359375 l 2
 120.403320312 795.247070312 123.658203125 799.638671875 127.572265625 803.439453125 c 2
 166.623046875 841.381835938 l 2
 170.508789062 845.15625 174.9921875 848.298828125 179.901367188 850.689453125 c 2
 257.981445312 888.700195312 l 2
293.008789062 452.208007812 m 1
 233.173828125 423.057617188 l 1
 205.877929688 396.51171875 l 1
 175.986328125 338.309570312 l 1
 175.986328125 209.852539062 l 1
 205.893554688 151.583007812 l 1
 233.178710938 125.005859375 l 1
 292.986328125 95.9150390625 l 1
 424.975585938 95.951171875 l 1
 484.817382812 125.01953125 l 1
 512.07421875 151.568359375 l 1
 542.002929688 209.825195312 l 1
 542.002929688 338.315429688 l 1
 512.0859375 396.55078125 l 1
 484.821289062 423.057617188 l 1
 424.955078125 452.208007812 l 1
 293.008789062 452.208007812 l 1
424.96875 551.965820312 m 1
 484.802734375 581.0625 l 1
 512.07421875 607.638671875 l 1
 542.002929688 665.880859375 l 1
 542.002929688 680.348632812 l 1
 512.083984375 738.536132812 l 1
 484.811523438 765.081054688 l 1
 424.961914062 794.209960938 l 1
 293.000976562 794.209960938 l 1
 233.15625 765.076171875 l 1
 205.877929688 738.573242188 l 1
 175.986328125 680.348632812 l 1
 175.986328125 665.873046875 l 1
 205.88671875 607.627929688 l 1
 233.171875 581.0703125 l 1
 292.994140625 551.965820312 l 1
 424.96875 551.965820312 l 1
EndSplineSet
Validated: 1
EndChar

StartChar: nine
Encoding: 57 57 37
Width: 649
Flags: HW
LayerCount: 2
Fore
SplineSet
229.9140625 889.26171875 m 2
 236.564453125 892.713867188 243.899414062 894.509765625 251.336914062 894.509765625 c 2
 397.319335938 894.509765625 l 2
 404.7578125 894.509765625 412.094726562 892.712890625 418.74609375 889.259765625 c 2
 491.737304688 851.373046875 l 2
 496.327148438 848.990234375 500.517578125 845.859375 504.150390625 842.095703125 c 2
 540.659179688 804.279296875 l 2
 544.317382812 800.490234375 547.359375 796.112304688 549.668945312 791.313476562 c 2
 586.151367188 715.541992188 l 2
 589.473632812 708.641601562 591.203125 701.034179688 591.203125 693.3203125 c 2
 591.204101562 504.904296875 l 2
 591.21875 504.204101562 591.21875 503.501953125 591.204101562 502.801757812 c 2
 591.204101562 390.301757812 l 2
 591.204101562 386.239257812 590.724609375 382.192382812 589.776367188 378.250976562 c 2
 553.291992188 226.708007812 l 2
 551.9609375 221.17578125 549.72265625 215.923828125 546.674804688 211.1796875 c 2
 473.658203125 97.5244140625 l 2
 471.911132812 94.8017578125 469.911132812 92.26953125 467.68359375 89.9541015625 c 2
 431.200195312 52.0712890625 l 2
 427.549804688 48.2822265625 423.333007812 45.1259765625 418.713867188 42.7333984375 c 2
 345.725585938 4.9208984375 l 2
 339.081054688 1.4765625 331.755859375 -0.3203125 324.329101562 -0.3203125 c 2
 178.321289062 -0.3203125 l 2
 151.865234375 -0.3203125 130.41796875 21.9404296875 130.41796875 49.3984375 c 0
 130.41796875 76.85546875 151.865234375 99.1171875 178.321289062 99.1171875 c 2
 313.036132812 99.1171875 l 1
 368.946289062 128.08203125 l 1
 396.573242188 156.768554688 l 1
 462.356445312 259.168945312 l 1
 482.005859375 340.78515625 l 1
 418.74609375 307.951171875 l 2
 412.09375 304.498046875 404.7578125 302.700195312 397.319335938 302.700195312 c 2
 251.338867188 302.697265625 l 2
 243.903320312 302.697265625 236.568359375 304.494140625 229.916992188 307.9453125 c 2
 156.899414062 345.829101562 l 2
 152.297851562 348.217773438 148.096679688 351.358398438 144.45703125 355.1328125 c 2
 107.974609375 392.97265625 l 2
 104.329101562 396.75390625 101.295898438 401.12109375 98.9912109375 405.905273438 c 2
 62.482421875 481.692382812 l 2
 59.15625 488.595703125 57.4267578125 496.206054688 57.4267578125 503.924804688 c 2
 57.4267578125 693.338867188 l 2
 57.4267578125 701.063476562 59.16015625 708.681640625 62.4912109375 715.588867188 c 2
 99 791.295898438 l 2
 101.301757812 796.069335938 104.330078125 800.427734375 107.967773438 804.202148438 c 2
 144.452148438 842.061523438 l 2
 148.090820312 845.838867188 152.293945312 848.981445312 156.8984375 851.37109375 c 2
 229.9140625 889.26171875 l 2
495.397460938 515.62890625 m 1
 495.397460938 681.58984375 l 1
 467.455078125 739.624023438 l 1
 441.954101562 766.040039062 l 1
 386.009765625 795.079101562 l 1
 262.645507812 795.079101562 l 1
 206.6953125 766.045898438 l 1
 181.19921875 739.587890625 l 1
 153.231445312 681.591796875 l 1
 153.231445312 515.659179688 l 1
 181.203125 457.594726562 l 1
 206.6875 431.16015625 l 1
 262.64453125 402.127929688 l 1
 386.0078125 402.130859375 l 1
 441.934570312 431.16015625 l 1
 467.452148438 457.640625 l 1
 495.397460938 515.62890625 l 1
EndSplineSet
Validated: 1
EndChar

StartChar: colon
Encoding: 58 58 38
Width: 317
Flags: HW
LayerCount: 2
Fore
SplineSet
156.583984375 727.666992188 m 4
 170.49609375 727.669921875 183.836914062 722.069335938 193.673828125 712.099609375 c 6
 233.640625 671.591796875 l 6
 243.477539062 661.623046875 249.002929688 648.099609375 249 634 c 4
 248.998046875 619.900390625 243.466796875 606.379882812 233.625 596.4140625 c 6
 193.659179688 555.938476562 l 6
 173.176757812 535.196289062 139.984375 535.203125 119.510742188 555.953125 c 6
 79.5712890625 596.431640625 l 6
 59.0966796875 617.18359375 59.091796875 650.828125 79.560546875 671.5859375 c 6
 119.5 712.088867188 l 6
 129.333984375 722.061523438 142.672851562 727.665039062 156.583984375 727.666992188 c 4
156.583984375 282.28125 m 4
 170.495117188 282.283203125 183.836914062 276.68359375 193.672851562 266.713867188 c 6
 233.640625 226.20703125 l 6
 243.474609375 216.240234375 249 202.720703125 249 188.624023438 c 4
 249 174.52734375 243.474609375 161.008789062 233.638671875 151.041015625 c 6
 193.671875 110.538085938 l 6
 183.834960938 100.569335938 170.493164062 94.9697265625 156.58203125 94.97265625 c 4
 142.670898438 94.974609375 129.331054688 100.579101562 119.498046875 110.551757812 c 6
 79.55859375 151.059570312 l 6
 59.095703125 171.814453125 59.0966796875 205.447265625 79.560546875 226.200195312 c 6
 119.5 266.703125 l 6
 129.333984375 276.67578125 142.672851562 282.279296875 156.583984375 282.28125 c 4
EndSplineSet
Validated: 33
EndChar

StartChar: semicolon
Encoding: 59 59 39
Width: 337
Flags: HW
LayerCount: 2
Fore
SplineSet
171.999023438 704.252929688 m 4
 185.245117188 704.254882812 197.94921875 699.0390625 207.317382812 689.751953125 c 6
 245.375 652.018554688 l 6
 254.7421875 642.732421875 260.002929688 630.135742188 260 617 c 4
 259.998046875 603.866210938 254.73046875 591.271484375 245.360351562 581.98828125 c 6
 207.301757812 544.28515625 l 6
 187.798828125 524.963867188 156.19140625 524.969726562 136.6953125 544.298828125 c 6
 98.6640625 582.005859375 l 6
 79.1650390625 601.336914062 79.1611328125 632.67578125 98.6533203125 652.012695312 c 6
 136.685546875 689.741210938 l 6
 146.049804688 699.032226562 158.752929688 704.250976562 171.999023438 704.252929688 c 4
210.063476562 251.639648438 m 4
 237.642578125 251.639648438 260 229.474609375 260 202.130859375 c 6
 260 164.397460938 l 6
 260 156.708984375 258.193359375 149.125976562 254.724609375 142.25 c 6
 216.666992188 66.8134765625 l 6
 214.268554688 62.0615234375 211.115234375 57.7216796875 207.325195312 53.9609375 c 6
 169.29296875 16.2333984375 l 6
 149.797851562 -3.1044921875 118.178710938 -3.111328125 98.6728515625 16.2197265625 c 4
 79.1650390625 35.55078125 79.158203125 66.8974609375 98.654296875 86.2373046875 c 6
 130.965820312 118.286132812 l 5
 160.126953125 176.08984375 l 5
 160.126953125 202.130859375 l 6
 160.126953125 229.474609375 182.484375 251.639648438 210.063476562 251.639648438 c 4
EndSplineSet
Validated: 33
EndChar

StartChar: less
Encoding: 60 60 40
Width: 772
Flags: HW
LayerCount: 2
Fore
SplineSet
653.635742188 621.881835938 m 0
 661.381835938 596.99609375 650.918945312 569.255859375 630.258789062 559.92578125 c 2
 243 385 l 1
 630.258789062 210.084960938 l 2
 650.913085938 200.75390625 661.381835938 173.014648438 653.635742188 148.127929688 c 0
 645.889648438 123.241210938 622.8671875 110.630859375 602.206054688 119.962890625 c 2
 115.188476562 339.9375 l 2
 99.5947265625 346.981445312 89.2646484375 364.938476562 89.2646484375 384.999023438 c 0
 89.263671875 405.060546875 99.5947265625 423.016601562 115.188476562 430.060546875 c 2
 602.205078125 650.046875 l 2
 622.862304688 659.377929688 645.889648438 646.76953125 653.635742188 621.881835938 c 0
EndSplineSet
Validated: 33
EndChar

StartChar: equal
Encoding: 61 61 41
Width: 1000
Flags: H
LayerCount: 2
Fore
SplineSet
40.8037109375 555.567382812 m 0
 40.8037109375 591.147460938 69.6474609375 619.990234375 105.227539062 619.990234375 c 2
 890.580078125 619.990234375 l 2
 926.163085938 619.990234375 955 591.147460938 955 555.567382812 c 0
 955 519.987304688 926.163085938 491.143554688 890.580078125 491.143554688 c 2
 105.227539062 491.143554688 l 2
 69.6474609375 491.143554688 40.8037109375 519.987304688 40.8037109375 555.567382812 c 0
40.8037109375 261 m 0
 40.8037109375 296.581054688 69.6474609375 325.423828125 105.227539062 325.423828125 c 2
 890.580078125 325.423828125 l 2
 926.163085938 325.423828125 955 296.581054688 955 261 c 0
 955 225.419921875 926.163085938 196.576171875 890.580078125 196.576171875 c 2
 105.227539062 196.576171875 l 2
 69.6474609375 196.576171875 40.8037109375 225.419921875 40.8037109375 261 c 0
EndSplineSet
Validated: 1
EndChar

StartChar: greater
Encoding: 62 62 42
Width: 772
Flags: HW
LayerCount: 2
Fore
SplineSet
61.931640625 630.6640625 m 0
 70.677734375 655.31640625 96.6708984375 667.807617188 119.9921875 658.563476562 c 2
 669.737304688 440.637695312 l 2
 687.341796875 433.661132812 699 415.873046875 699 396 c 0
 699 376.126953125 687.341796875 358.338867188 669.736328125 351.361328125 c 2
 119.991210938 133.447265625 l 2
 96.669921875 124.203125 70.6767578125 136.694335938 61.931640625 161.34765625 c 0
 53.1875 186.000976562 65.00390625 213.48046875 88.3251953125 222.724609375 c 2
 525.459960938 396.000976562 l 1
 88.3232421875 569.287109375 l 2
 65.00390625 578.53125 53.1875 606.010742188 61.931640625 630.6640625 c 0
EndSplineSet
Validated: 33
EndChar

StartChar: question
Encoding: 63 63 43
Width: 634
Flags: HW
LayerCount: 2
Fore
SplineSet
171.250976562 905.75 m 6
 178.27734375 909.26171875 186.025390625 911.090820312 193.881835938 911.090820312 c 6
 386.719726562 911.090820312 l 6
 394.575195312 911.090820312 402.323242188 909.26171875 409.350585938 905.749023438 c 6
 486.477539062 867.198242188 l 6
 496.270507812 862.303710938 504.212890625 854.365234375 509.11328125 844.575195312 c 6
 547.690429688 767.493164062 l 6
 551.2109375 760.458984375 553.04296875 752.703125 553.04296875 744.838867188 c 6
 553.043945312 667.689453125 l 6
 553.043945312 659.833007812 551.21484375 652.083984375 547.702148438 645.056640625 c 6
 509.124023438 567.880859375 l 6
 506.6875 563.005859375 503.479492188 558.557617188 499.624023438 554.706054688 c 6
 461.047851562 516.163085938 l 6
 457.208984375 512.327148438 452.778320312 509.133789062 447.924804688 506.705078125 c 6
 378.131835938 471.774414062 l 5
 351.182617188 444.829101562 l 5
 321.62890625 385.780273438 l 5
 321.62890625 359.142578125 l 6
 321.62890625 331.1875 298.966796875 308.524414062 271.010742188 308.524414062 c 4
 243.0546875 308.524414062 220.391601562 331.1875 220.391601562 359.142578125 c 6
 220.391601562 397.740234375 l 6
 220.391601562 405.604492188 222.224609375 413.361328125 225.744140625 420.39453125 c 6
 264.323242188 497.4765625 l 6
 266.755859375 502.336914062 269.955078125 506.774414062 273.798828125 510.6171875 c 6
 312.350585938 549.1640625 l 6
 316.193359375 553.005859375 320.627929688 556.204101562 325.486328125 558.635742188 c 6
 395.2890625 593.5703125 l 5
 422.249023438 620.506835938 l 5
 451.806640625 679.63671875 l 5
 451.805664062 732.87890625 l 5
 426.12890625 784.18359375 l 5
 374.772460938 809.852539062 l 5
 205.827148438 809.852539062 l 5
 139.384765625 776.642578125 l 6
 114.377929688 764.143554688 83.9736328125 774.283203125 71.474609375 799.2890625 c 4
 58.9765625 824.295898438 69.115234375 854.69921875 94.12109375 867.198242188 c 6
 171.250976562 905.75 l 6
271.002929688 178.392578125 m 4
 284.4296875 178.392578125 297.307617188 173.056640625 306.801757812 163.564453125 c 6
 345.381835938 124.985351562 l 6
 354.875976562 115.493164062 360.208984375 102.62109375 360.208984375 89.1923828125 c 4
 360.208984375 75.7646484375 354.875 62.892578125 345.380859375 53.3994140625 c 6
 306.80078125 14.8212890625 l 6
 297.305664062 5.328125 284.427734375 0 271 0 c 4
 257.573242188 0 244.697265625 5.3427734375 235.206054688 14.8359375 c 6
 196.653320312 53.4140625 l 6
 176.900390625 73.1787109375 176.901367188 105.213867188 196.655273438 124.978515625 c 6
 235.20703125 163.556640625 l 6
 244.69921875 173.049804688 257.576171875 178.385742188 271.002929688 178.392578125 c 4
EndSplineSet
Validated: 33
EndChar

StartChar: bracketleft
Encoding: 91 91 44
Width: 331
Flags: HW
LayerCount: 2
Fore
SplineSet
45.259765625 860.532226562 m 2
 45.259765625 882.276367188 62.8857421875 899.903320312 84.6298828125 899.903320312 c 2
 234.592773438 899.903320312 l 2
 256.336914062 899.903320312 273.962890625 882.276367188 273.962890625 860.532226562 c 0
 273.962890625 838.7890625 256.336914062 821.163085938 234.592773438 821.163085938 c 2
 124 821.163085938 l 1
 124 0 l 1
 234.592773438 0 l 2
 256.336914062 0 273.962890625 -17.626953125 273.962890625 -39.3720703125 c 0
 273.962890625 -61.1103515625 256.336914062 -78.73828125 234.592773438 -78.73828125 c 2
 84.6298828125 -78.73828125 l 2
 62.8857421875 -78.73828125 45.259765625 -61.1103515625 45.259765625 -39.3720703125 c 2
 45.259765625 860.532226562 l 2
EndSplineSet
Validated: 1
EndChar

StartChar: bracketright
Encoding: 93 93 45
Width: 340
Flags: HW
LayerCount: 2
Fore
SplineSet
46.0166015625 860.532226562 m 0
 46.0166015625 882.276367188 63.642578125 899.903320312 85.38671875 899.903320312 c 2
 235.370117188 899.903320312 l 2
 257.11328125 899.903320312 274.740234375 882.276367188 274.740234375 860.532226562 c 2
 274.740234375 -39.3720703125 l 2
 274.740234375 -49.810546875 270.592773438 -59.8271484375 263.208984375 -67.2109375 c 0
 255.826171875 -74.59375 245.8125 -78.73828125 235.370117188 -78.73828125 c 2
 85.38671875 -78.73828125 l 2
 63.642578125 -78.73828125 46.0166015625 -61.1103515625 46.0166015625 -39.3720703125 c 0
 46.0166015625 -17.626953125 63.642578125 0 85.38671875 0 c 2
 196 0 l 1
 196 821.163085938 l 1
 85.38671875 821.163085938 l 2
 63.642578125 821.163085938 46.0166015625 838.7890625 46.0166015625 860.532226562 c 0
EndSplineSet
Validated: 1
EndChar

StartChar: asciicircum
Encoding: 94 94 46
Width: 564
Flags: HW
LayerCount: 2
Fore
SplineSet
252.365234375 892.725585938 m 2
 267.555664062 904.120117188 288.444335938 904.120117188 303.634765625 892.725585938 c 2
 433.829101562 795.068359375 l 2
 452.704101562 780.91015625 456.52734375 754.131835938 442.369140625 735.256835938 c 0
 428.211914062 716.381835938 401.432617188 712.55859375 382.55859375 726.715820312 c 2
 278 805.14453125 l 1
 173.440429688 726.715820312 l 2
 154.56640625 712.55859375 127.787109375 716.381835938 113.629882812 735.256835938 c 0
 99.4716796875 754.131835938 103.295898438 780.91015625 122.169921875 795.068359375 c 2
 252.365234375 892.725585938 l 2
EndSplineSet
EndChar

StartChar: exclam
Encoding: 33 33 47
Width: 304
Flags: HW
LayerCount: 2
Fore
SplineSet
112.240234375 896.286132812 m 6
 132.006835938 916.029296875 164.03125 916.024414062 183.791992188 896.276367188 c 6
 222.370117188 857.725585938 l 6
 232.90625 847.1953125 238.26953125 832.559570312 237.032226562 817.715820312 c 6
 198.455078125 354.958984375 l 6
 196.268554688 328.724609375 174.3359375 308.544921875 148.009765625 308.545898438 c 4
 121.68359375 308.545898438 99.7529296875 328.7265625 97.5673828125 354.961914062 c 6
 59.0166015625 817.765625 l 6
 57.779296875 832.61328125 63.1474609375 847.252929688 73.689453125 857.782226562 c 6
 112.240234375 896.286132812 l 6
148.002929688 178.392578125 m 4
 161.430664062 178.392578125 174.30859375 173.056640625 183.803710938 163.564453125 c 6
 222.380859375 124.985351562 l 6
 231.875 115.493164062 237.208007812 102.614257812 237.208007812 89.1923828125 c 4
 237.20703125 75.7646484375 231.873046875 62.892578125 222.379882812 53.3994140625 c 6
 183.801757812 14.8212890625 l 6
 174.306640625 5.328125 161.428710938 0 148 0 c 4
 134.572265625 0 121.696289062 5.3427734375 112.205078125 14.8359375 c 6
 73.654296875 53.4140625 l 6
 53.9033203125 73.185546875 53.904296875 105.213867188 73.65625 124.978515625 c 6
 112.20703125 163.549804688 l 6
 121.698242188 173.049804688 134.575195312 178.385742188 148.002929688 178.392578125 c 4
EndSplineSet
Validated: 33
EndChar

StartChar: quotedbl
Encoding: 34 34 48
Width: 550
Flags: HW
LayerCount: 2
Fore
SplineSet
130 1008.1640625 m 0
 155.602539062 1008.1640625 176.357421875 989.7890625 176.357421875 967.12109375 c 2
 176.357421875 842.04296875 l 2
 176.357421875 819.375 155.602539062 801 130 801 c 0
 104.396484375 801 83.6416015625 819.375 83.6416015625 842.04296875 c 2
 83.6416015625 967.12109375 l 2
 83.6416015625 989.7890625 104.396484375 1008.1640625 130 1008.1640625 c 0
412.575195312 1008.1640625 m 0
 438.178710938 1008.1640625 458.93359375 989.7890625 458.93359375 967.12109375 c 2
 458.93359375 842.04296875 l 2
 458.93359375 819.375 438.178710938 801 412.575195312 801 c 0
 386.971679688 801 366.217773438 819.375 366.217773438 842.04296875 c 2
 366.217773438 967.12109375 l 2
 366.217773438 989.7890625 386.971679688 1008.1640625 412.575195312 1008.1640625 c 0
EndSplineSet
Validated: 1
EndChar

StartChar: numbersign
Encoding: 35 35 49
Width: 754
Flags: HW
LayerCount: 2
Fore
SplineSet
360.580078125 943.2890625 m 0
 383.0546875 938.295898438 397.224609375 916.028320312 392.231445312 893.553710938 c 2
 339.986328125 658.436523438 l 1
 476.905273438 658.436523438 l 1
 533.16796875 911.638671875 l 2
 538.162109375 934.112304688 560.4296875 948.283203125 582.904296875 943.2890625 c 0
 605.37890625 938.295898438 619.549804688 916.028320312 614.555664062 893.553710938 c 2
 562.310546875 658.436523438 l 1
 637.37890625 658.436523438 l 2
 660.40234375 658.436523438 679.067382812 639.772460938 679.067382812 616.750976562 c 0
 679.067382812 593.727539062 660.40234375 575.064453125 637.37890625 575.064453125 c 2
 543.784179688 575.064453125 l 1
 498.79296875 372.587890625 l 1
 573.861328125 372.587890625 l 2
 596.883789062 372.587890625 615.549804688 353.9296875 615.549804688 330.90625 c 0
 615.549804688 307.881835938 596.883789062 289.217773438 573.861328125 289.217773438 c 2
 480.267578125 289.217773438 l 1
 424 36 l 2
 419.005859375 13.529296875 396.739257812 -0.6416015625 374.264648438 4.3466796875 c 0
 351.790039062 9.3408203125 337.619140625 31.611328125 342.61328125 54.087890625 c 2
 394.862304688 289.217773438 l 1
 257.943359375 289.217773438 l 1
 201.67578125 36 l 2
 196.681640625 13.529296875 174.415039062 -0.6416015625 151.940429688 4.3466796875 c 0
 129.465820312 9.3408203125 115.295898438 31.611328125 120.290039062 54.087890625 c 2
 172.538085938 289.217773438 l 1
 97.462890625 289.217773438 l 2
 74.4404296875 289.217773438 55.77734375 307.881835938 55.77734375 330.90625 c 0
 55.77734375 353.9296875 74.4404296875 372.587890625 97.462890625 372.587890625 c 2
 191.063476562 372.587890625 l 1
 236.0546875 575.064453125 l 1
 160.982421875 575.064453125 l 2
 137.959960938 575.064453125 119.296875 593.727539062 119.296875 616.750976562 c 0
 119.296875 639.772460938 137.959960938 658.436523438 160.982421875 658.436523438 c 2
 254.581054688 658.436523438 l 1
 310.844726562 911.638671875 l 2
 315.837890625 934.112304688 338.106445312 948.283203125 360.580078125 943.2890625 c 0
321.459960938 575.064453125 m 1
 276.46875 372.587890625 l 1
 413.387695312 372.587890625 l 1
 458.37890625 575.064453125 l 1
 321.459960938 575.064453125 l 1
EndSplineSet
Validated: 33
EndChar

StartChar: dollar
Encoding: 36 36 50
Width: 574
Flags: HW
LayerCount: 2
Fore
SplineSet
276.686523438 872.611328125 m 0
 299.708984375 872.611328125 318.372070312 853.948242188 318.372070312 830.924804688 c 2
 318.372070312 777.310546875 l 1
 371.975585938 777.310546875 l 2
 376.453125 777.310546875 380.90234375 776.588867188 385.151367188 775.172851562 c 2
 480.439453125 743.424804688 l 2
 502.282226562 736.147460938 514.088867188 712.541992188 506.811523438 690.69921875 c 0
 499.534179688 668.857421875 475.928710938 657.05078125 454.0859375 664.327148438 c 2
 365.212890625 693.938476562 l 1
 318.372070312 693.938476562 l 1
 318.372070312 434.731445312 l 1
 350.31640625 426.743164062 l 2
 353.267578125 426.004882812 356.12890625 424.946289062 358.849609375 423.5859375 c 2
 422.369140625 391.818359375 l 2
 426.375 389.815429688 430.03125 387.1796875 433.198242188 384.013671875 c 2
 464.96875 352.24609375 l 2
 468.137695312 349.078125 470.774414062 345.418945312 472.778320312 341.411132812 c 2
 504.547851562 277.876953125 l 2
 507.44140625 272.088867188 508.948242188 265.706054688 508.948242188 259.235351562 c 2
 508.950195312 195.700195312 l 2
 508.950195312 189.223632812 507.44140625 182.8359375 504.541992188 177.041992188 c 2
 472.771484375 113.565429688 l 2
 470.767578125 109.565429688 468.133789062 105.912109375 464.967773438 102.747070312 c 2
 433.196289062 70.9765625 l 2
 430.030273438 67.8125 426.373046875 65.1767578125 422.368164062 63.1708984375 c 2
 358.850585938 31.40625 l 2
 353.061523438 28.51171875 346.677734375 27.005859375 340.205078125 27.005859375 c 2
 318.372070312 27 l 1
 318.372070312 -26.60546875 l 2
 318.372070312 -49.62890625 299.708984375 -68.2939453125 276.686523438 -68.2939453125 c 0
 253.663085938 -68.2939453125 235 -49.62890625 235 -26.60546875 c 2
 235 27 l 1
 181.3984375 27 l 2
 176.915039062 27 172.461914062 27.7236328125 168.208984375 29.1416015625 c 2
 72.9423828125 60.912109375 l 2
 51.1025390625 68.1943359375 39.302734375 91.806640625 46.5859375 113.641601562 c 0
 53.869140625 135.482421875 77.478515625 147.283203125 99.318359375 140 c 2
 188.1640625 110.37109375 l 1
 235 110.37109375 l 1
 235 369.640625 l 1
 203.0546875 377.62890625 l 2
 200.114257812 378.364257812 197.26171875 379.41796875 194.548828125 380.772460938 c 2
 131.03125 412.482421875 l 2
 127.014648438 414.487304688 123.349609375 417.126953125 120.17578125 420.30078125 c 2
 88.4052734375 452.067382812 l 2
 85.2333984375 455.23828125 82.5947265625 458.900390625 80.5908203125 462.911132812 c 2
 48.841796875 526.4453125 l 2
 45.9501953125 532.231445312 44.4443359375 538.611328125 44.4443359375 545.080078125 c 2
 44.4443359375 608.614257812 l 2
 44.4443359375 615.086914062 45.9521484375 621.471679688 48.84765625 627.260742188 c 2
 80.595703125 690.737304688 l 2
 82.59375 694.732421875 85.2216796875 698.380859375 88.3779296875 701.541992188 c 2
 120.1484375 733.366210938 l 2
 123.329101562 736.551757812 127.00390625 739.201171875 131.03125 741.211914062 c 2
 194.549804688 772.920898438 l 2
 200.33203125 775.807617188 206.706054688 777.310546875 213.168945312 777.310546875 c 2
 235 777.310546875 l 1
 235 830.924804688 l 2
 235 853.948242188 253.663085938 872.611328125 276.686523438 872.611328125 c 0
235 693.938476562 m 1
 222.99609375 693.938476562 l 1
 174.349609375 669.653320312 l 1
 152.14453125 647.411132812 l 1
 127.81640625 598.770507812 l 1
 127.81640625 554.916015625 l 1
 152.142578125 506.236328125 l 1
 174.333007812 484.048828125 l 1
 227.706054688 457.403320312 l 1
 235 455.579101562 l 1
 235 693.938476562 l 1
318.372070312 348.791992188 m 1
 318.372070312 110.376953125 l 1
 330.361328125 110.376953125 l 1
 379.029296875 134.717773438 l 1
 401.241210938 156.923828125 l 1
 425.578125 205.547851562 l 1
 425.577148438 249.39453125 l 1
 401.235351562 298.071289062 l 1
 379.030273438 320.27734375 l 1
 325.651367188 346.971679688 l 1
 318.372070312 348.791992188 l 1
EndSplineSet
Validated: 33
EndChar

StartChar: percent
Encoding: 37 37 51
Width: 895
Flags: HW
LayerCount: 2
Fore
SplineSet
775.733398438 895.396484375 m 0
 797.9765625 878.454101562 802.262695312 846.693359375 785.327148438 824.456054688 c 2
 168.26171875 14.556640625 l 2
 151.318359375 -7.6787109375 119.55859375 -11.9716796875 97.3212890625 4.970703125 c 0
 75.083984375 21.9140625 70.791015625 53.6708984375 87.7333984375 75.9140625 c 2
 704.795898438 885.810546875 l 2
 721.73828125 908.046875 753.498046875 912.338867188 775.733398438 895.396484375 c 0
221.095703125 900.421875 m 2
 235.338867188 907.532226562 252.096679688 907.528320312 266.3359375 900.411132812 c 2
 343.465820312 861.859375 l 2
 353.2578125 856.965820312 361.200195312 849.02734375 366.100585938 839.237304688 c 2
 404.680664062 762.154296875 l 2
 411.814453125 747.899414062 411.817382812 731.1171875 404.688476562 716.860351562 c 2
 366.109375 639.711914062 l 2
 361.21484375 629.921875 353.27734375 621.981445312 343.48828125 617.083984375 c 2
 266.357421875 578.486328125 l 2
 252.1015625 571.352539062 235.318359375 571.3515625 221.060546875 578.481445312 c 2
 143.932617188 617.060546875 l 2
 134.140625 621.958007812 126.19921875 629.899414062 121.302734375 639.692382812 c 2
 82.7236328125 716.840820312 l 2
 75.59765625 731.092773438 75.59765625 747.8671875 82.7236328125 762.120117188 c 2
 121.301757812 839.267578125 l 2
 126.205078125 849.072265625 134.159179688 857.021484375 143.966796875 861.91796875 c 2
 221.095703125 900.421875 l 2
204.295898438 778.8828125 m 1
 184.592773438 739.48046875 l 1
 204.305664062 700.057617188 l 1
 243.69921875 680.353515625 l 1
 283.103515625 700.072265625 l 1
 302.814453125 739.489257812 l 1
 283.1171875 778.844726562 l 1
 243.69140625 798.55078125 l 1
 204.295898438 778.8828125 l 1
606.7421875 321.93359375 m 2
 620.994140625 329.060546875 637.770507812 329.05859375 652.021484375 321.931640625 c 2
 729.1484375 283.357421875 l 2
 738.948242188 278.458007812 746.890625 270.510742188 751.791015625 260.711914062 c 2
 790.340820312 183.563476562 l 2
 797.455078125 169.313476562 797.455078125 152.549804688 790.340820312 138.306640625 c 2
 751.784179688 61.1787109375 l 2
 746.883789062 51.37109375 738.93359375 43.4208984375 729.126953125 38.521484375 c 2
 652 0 l 2
 637.760742188 -7.1142578125 621.004882812 -7.1142578125 606.765625 -0.0078125 c 2
 529.609375 38.521484375 l 2
 519.798828125 43.4208984375 511.844726562 51.37109375 506.943359375 61.1787109375 c 2
 468.392578125 138.328125 l 2
 461.2734375 152.578125 461.274414062 169.342773438 468.39453125 183.584960938 c 2
 506.9453125 260.712890625 l 2
 511.842773438 270.510742188 519.787109375 278.45703125 529.584960938 283.356445312 c 2
 606.7421875 321.93359375 l 2
589.954101562 200.356445312 m 1
 570.260742188 160.94921875 l 1
 589.952148438 121.549804688 l 1
 629.375 101.856445312 l 1
 668.78125 121.54296875 l 1
 688.471679688 160.942382812 l 1
 668.772460938 200.364257812 l 1
 629.376953125 220.063476562 l 1
 589.954101562 200.356445312 l 1
EndSplineSet
Validated: 33
EndChar

StartChar: ampersand
Encoding: 38 38 52
Width: 892
Flags: HW
LayerCount: 2
Fore
SplineSet
318.739257812 905.75390625 m 2
 325.760742188 909.258789062 333.500976562 911.083984375 341.348632812 911.083984375 c 2
 379.901367188 911.083984375 l 2
 387.7578125 911.083984375 395.505859375 909.254882812 402.532226562 905.743164062 c 2
 479.661132812 867.19140625 l 2
 489.454101562 862.296875 497.396484375 854.358398438 502.295898438 844.568359375 c 2
 540.874023438 767.486328125 l 2
 544.393554688 760.452148438 546.2265625 752.696289062 546.2265625 744.83203125 c 2
 546.2265625 706.233398438 l 2
 546.2265625 698.373046875 544.395507812 690.619140625 540.87890625 683.588867188 c 2
 502.299804688 606.463867188 l 2
 499.872070312 601.609375 496.6796875 597.177734375 492.84375 593.336914062 c 2
 454.293945312 554.740234375 l 2
 451.930664062 552.374023438 449.336914062 550.247070312 446.5546875 548.392578125 c 2
 364.088867188 493.422851562 l 1
 381.965820312 466.6171875 l 1
 542.235351562 274.259765625 l 1
 565.890625 305.791015625 l 1
 599.248046875 405.922851562 l 1
 599.247070312 474.861328125 l 2
 599.247070312 502.817382812 621.909179688 525.48046875 649.865234375 525.48046875 c 0
 677.821289062 525.48046875 700.483398438 502.818359375 700.484375 474.86328125 c 2
 700.485351562 397.71484375 l 2
 700.485351562 392.276367188 699.608398438 386.874023438 697.890625 381.71484375 c 2
 659.33984375 265.993164062 l 2
 657.618164062 260.826171875 655.07421875 255.969726562 651.805664062 251.61328125 c 2
 612.029296875 198.592773438 l 1
 679.848632812 130.79296875 l 1
 738.950195312 101.236328125 l 1
 765.571289062 101.236328125 l 2
 793.528320312 101.236328125 816.193359375 78.5712890625 816.193359375 50.6142578125 c 0
 816.193359375 22.6572265625 793.528320312 0 765.571289062 0 c 2
 727 0 l 2
 719.135742188 0 711.385742188 1.8291015625 704.35546875 5.3427734375 c 2
 627.224609375 43.9140625 l 2
 622.361328125 46.3505859375 617.921875 49.5498046875 614.076171875 53.392578125 c 2
 550.659179688 116.79296875 l 1
 536.09765625 97.3857421875 l 2
 534.662109375 95.4716796875 533.091796875 93.6640625 531.3984375 91.9716796875 c 2
 492.821289062 53.392578125 l 2
 488.975585938 49.5498046875 484.53515625 46.3505859375 479.671875 43.9140625 c 2
 402.541992188 5.3427734375 l 2
 395.512695312 1.8291015625 387.760742188 0 379.901367188 0 c 2
 264.220703125 -0.0068359375 l 2
 256.362304688 -0.0068359375 248.611328125 1.8212890625 241.583007812 5.3359375 c 2
 164.427734375 43.9072265625 l 2
 159.565429688 46.3427734375 155.126953125 49.54296875 151.28125 53.37890625 c 2
 112.73046875 91.9072265625 l 2
 108.876953125 95.7578125 105.670898438 100.20703125 103.235351562 105.079101562 c 2
 64.6572265625 182.25 l 2
 61.1435546875 189.278320312 59.314453125 197.028320312 59.314453125 204.885742188 c 2
 59.314453125 320.557617188 l 2
 59.314453125 328.4140625 61.1435546875 336.162109375 64.65625 343.190429688 c 2
 103.234375 420.369140625 l 2
 105.670898438 425.243164062 108.87890625 429.69140625 112.733398438 433.54296875 c 2
 151.284179688 472.063476562 l 2
 153.637695312 474.415039062 156.217773438 476.530273438 158.987304688 478.375976562 c 2
 223.6796875 521.497070312 l 1
 222.107421875 523.85546875 l 2
 219.609375 527.600585938 217.622070312 531.662109375 216.19921875 535.932617188 c 2
 177.620117188 651.655273438 l 2
 175.899414062 656.81640625 175.022460938 662.22265625 175.022460938 667.6640625 c 2
 175.022460938 744.8125 l 2
 175.022460938 752.670898438 176.852539062 760.421875 180.3671875 767.451171875 c 2
 218.9453125 844.599609375 l 2
 223.84765625 854.404296875 231.801757812 862.353515625 241.610351562 867.249023438 c 2
 318.739257812 905.75390625 l 2
308.80859375 578.241210938 m 1
 386.21875 629.840820312 l 1
 415.424804688 659.08203125 l 1
 444.989257812 718.1875 l 1
 444.989257812 732.872070312 l 1
 419.3125 784.176757812 l 1
 367.956054688 809.845703125 l 1
 353.28125 809.845703125 l 1
 301.939453125 784.21484375 l 1
 276.259765625 732.861328125 l 1
 276.259765625 675.87890625 l 1
 308.80859375 578.241210938 l 1
279.850585938 437.2734375 m 1
 219.301757812 396.912109375 l 1
 190.111328125 367.745117188 l 1
 160.552734375 308.611328125 l 1
 160.552734375 216.829101562 l 1
 190.111328125 157.700195312 l 1
 217.0390625 130.79296875 l 1
 276.166992188 101.228515625 l 1
 367.946289062 101.236328125 l 1
 427.044921875 130.79296875 l 1
 457.274414062 161.014648438 l 1
 479.799804688 191.04296875 l 1
 302.4609375 403.885742188 l 2
 301.310546875 405.266601562 300.235351562 406.70703125 299.23828125 408.202148438 c 2
 279.850585938 437.2734375 l 1
EndSplineSet
Validated: 1
EndChar

StartChar: quotesingle
Encoding: 39 39 53
Width: 364
Flags: HW
LayerCount: 2
Fore
SplineSet
249.466796875 950.25 m 4
 279.87890625 936.028320312 292.205078125 901.442382812 277 873 c 6
 183.190429688 697.530273438 l 6
 167.984375 669.087890625 131.00390625 657.559570312 100.592773438 671.780273438 c 4
 70.1806640625 686.001953125 57.853515625 720.587890625 73.0595703125 749.030273438 c 6
 166.869140625 924.5 l 6
 182.075195312 952.942382812 219.0546875 964.471679688 249.466796875 950.25 c 4
EndSplineSet
Validated: 33
EndChar

StartChar: parenleft
Encoding: 40 40 54
Width: 340
Flags: HW
LayerCount: 2
Fore
SplineSet
267.9921875 884 m 0
 281.829101562 870.162109375 281.828125 847.7265625 267.989257812 833.889648438 c 2
 243.46484375 809.3671875 l 1
 192.64453125 733.1640625 l 1
 167.754882812 683.391601562 l 1
 142.26171875 606.866210938 l 1
 116.376953125 477.505859375 l 1
 116.376953125 376.51953125 l 1
 142.26171875 247.16015625 l 1
 167.755859375 170.634765625 l 1
 192.647460938 120.854492188 l 1
 243.46484375 44.609375 l 1
 267.982421875 20.109375 l 2
 281.82421875 6.279296875 281.83203125 -16.1552734375 268 -30 c 0
 254.166992188 -43.83984375 231.732421875 -43.8505859375 217.889648438 -30.015625 c 2
 190.884765625 -3.0302734375 l 2
 189.23046875 -1.3798828125 187.744140625 0.4345703125 186.446289062 2.3798828125 c 2
 132.45703125 83.384765625 l 2
 131.642578125 84.609375 130.905273438 85.8798828125 130.249023438 87.189453125 c 2
 103.244140625 141.194335938 l 2
 102.493164062 142.694335938 101.850585938 144.25 101.319335938 145.844726562 c 2
 74.3330078125 226.849609375 l 2
 73.869140625 228.239257812 73.4931640625 229.66015625 73.205078125 231.094726562 c 2
 46.2001953125 366.0546875 l 2
 45.7421875 368.344726562 45.5107421875 370.674804688 45.5107421875 373.009765625 c 2
 45.5107421875 481.016601562 l 2
 45.5107421875 483.350585938 45.7421875 485.678710938 46.2001953125 487.967773438 c 2
 73.205078125 622.928710938 l 2
 73.4921875 624.366210938 73.869140625 625.78515625 74.33203125 627.17578125 c 2
 101.318359375 708.181640625 l 2
 101.849609375 709.775390625 102.4921875 711.329101562 103.244140625 712.831054688 c 2
 130.249023438 766.834960938 l 2
 130.907226562 768.150390625 131.646484375 769.422851562 132.461914062 770.646484375 c 2
 186.453125 851.603515625 l 2
 187.74609375 853.543945312 189.228515625 855.3515625 190.877929688 857 c 2
 217.881835938 884.001953125 l 2
 231.720703125 897.838867188 254.155273438 897.837890625 267.9921875 884 c 0
EndSplineSet
Validated: 33
EndChar

StartChar: parenright
Encoding: 41 41 55
Width: 373
Flags: HW
LayerCount: 2
Fore
SplineSet
69.47265625 890.389648438 m 0
 83.30859375 904.228515625 105.744140625 904.229492188 119.58203125 890.392578125 c 2
 146.586914062 863.390625 l 2
 148.236328125 861.7421875 149.71875 859.934570312 151.012695312 857.994140625 c 2
 205.00390625 777.037109375 l 2
 205.822265625 775.810546875 206.5625 774.534179688 207.221679688 773.215820312 c 2
 234.20703125 719.211914062 l 2
 234.955078125 717.71484375 235.595703125 716.166992188 236.125 714.580078125 c 2
 263.129882812 633.57421875 l 2
 263.594726562 632.180664062 263.971679688 630.759765625 264.259765625 629.319335938 c 2
 291.264648438 494.358398438 l 2
 291.72265625 492.069335938 291.954101562 489.741210938 291.954101562 487.407226562 c 2
 291.953125 379.400390625 l 2
 291.953125 377.065429688 291.72265625 374.735351562 291.264648438 372.4453125 c 2
 264.259765625 237.485351562 l 2
 263.971679688 236.044921875 263.594726562 234.625 263.129882812 233.23046875 c 2
 236.125976562 152.225585938 l 2
 235.596679688 150.640625 234.955078125 149.08984375 234.20703125 147.595703125 c 2
 207.220703125 93.58984375 l 2
 206.5625 92.275390625 205.82421875 91 205.008789062 89.775390625 c 2
 151.017578125 8.7705078125 l 2
 149.720703125 6.8251953125 148.233398438 5.0107421875 146.580078125 3.3603515625 c 2
 119.575195312 -23.625 l 2
 105.732421875 -37.4599609375 83.2978515625 -37.44921875 69.46484375 -23.609375 c 0
 55.6318359375 -9.7646484375 55.640625 12.669921875 69.482421875 26.5 c 2
 94 51 l 1
 144.815429688 127.240234375 l 1
 169.69140625 177.020507812 l 1
 195.204101562 253.55078125 l 1
 221.086914062 382.91015625 l 1
 221.086914062 483.896484375 l 1
 195.204101562 613.252929688 l 1
 169.690429688 689.783203125 l 1
 144.818359375 739.559570312 l 1
 94.0009765625 815.756835938 l 1
 69.4755859375 840.280273438 l 2
 55.63671875 854.1171875 55.6357421875 876.551757812 69.47265625 890.389648438 c 0
EndSplineSet
Validated: 37
EndChar

StartChar: asterisk
Encoding: 42 42 56
Width: 478
Flags: HW
LayerCount: 2
Fore
SplineSet
237.158203125 967.9296875 m 0
 254.201171875 967.9296875 268.016601562 953.701171875 268.016601562 936.150390625 c 2
 268.016601562 862.045898438 l 1
 343.249023438 893.045898438 l 2
 359.072265625 899.56640625 377.030273438 891.642578125 383.361328125 875.34765625 c 0
 389.692382812 859.051757812 381.997070312 840.556640625 366.17578125 834.037109375 c 2
 286 801 l 1
 332.379882812 737.311523438 l 2
 342.60546875 723.270507812 339.841796875 703.352539062 326.208984375 692.822265625 c 0
 312.575195312 682.291015625 293.233398438 685.135742188 283.008789062 699.176757812 c 2
 237.158203125 762.135742188 l 1
 191.30859375 699.176757812 l 2
 181.084960938 685.135742188 161.743164062 682.291015625 148.109375 692.822265625 c 0
 134.475585938 703.352539062 131.711914062 723.270507812 141.9375 737.311523438 c 2
 188.317382812 801 l 1
 108.142578125 834.037109375 l 2
 92.3193359375 840.556640625 84.6259765625 859.051757812 90.9560546875 875.34765625 c 0
 97.2880859375 891.642578125 115.24609375 899.56640625 131.068359375 893.045898438 c 2
 206.301757812 862.045898438 l 1
 206.301757812 936.150390625 l 2
 206.301757812 953.701171875 220.1171875 967.9296875 237.158203125 967.9296875 c 0
EndSplineSet
Validated: 33
EndChar

StartChar: plus
Encoding: 43 43 57
Width: 829
Flags: HW
LayerCount: 2
Fore
SplineSet
407.071289062 746.439453125 m 0
 434.645507812 746.439453125 457 724.735351562 457 697.9609375 c 2
 457 450.95703125 l 1
 711.381835938 450.95703125 l 2
 738.953125 450.95703125 761.30859375 429.252929688 761.30859375 402.478515625 c 0
 761.30859375 375.704101562 738.953125 354 711.381835938 354 c 2
 457 354 l 1
 457 106.958007812 l 2
 457 80.18359375 434.645507812 58.48046875 407.071289062 58.48046875 c 0
 379.497070312 58.48046875 357.142578125 80.18359375 357.142578125 106.958007812 c 2
 357.142578125 354 l 1
 102.735351562 354 l 2
 75.16015625 354 52.8056640625 375.704101562 52.8056640625 402.478515625 c 0
 52.8056640625 429.252929688 75.16015625 450.95703125 102.735351562 450.95703125 c 2
 357.142578125 450.95703125 l 1
 357.142578125 697.9609375 l 2
 357.142578125 724.735351562 379.497070312 746.439453125 407.071289062 746.439453125 c 0
EndSplineSet
Validated: 1
EndChar

StartChar: comma
Encoding: 44 44 58
Width: 451
Flags: HW
LayerCount: 2
Fore
SplineSet
267.133789062 136.728515625 m 0
 305.537109375 136.728515625 336.670898438 109.165039062 336.670898438 75.1640625 c 2
 336.670898438 28.2431640625 l 2
 336.670898438 18.6875 334.158203125 9.2646484375 329.333984375 0.7177734375 c 2
 276.375 -93.0859375 l 2
 273.03125 -99.009765625 268.62890625 -104.416992188 263.33984375 -109.098632812 c 2
 210.340820312 -156.009765625 l 2
 183.181640625 -180.049804688 139.153320312 -180.045898438 112 -156 c 0
 84.84765625 -131.954101562 84.8525390625 -92.9736328125 112.01171875 -68.9345703125 c 2
 157.024414062 -29.091796875 l 1
 197.596679688 42.7724609375 l 1
 197.596679688 75.1640625 l 2
 197.596679688 109.165039062 228.729492188 136.728515625 267.133789062 136.728515625 c 0
EndSplineSet
Validated: 33
EndChar

StartChar: hyphen
Encoding: 45 45 59
Width: 1000
Flags: H
LayerCount: 2
Fore
SplineSet
46.798828125 405 m 0
 46.798828125 440.580078125 75.642578125 469.423828125 111.22265625 469.423828125 c 2
 896.572265625 469.423828125 l 2
 932.154296875 469.423828125 961 440.580078125 961 405 c 0
 961 369.419921875 932.154296875 340.576171875 896.572265625 340.576171875 c 2
 111.22265625 340.576171875 l 2
 75.642578125 340.576171875 46.798828125 369.419921875 46.798828125 405 c 0
EndSplineSet
Validated: 1
EndChar

StartChar: period
Encoding: 46 46 60
Width: 355
Flags: HW
LayerCount: 2
Fore
SplineSet
177.505859375 203.462890625 m 0
 193.836914062 203.46484375 209.500976562 197.3984375 221.047851562 186.598632812 c 2
 267.96875 142.715820312 l 2
 279.513671875 131.91796875 286 117.271484375 286 102 c 0
 286 86.7294921875 279.512695312 72.0830078125 267.966796875 61.2861328125 c 2
 221.045898438 17.4072265625 l 2
 209.498046875 6.607421875 193.834960938 0.541015625 177.50390625 0.544921875 c 0
 161.171875 0.546875 145.510742188 6.6181640625 133.966796875 17.421875 c 2
 87.078125 61.3046875 l 2
 63.0537109375 83.7880859375 63.0546875 120.2265625 87.080078125 142.708007812 c 2
 133.969726562 186.586914062 l 2
 145.514648438 197.389648438 161.17578125 203.459960938 177.505859375 203.462890625 c 0
EndSplineSet
Validated: 33
EndChar

StartChar: slash
Encoding: 47 47 61
Width: 763
Flags: HW
LayerCount: 2
Fore
SplineSet
690.932617188 926.901367188 m 0
 710.091796875 914.130859375 715.267578125 888.249023438 702.497070312 869.092773438 c 2
 130.807617188 11.5654296875 l 2
 118.037109375 -7.59375 92.1552734375 -12.7705078125 73 0 c 0
 53.84375 12.7705078125 48.66796875 38.6533203125 61.4384765625 57.806640625 c 2
 633.126953125 915.338867188 l 2
 645.897460938 934.495117188 671.779296875 939.671875 690.932617188 926.901367188 c 0
EndSplineSet
Validated: 33
EndChar

StartChar: bar
Encoding: 124 124 62
Width: 199
Flags: HW
LayerCount: 2
Fore
SplineSet
94 900.647460938 m 0
 115.744140625 900.647460938 133.37109375 883.020507812 133.37109375 861.276367188 c 2
 133.37109375 -38.6279296875 l 2
 133.37109375 -60.3720703125 115.744140625 -78 94 -78 c 0
 72.2568359375 -78 54.630859375 -60.3720703125 54.630859375 -38.6279296875 c 2
 54.630859375 861.276367188 l 2
 54.630859375 883.020507812 72.2568359375 900.647460938 94 900.647460938 c 0
EndSplineSet
Validated: 1
EndChar

StartChar: braceleft
Encoding: 123 123 63
Width: 370
Flags: HW
LayerCount: 2
Fore
SplineSet
222.1640625 861.9921875 m 2
 227.084960938 864.453125 232.51171875 865.734375 238.013671875 865.734375 c 2
 265 865.734375 l 2
 284.569335938 865.734375 300.432617188 849.87109375 300.432617188 830.30078125 c 0
 300.432617188 810.732421875 284.569335938 794.868164062 265 794.868164062 c 2
 246.379882812 794.868164062 l 1
 210.432617188 776.890625 l 1
 192.450195312 740.9296875 l 1
 192.451171875 479.374023438 l 2
 192.451171875 473.875976562 191.171875 468.454101562 188.71484375 463.536132812 c 2
 161.729492188 409.53125 l 2
 159.581054688 405.23046875 156.594726562 401.440429688 152.9765625 398.365234375 c 1
 156.594726562 395.290039062 159.580078125 391.504882812 161.728515625 387.205078125 c 2
 188.713867188 333.200195312 l 2
 191.170898438 328.280273438 192.450195312 322.860351562 192.450195312 317.360351562 c 2
 192.450195312 55.7548828125 l 1
 210.426757812 19.810546875 l 1
 246.3671875 1.865234375 l 1
 265 1.865234375 l 2
 284.569335938 1.865234375 300.432617188 -13.9951171875 300.432617188 -33.564453125 c 0
 300.432617188 -53.134765625 284.569335938 -69 265 -69 c 2
 238.014648438 -69 l 2
 232.520507812 -69 227.102539062 -67.7197265625 222.1875 -65.26953125 c 2
 168.196289062 -38.314453125 l 2
 161.330078125 -34.8896484375 155.762695312 -29.3251953125 152.331054688 -22.4599609375 c 2
 125.326171875 31.544921875 l 2
 122.865234375 36.46484375 121.583984375 41.890625 121.583984375 47.390625 c 2
 121.583984375 309 l 1
 103.618164062 344.955078125 l 1
 60.1787109375 366.674804688 l 2
 48.173828125 372.674804688 40.5908203125 384.9453125 40.5908203125 398.370117188 c 0
 40.5908203125 411.7890625 48.173828125 424.05859375 60.1787109375 430.060546875 c 2
 103.619140625 451.778320312 l 1
 121.584960938 487.733398438 l 1
 121.583984375 749.294921875 l 2
 121.583984375 754.796875 122.865234375 760.221679688 125.326171875 765.142578125 c 2
 152.330078125 819.146484375 l 2
 155.758789062 826.002929688 161.317382812 831.561523438 168.172851562 834.990234375 c 2
 222.1640625 861.9921875 l 2
EndSplineSet
Validated: 1
EndChar

StartChar: braceright
Encoding: 125 125 64
Width: 361
Flags: HW
LayerCount: 2
Fore
SplineSet
45.9306640625 828.435546875 m 0
 45.9306640625 848.005859375 61.794921875 863.869140625 81.3642578125 863.869140625 c 2
 108.349609375 863.869140625 l 2
 113.849609375 863.869140625 119.274414062 862.588867188 124.194335938 860.12890625 c 2
 178.204101562 833.126953125 l 2
 185.064453125 829.697265625 190.626953125 824.133789062 194.055664062 817.272460938 c 2
 221.041015625 763.268554688 l 2
 223.499023438 758.350585938 224.778320312 752.927734375 224.778320312 747.430664062 c 2
 224.778320312 485.873046875 l 1
 242.759765625 449.913085938 l 1
 286.189453125 428.193359375 l 2
 298.192382812 422.190429688 305.7734375 409.922851562 305.7734375 396.504882812 c 0
 305.7734375 383.084960938 298.192382812 370.814453125 286.189453125 364.809570312 c 2
 242.759765625 343.08984375 l 1
 224.778320312 307.129882812 l 1
 224.778320312 45.525390625 l 2
 224.778320312 40.0302734375 223.499023438 34.6044921875 221.041015625 29.6845703125 c 2
 194.0546875 -24.3154296875 l 2
 190.623046875 -31.185546875 185.051757812 -36.7548828125 178.180664062 -40.1796875 c 2
 124.171875 -67.134765625 l 2
 119.2578125 -69.58984375 113.841796875 -70.865234375 108.349609375 -70.865234375 c 2
 81.3642578125 -70.865234375 l 2
 61.794921875 -70.865234375 45.9306640625 -55 45.9306640625 -35.4296875 c 0
 45.9306640625 -15.8603515625 61.794921875 0 81.3642578125 0 c 2
 100 0 l 1
 135.951171875 17.9453125 l 1
 153.912109375 53.884765625 l 1
 153.912109375 315.495117188 l 2
 153.912109375 321 155.193359375 326.424804688 157.653320312 331.344726562 c 2
 184.658203125 385.349609375 l 2
 186.806640625 389.64453125 189.791015625 393.4296875 193.40625 396.5 c 1
 189.790039062 399.575195312 186.805664062 403.360351562 184.658203125 407.657226562 c 2
 157.653320312 461.661132812 l 2
 155.193359375 466.581054688 153.912109375 472.006835938 153.912109375 477.508789062 c 2
 153.912109375 739.0703125 l 1
 135.9453125 775.025390625 l 1
 99.9853515625 793.002929688 l 1
 81.3642578125 793.002929688 l 2
 61.794921875 793.002929688 45.9306640625 808.8671875 45.9306640625 828.435546875 c 0
EndSplineSet
Validated: 1
EndChar

StartChar: asciitilde
Encoding: 126 126 65
Width: 532
Flags: HW
LayerCount: 2
Fore
SplineSet
175.106445312 513.038085938 m 2
 188.26171875 519.614257812 203.745117188 519.61328125 216.899414062 513.036132812 c 2
 338.403320312 452.284179688 l 1
 381.924804688 474.0390625 l 1
 412.173828125 504.28515625 l 2
 430.422851562 522.532226562 460.008789062 522.53125 478.256835938 504.282226562 c 0
 496.50390625 486.033203125 496.502929688 456.447265625 478.25390625 438.19921875 c 2
 442.641601562 402.590820312 l 2
 439.08984375 399.0390625 434.987304688 396.083007812 430.494140625 393.836914062 c 2
 359.29296875 358.24609375 l 2
 346.139648438 351.670898438 330.65625 351.670898438 317.502929688 358.248046875 c 2
 196 419 l 1
 152.461914062 397.233398438 l 1
 122.241210938 366.991210938 l 2
 103.999023438 348.737304688 74.4130859375 348.7265625 56.158203125 366.96875 c 0
 37.904296875 385.209960938 37.8935546875 414.796875 56.1357421875 433.051757812 c 2
 91.72265625 468.663085938 l 2
 95.27734375 472.220703125 99.3828125 475.1796875 103.879882812 477.428710938 c 2
 175.106445312 513.038085938 l 2
EndSplineSet
Validated: 33
EndChar

StartChar: a
Encoding: 97 97 66
Width: 605
Flags: HW
LayerCount: 2
Fore
SplineSet
196.102539062 647.383789062 m 6
 202.938476562 650.926757812 210.475585938 652.770507812 218.116210938 652.770507812 c 6
 368.16015625 652.770507812 l 6
 375.8046875 652.770507812 383.344726562 650.924804688 390.178710938 647.381835938 c 6
 465.2265625 608.474609375 l 6
 474.759765625 603.533203125 482.487304688 595.517578125 487.250976562 585.6328125 c 6
 524.751953125 507.819335938 l 6
 528.166015625 500.733398438 529.944335938 492.918945312 529.944335938 484.997070312 c 6
 529.944335938 408.2109375 l 6
 529.956054688 407.552734375 529.956054688 406.89453125 529.944335938 406.237304688 c 6
 529.944335938 97.029296875 l 6
 529.956054688 96.3701171875 529.956054688 95.7138671875 529.944335938 95.0576171875 c 6
 529.944335938 57.1201171875 l 6
 529.944335938 28.9228515625 507.900390625 6.06640625 480.708007812 6.06640625 c 4
 467.163085938 6.06640625 454.896484375 11.7373046875 445.994140625 20.9150390625 c 6
 427.709960938 11.43359375 l 6
 420.870117188 7.8857421875 413.329101562 6.0380859375 405.68359375 6.0400390625 c 6
 218.115234375 6.0439453125 l 6
 210.470703125 6.0439453125 202.928710938 7.8896484375 196.092773438 11.435546875 c 6
 121.071289062 50.3427734375 l 6
 111.544921875 55.2822265625 103.819335938 63.291015625 99.056640625 73.169921875 c 6
 61.5322265625 150.982421875 l 6
 58.1142578125 158.072265625 56.333984375 165.890625 56.333984375 173.81640625 c 6
 56.333984375 251.630859375 l 6
 56.333984375 259.555664062 58.1142578125 267.374023438 61.5322265625 274.463867188 c 6
 99.0556640625 352.276367188 l 6
 103.819335938 362.154296875 111.544921875 370.165039062 121.071289062 375.104492188 c 6
 196.09375 414.010742188 l 6
 202.930664062 417.556640625 210.471679688 419.403320312 218.116210938 419.403320312 c 6
 394.078125 419.403320312 l 5
 431.47265625 438.760742188 l 5
 431 496 l 5
 406.504882812 524.758789062 l 5
 356.5390625 550.661132812 l 5
 229.736328125 550.661132812 l 5
 165.108398438 517.165039062 l 6
 140.783203125 504.55859375 111.2109375 514.786132812 99.0537109375 540.006835938 c 4
 86.896484375 565.228515625 96.7578125 595.89453125 121.081054688 608.502929688 c 6
 196.102539062 647.383789062 l 6
431.47265625 324.634765625 m 5
 427.676757812 322.669921875 l 6
 420.846679688 319.134765625 413.318359375 317.294921875 405.685546875 317.294921875 c 6
 229.741210938 317.294921875 l 5
 179.79296875 291.390625 l 5
 154.805664062 239.576171875 l 5
 154.805664062 185.870117188 l 5
 179.79296875 134.055664062 l 5
 229.741210938 108.151367188 l 5
 394.05859375 108.149414062 l 5
 431.47265625 127.553710938 l 5
 431.47265625 324.634765625 l 5
EndSplineSet
EndChar

StartChar: b
Encoding: 98 98 67
Width: 592
Flags: HW
LayerCount: 2
Fore
SplineSet
91.9169921875 908.916015625 m 0
 119.873046875 908.916015625 142.53515625 886.252929688 142.53515625 858.297851562 c 2
 142.53515625 631.686523438 l 1
 146.415039062 633.625976562 l 2
 153.442382812 637.138671875 161.189453125 638.966796875 169.045898438 638.966796875 c 2
 323.306640625 638.966796875 l 2
 331.163085938 638.966796875 338.91015625 637.138671875 345.9375 633.625976562 c 2
 423.065429688 595.07421875 l 2
 427.939453125 592.638671875 432.38671875 589.431640625 436.23828125 585.578125 c 2
 474.815429688 546.977539062 l 2
 478.65625 543.134765625 481.852539062 538.69921875 484.283203125 533.840820312 c 2
 522.862304688 456.71484375 l 2
 526.37890625 449.684570312 528.208984375 441.931640625 528.208984375 434.0703125 c 2
 528.209960938 202.635742188 l 2
 528.209960938 194.771484375 526.377929688 187.013671875 522.857421875 179.985351562 c 2
 484.279296875 102.892578125 l 2
 481.846679688 98.0283203125 478.646484375 93.5927734375 474.801757812 89.75 c 2
 436.22265625 51.1787109375 l 2
 432.380859375 47.3359375 427.946289062 44.142578125 423.088867188 41.70703125 c 2
 345.959960938 3.107421875 l 2
 338.926757812 -0.4140625 331.168945312 -2.2431640625 323.303710938 -2.2431640625 c 2
 169.045898438 -2.2431640625 l 2
 161.1875 -2.2431640625 153.435546875 -0.4072265625 146.40625 3.107421875 c 2
 127.609375 12.5068359375 l 2
 118.45703125 3.4072265625 105.84375 -2.2216796875 91.9169921875 -2.2216796875 c 0
 63.9609375 -2.2216796875 41.2978515625 20.4423828125 41.2978515625 48.3994140625 c 2
 41.2978515625 85.935546875 l 2
 41.283203125 86.6357421875 41.283203125 87.3427734375 41.2978515625 88.0498046875 c 2
 41.2978515625 548.700195312 l 2
 41.283203125 549.40625 41.283203125 550.111328125 41.2978515625 550.815429688 c 2
 41.2978515625 858.297851562 l 2
 41.2978515625 886.252929688 63.9609375 908.916015625 91.9169921875 908.916015625 c 0
142.53515625 518.5078125 m 1
 142.53515625 118.235351562 l 1
 181 99 l 1
 311.346679688 98.9921875 l 1
 370.4453125 128.571289062 l 1
 397.418945312 155.54296875 l 1
 426.97265625 214.592773438 l 1
 426.971679688 422.116210938 l 1
 397.41015625 481.215820312 l 1
 370.4453125 508.197265625 l 1
 311.360351562 537.729492188 l 1
 180.9921875 537.729492188 l 1
 142.53515625 518.5078125 l 1
EndSplineSet
Validated: 1
EndChar

StartChar: c
Encoding: 99 99 68
Width: 591
Flags: HW
LayerCount: 2
Fore
SplineSet
232.323242188 643.143554688 m 2
 238.659179688 646.676757812 245.647460938 648.516601562 252.732421875 648.516601562 c 2
 391.797851562 648.516601562 l 2
 398.877929688 648.516601562 405.862304688 646.6796875 412.196289062 643.149414062 c 2
 481.717773438 604.412109375 l 2
 504.256835938 591.852539062 513.396484375 561.30078125 502.130859375 536.172851562 c 0
 490.864257812 511.045898438 463.459960938 500.856445312 440.920898438 513.416992188 c 2
 381.03125 546.787109375 l 1
 263.505859375 546.787109375 l 1
 210.24609375 517.092773438 l 1
 185.962890625 490.005859375 l 1
 159.31640625 430.598632812 l 1
 159.31640625 222.118164062 l 1
 185.963867188 162.7109375 l 1
 210.245117188 135.622070312 l 1
 263.505859375 105.927734375 l 1
 381.024414062 105.923828125 l 1
 440.909179688 139.31640625 l 2
 463.4453125 151.883789062 490.852539062 141.703125 502.125 116.580078125 c 0
 513.397460938 91.455078125 504.264648438 60.9013671875 481.729492188 48.333984375 c 2
 412.20703125 9.5693359375 l 2
 405.87109375 6.03515625 398.8828125 4.1953125 391.796875 4.1962890625 c 2
 252.73046875 4.2001953125 l 2
 245.645507812 4.201171875 238.659179688 6.0390625 232.322265625 9.572265625 c 2
 162.802734375 48.3330078125 l 2
 158.413085938 50.7802734375 154.408203125 54.0009765625 150.938476562 57.869140625 c 2
 116.19140625 96.6318359375 l 2
 112.728515625 100.494140625 109.84765625 104.953125 107.65625 109.837890625 c 2
 72.8828125 187.359375 l 2
 69.71484375 194.423828125 68.064453125 202.2109375 68.064453125 210.109375 c 2
 68.064453125 442.607421875 l 2
 68.064453125 450.502929688 69.71484375 458.29296875 72.8828125 465.35546875 c 2
 107.655273438 542.87890625 l 2
 109.846679688 547.762695312 112.728515625 552.22265625 116.19140625 556.0859375 c 2
 150.940429688 594.846679688 l 2
 154.409179688 598.71484375 158.415039062 601.936523438 162.803710938 604.3828125 c 2
 232.323242188 643.143554688 l 2
EndSplineSet
Validated: 33
EndChar

StartChar: d
Encoding: 100 100 69
Width: 607
Flags: HW
LayerCount: 2
Fore
SplineSet
487 911.137695312 m 0
 514.956054688 911.137695312 537.619140625 888.474609375 537.619140625 860.51953125 c 2
 537.619140625 553.060546875 l 2
 537.634765625 552.340820312 537.634765625 551.620117188 537.619140625 550.897460938 c 2
 537.619140625 90.29296875 l 2
 537.634765625 89.5712890625 537.634765625 88.849609375 537.619140625 88.1357421875 c 2
 537.619140625 50.62109375 l 2
 537.619140625 22.6640625 514.956054688 0 487 0 c 0
 473.07421875 0 460.461914062 5.62890625 451.309570312 14.728515625 c 2
 432.514648438 5.3212890625 l 2
 425.484375 1.8076171875 417.731445312 -0.021484375 409.870117188 -0.021484375 c 2
 255.610351562 -0.021484375 l 2
 247.750976562 -0.021484375 239.999023438 1.814453125 232.969726562 5.3291015625 c 2
 155.840820312 43.900390625 l 2
 150.977539062 46.3359375 146.537109375 49.5361328125 142.692382812 53.37890625 c 2
 104.11328125 91.95703125 l 2
 100.265625 95.7998046875 97.064453125 100.243164062 94.630859375 105.107421875 c 2
 56.0517578125 182.256835938 l 2
 52.537109375 189.286132812 50.70703125 197.036132812 50.70703125 204.900390625 c 2
 50.70703125 436.272460938 l 2
 50.70703125 444.131835938 52.537109375 451.8828125 56.0517578125 458.912109375 c 2
 94.6298828125 536.060546875 l 2
 97.0634765625 540.926757812 100.265625 545.368164062 104.11328125 549.215820312 c 2
 142.69140625 587.790039062 l 2
 146.537109375 591.634765625 150.977539062 594.8359375 155.840820312 597.267578125 c 2
 232.970703125 635.841796875 l 2
 240 639.358398438 247.751953125 641.188476562 255.612304688 641.188476562 c 2
 409.87109375 641.188476562 l 2
 417.7265625 641.188476562 425.474609375 639.360351562 432.500976562 635.84765625 c 2
 436.381835938 633.908203125 l 1
 436.381835938 860.51953125 l 2
 436.381835938 888.474609375 459.043945312 911.137695312 487 911.137695312 c 0
436.381835938 520.729492188 m 1
 397.924804688 539.951171875 l 1
 267.564453125 539.951171875 l 1
 208.466796875 510.395507812 l 1
 181.50390625 483.434570312 l 1
 151.944335938 424.322265625 l 1
 151.944335938 216.849609375 l 1
 181.50390625 157.735351562 l 1
 208.467773438 130.771484375 l 1
 267.564453125 101.221679688 l 1
 397.918945312 101.213867188 l 1
 436.381835938 120.450195312 l 1
 436.381835938 520.729492188 l 1
EndSplineSet
Validated: 1
EndChar

StartChar: e
Encoding: 101 101 70
Width: 615
Flags: HW
LayerCount: 2
Fore
SplineSet
203.776367188 649.322265625 m 6
 210.8359375 652.873046875 218.619140625 654.72265625 226.510742188 654.72265625 c 6
 381.396484375 654.72265625 l 6
 389.284179688 654.72265625 397.063476562 652.875976562 404.119140625 649.328125 c 6
 481.564453125 610.393554688 l 6
 491.404296875 605.4453125 499.381835938 597.419921875 504.301757812 587.521484375 c 6
 543.037109375 509.573242188 l 6
 546.563476562 502.4765625 548.399414062 494.651367188 548.399414062 486.717773438 c 6
 548.399414062 408.829101562 l 6
 548.399414062 384.458984375 531.30078125 363.478515625 507.544921875 358.69921875 c 6
 161.15625 289.002929688 l 5
 161.15625 187.19921875 l 5
 186.950195312 135.31640625 l 5
 238.51171875 109.377929688 l 5
 369.396484375 109.374023438 l 5
 436.103515625 142.935546875 l 6
 461.209960938 155.56640625 491.739257812 145.334960938 504.294921875 120.083984375 c 4
 516.853515625 94.83203125 506.680664062 64.1220703125 481.576171875 51.4921875 c 6
 404.134765625 12.529296875 l 6
 397.073242188 8.9775390625 389.290039062 7.12890625 381.395507812 7.1298828125 c 6
 226.508789062 7.1337890625 l 6
 218.616210938 7.134765625 210.833984375 8.9814453125 203.776367188 12.5322265625 c 6
 126.333007812 51.4912109375 l 6
 116.500976562 56.4375 108.526367188 64.4580078125 103.609375 74.3486328125 c 6
 64.8740234375 152.265625 l 6
 61.3447265625 159.364257812 59.5068359375 167.193359375 59.5068359375 175.130859375 c 6
 59.5068359375 329.96484375 l 6
 59.494140625 330.634765625 59.494140625 331.302734375 59.5068359375 331.967773438 c 6
 59.5068359375 486.725585938 l 6
 59.5068359375 494.662109375 61.3447265625 502.491210938 64.8740234375 509.58984375 c 6
 103.609375 587.504882812 l 6
 108.526367188 597.397460938 116.5 605.416992188 126.333007812 610.365234375 c 6
 203.776367188 649.322265625 l 6
161.15625 393.2734375 m 5
 446.750976562 450.737304688 l 5
 446.750976562 474.65234375 l 5
 420.958007812 526.557617188 l 5
 369.401367188 552.477539062 l 5
 238.510742188 552.477539062 l 5
 186.950195312 526.5390625 l 5
 161.15625 474.65625 l 5
 161.15625 393.2734375 l 5
EndSplineSet
Validated: 33
EndChar

StartChar: f
Encoding: 102 102 71
Width: 529
Flags: HW
LayerCount: 2
Fore
SplineSet
304.06640625 905.806640625 m 2
 311.095703125 909.322265625 318.848632812 911.15234375 326.708007812 911.15234375 c 2
 403.83984375 911.15234375 l 2
 431.795898438 911.15234375 454.458007812 888.489257812 454.458007812 860.534179688 c 0
 454.458007812 832.578125 431.795898438 809.915039062 403.83984375 809.915039062 c 2
 338.66015625 809.915039062 l 1
 287.307617188 784.232421875 l 1
 261.619140625 732.861328125 l 1
 261.619140625 641.203125 l 1
 403.837890625 641.203125 l 2
 431.79296875 641.203125 454.456054688 618.540039062 454.456054688 590.583984375 c 0
 454.456054688 562.627929688 431.79296875 539.965820312 403.837890625 539.965820312 c 2
 261.619140625 539.965820312 l 1
 261.619140625 50.6220703125 l 2
 261.619140625 22.6650390625 238.956054688 0 211 0 c 0
 183.043945312 0 160.381835938 22.6650390625 160.381835938 50.6220703125 c 2
 160.381835938 539.965820312 l 1
 95.29296875 539.965820312 l 2
 67.3369140625 539.965820312 44.673828125 562.627929688 44.673828125 590.583984375 c 0
 44.673828125 618.540039062 67.3369140625 641.203125 95.29296875 641.203125 c 2
 160.381835938 641.203125 l 1
 160.381835938 744.811523438 l 2
 160.381835938 752.670898438 162.2109375 760.420898438 165.7265625 767.450195312 c 2
 204.3046875 844.598632812 l 2
 209.202148438 854.392578125 217.143554688 862.334960938 226.936523438 867.232421875 c 2
 304.06640625 905.806640625 l 2
EndSplineSet
Validated: 1
EndChar

StartChar: g
Encoding: 103 103 72
Width: 582
Flags: HW
LayerCount: 2
Fore
SplineSet
230.40625 635.891601562 m 2
 237.435546875 639.407226562 245.188476562 641.237304688 253.047851562 641.237304688 c 2
 407.30859375 641.237304688 l 2
 415.1640625 641.237304688 422.912109375 639.409179688 429.939453125 635.896484375 c 2
 448.733398438 626.502929688 l 2
 457.88671875 635.609375 470.504882812 641.237304688 484.435546875 641.237304688 c 0
 512.391601562 641.237304688 535.0546875 618.575195312 535.0546875 590.618164062 c 2
 535.0546875 553.109375 l 2
 535.0703125 552.389648438 535.0703125 551.668945312 535.0546875 550.947265625 c 2
 535.0546875 90.34375 l 2
 535.0703125 89.6220703125 535.0703125 88.9013671875 535.0546875 88.1826171875 c 2
 535.0546875 -65.0224609375 l 2
 535.0546875 -72.87890625 533.225585938 -80.62890625 529.711914062 -87.658203125 c 2
 491.162109375 -164.764648438 l 2
 488.727539062 -169.63671875 485.5234375 -174.079101562 481.674804688 -177.9296875 c 2
 443.095703125 -216.500976562 l 2
 439.254882812 -220.34375 434.819335938 -223.536132812 429.961914062 -225.971679688 c 2
 352.833007812 -264.572265625 l 2
 345.799804688 -268.09375 338.041992188 -269.921875 330.176757812 -269.921875 c 2
 214.46875 -269.921875 l 2
 206.609375 -269.915039062 198.858398438 -268.0859375 191.830078125 -264.572265625 c 2
 114.698242188 -226.000976562 l 2
 89.6953125 -213.493164062 79.5625 -183.0859375 92.0673828125 -158.0859375 c 0
 104.572265625 -133.079101562 134.978515625 -122.951171875 159.981445312 -135.451171875 c 2
 226.423828125 -168.6796875 l 1
 318.219726562 -168.686523438 l 1
 377.318359375 -139.107421875 l 1
 404.284179688 -112.143554688 l 1
 433.817382812 -53.072265625 l 1
 433.817382812 7.3076171875 l 1
 429.951171875 5.3740234375 l 2
 422.919921875 1.857421875 415.166992188 0.0263671875 407.305664062 0.02734375 c 2
 253.047851562 0.0302734375 l 2
 245.188476562 0.03125 237.4375 1.861328125 230.408203125 5.376953125 c 2
 153.276367188 43.951171875 l 2
 148.413085938 46.3837890625 143.973632812 49.583984375 140.127929688 53.4296875 c 2
 101.548828125 92.0029296875 l 2
 97.7021484375 95.849609375 94.5 100.291992188 92.06640625 105.158203125 c 2
 53.4873046875 182.307617188 l 2
 49.97265625 189.336914062 48.142578125 197.086914062 48.142578125 204.946289062 c 2
 48.142578125 436.322265625 l 2
 48.142578125 444.180664062 49.97265625 451.932617188 53.4873046875 458.961914062 c 2
 92.06640625 536.110351562 l 2
 94.4990234375 540.975585938 97.701171875 545.418945312 101.548828125 549.264648438 c 2
 140.127929688 587.838867188 l 2
 143.973632812 591.684570312 148.413085938 594.884765625 153.276367188 597.317382812 c 2
 230.40625 635.891601562 l 2
433.817382812 120.502929688 m 1
 433.817382812 520.779296875 l 1
 395.362304688 540 l 1
 265 540 l 1
 205.903320312 510.444335938 l 1
 178.939453125 483.484375 l 1
 149.379882812 424.37109375 l 1
 149.379882812 216.897460938 l 1
 178.939453125 157.784179688 l 1
 205.903320312 130.82421875 l 1
 265.001953125 101.267578125 l 1
 395.354492188 101.264648438 l 1
 433.817382812 120.502929688 l 1
EndSplineSet
Validated: 33
EndChar

StartChar: h
Encoding: 104 104 73
Width: 574
Flags: HW
LayerCount: 2
Fore
SplineSet
103 911.137695312 m 0
 130.95703125 911.137695312 153.620117188 888.474609375 153.620117188 860.51953125 c 2
 153.620117188 614.633789062 l 1
 196.083007812 635.850585938 l 2
 203.109375 639.360351562 210.854492188 641.188476562 218.708007812 641.188476562 c 2
 334.389648438 641.188476562 l 2
 342.25 641.188476562 350.001953125 639.358398438 357.032226562 635.841796875 c 2
 434.158203125 597.267578125 l 2
 443.952148438 592.369140625 451.892578125 584.427734375 456.790039062 574.634765625 c 2
 495.368164062 497.486328125 l 2
 498.8828125 490.45703125 500.712890625 482.706054688 500.712890625 474.84765625 c 2
 500.712890625 50.62109375 l 2
 500.712890625 22.6640625 478.05078125 0 450.094726562 0 c 0
 422.138671875 0 399.4765625 22.6640625 399.4765625 50.62109375 c 2
 399.4765625 462.896484375 l 1
 373.787109375 514.268554688 l 1
 322.436523438 539.951171875 l 1
 230.649414062 539.951171875 l 1
 171.544921875 510.418945312 l 1
 153.620117188 492.469726562 l 1
 153.620117188 50.62109375 l 2
 153.620117188 22.6640625 130.95703125 0 103 0 c 0
 75.044921875 0 52.3818359375 22.6640625 52.3818359375 50.62109375 c 2
 52.3818359375 860.51953125 l 2
 52.3818359375 888.474609375 75.044921875 911.137695312 103 911.137695312 c 0
EndSplineSet
Validated: 1
EndChar

StartChar: i
Encoding: 105 105 74
Width: 295
Flags: HW
LayerCount: 2
Fore
SplineSet
103.219726562 896.303710938 m 6
 122.993164062 916.063476562 155.041992188 916.052734375 174.803710938 896.280273438 c 6
 213.354492188 857.706054688 l 6
 233.107421875 837.94140625 233.108398438 805.909179688 213.356445312 786.143554688 c 6
 174.8046875 747.565429688 l 6
 165.311523438 738.065429688 152.431640625 732.727539062 139.000976562 732.727539062 c 4
 125.5703125 732.7265625 112.690429688 738.063476562 103.196289062 747.563476562 c 6
 64.6181640625 786.1640625 l 6
 55.1279296875 795.661132812 49.798828125 808.538085938 49.802734375 821.962890625 c 4
 49.806640625 835.388671875 55.14453125 848.26171875 64.6416015625 857.751953125 c 6
 103.219726562 896.303710938 l 6
139 641.166992188 m 4
 166.956054688 641.166992188 189.618164062 618.50390625 189.618164062 590.547851562 c 6
 189.618164062 50.6142578125 l 6
 189.618164062 22.6572265625 166.956054688 0 139 0 c 4
 111.043945312 0 88.380859375 22.6572265625 88.380859375 50.6142578125 c 6
 88.380859375 590.547851562 l 6
 88.380859375 618.50390625 111.043945312 641.166992188 139 641.166992188 c 4
EndSplineSet
Validated: 33
EndChar

StartChar: j
Encoding: 106 106 75
Width: 390
Flags: HW
LayerCount: 2
Fore
SplineSet
198.6171875 897.149414062 m 2
 219.4375 916.680664062 253.193359375 916.680664062 274.014648438 897.151367188 c 2
 314.645507812 859.0390625 l 2
 324.645507812 849.661132812 330.262695312 836.938476562 330.264648438 823.676757812 c 0
 330.264648438 810.412109375 324.646484375 797.689453125 314.6484375 788.310546875 c 2
 274.015625 750.194335938 l 2
 264.012695312 740.8125 250.444335938 735.541015625 236.299804688 735.546875 c 0
 222.153320312 735.55078125 208.588867188 740.827148438 198.592773438 750.217773438 c 2
 157.987304688 788.356445312 l 2
 137.189453125 807.891601562 137.202148438 839.540039062 158.01171875 859.059570312 c 2
 198.6171875 897.149414062 l 2
236.315429688 645.083984375 m 0
 265.759765625 645.083984375 289.630859375 622.693359375 289.630859375 595.071289062 c 2
 289.630859375 -90.798828125 l 2
 289.630859375 -98.5625 287.705078125 -106.212890625 284.005859375 -113.155273438 c 2
 243.403320312 -189.368164062 l 2
 238.24609375 -199.043945312 229.884765625 -206.891601562 219.571289062 -211.731445312 c 2
 138.333984375 -249.870117188 l 2
 130.924804688 -253.348632812 122.75390625 -255.155273438 114.469726562 -255.155273438 c 2
 73.8349609375 -255.155273438 l 2
 44.390625 -255.1484375 20.5224609375 -232.754882812 20.52734375 -205.1328125 c 0
 20.529296875 -177.51171875 44.400390625 -155.125976562 73.8466796875 -155.125976562 c 2
 101.881835938 -155.131835938 l 1
 155.96484375 -129.741210938 l 1
 183 -79 l 1
 183 608.071289062 l 2
 183 635.693359375 206.870117188 645.083984375 236.315429688 645.083984375 c 0
EndSplineSet
Validated: 33
EndChar

StartChar: k
Encoding: 107 107 76
Width: 553
Flags: HW
LayerCount: 2
Fore
SplineSet
112 911.137695312 m 0
 139.955078125 911.137695312 162.618164062 888.474609375 162.618164062 860.51953125 c 2
 162.618164062 404.249023438 l 1
 384.751953125 626.364257812 l 2
 404.520507812 646.130859375 436.571289062 646.12890625 456.337890625 626.360351562 c 0
 476.10546875 606.591796875 476.103515625 574.541992188 456.334960938 554.775390625 c 2
 255.973632812 354.431640625 l 1
 461.038085938 81.021484375 l 2
 477.811523438 58.6572265625 473.279296875 26.9287109375 450.915039062 10.1572265625 c 0
 428.549804688 -6.62109375 396.822265625 -2.0859375 380.048828125 20.2783203125 c 2
 183.659179688 282.123046875 l 1
 162.618164062 261.0859375 l 1
 162.618164062 50.62109375 l 2
 162.618164062 22.6640625 139.955078125 0 112 0 c 0
 84.04296875 0 61.380859375 22.6640625 61.380859375 50.62109375 c 2
 61.380859375 860.51953125 l 2
 61.380859375 888.474609375 84.04296875 911.137695312 112 911.137695312 c 0
EndSplineSet
Validated: 33
EndChar

StartChar: l
Encoding: 108 108 77
Width: 340
Flags: HW
LayerCount: 2
Fore
SplineSet
108.928710938 905.81640625 m 0
 136.883789062 905.81640625 159.546875 883.153320312 159.546875 855.198242188 c 2
 159.546875 172.943359375 l 1
 185.215820312 121.579101562 l 1
 247.274414062 90.5498046875 l 2
 272.279296875 78.0498046875 282.4140625 47.642578125 269.912109375 22.6357421875 c 0
 257.41015625 -2.3642578125 227.004882812 -12.5 202 0 c 2
 124.84375 38.5791015625 l 2
 115.043945312 43.478515625 107.098632812 51.4287109375 102.201171875 61.228515625 c 2
 63.6484375 138.372070312 l 2
 60.1376953125 145.400390625 58.3095703125 153.150390625 58.3095703125 161 c 2
 58.3095703125 855.198242188 l 2
 58.3095703125 883.153320312 80.97265625 905.81640625 108.928710938 905.81640625 c 0
EndSplineSet
Validated: 33
EndChar

StartChar: m
Encoding: 109 109 78
Width: 909
Flags: HW
LayerCount: 2
Fore
SplineSet
56.5673828125 517.045898438 m 2
 56.5673828125 517.05859375 56.5673828125 517.071289062 56.5673828125 517.084960938 c 2
 56.5673828125 594.915039062 l 2
 56.5673828125 623.124023438 79.423828125 645.9921875 107.620117188 645.9921875 c 0
 128.013671875 645.9921875 145.614257812 634.029296875 153.794921875 616.735351562 c 1
 201.485351562 640.59765625 l 2
 208.576171875 644.14453125 216.39453125 645.9921875 224.322265625 645.9921875 c 2
 341.021484375 645.9921875 l 2
 348.9453125 645.9921875 356.759765625 644.146484375 363.846679688 640.602539062 c 2
 441.637695312 601.703125 l 2
 447.830078125 598.60546875 453.290039062 594.302734375 457.71875 589.086914062 c 1
 462.142578125 594.288085938 467.58984375 598.58203125 473.768554688 601.673828125 c 2
 551.561523438 640.59765625 l 2
 558.651367188 644.14453125 566.46875 645.9921875 574.396484375 645.9921875 c 2
 691.096679688 645.9921875 l 2
 699.020507812 645.9921875 706.8359375 644.146484375 713.922851562 640.602539062 c 2
 791.715820312 601.703125 l 2
 801.599609375 596.7578125 809.618164062 588.734375 814.561523438 578.838867188 c 2
 853.44140625 500.9609375 l 2
 856.978515625 493.874023438 858.822265625 486.060546875 858.822265625 478.13671875 c 2
 858.822265625 50.0810546875 l 2
 858.822265625 21.8720703125 835.963867188 -0.9951171875 807.774414062 -0.9951171875 c 0
 779.578125 -0.99609375 756.717773438 21.87109375 756.717773438 50.080078125 c 2
 756.716796875 466.090820312 l 1
 730.827148438 517.946289062 l 1
 679.048828125 543.837890625 l 1
 586.450195312 543.837890625 l 1
 534.659179688 517.924804688 l 1
 508.749023438 466.081054688 l 1
 508.749023438 50.0810546875 l 2
 508.749023438 21.87109375 485.891601562 -0.99609375 457.6953125 -0.9951171875 c 0
 429.5 -0.9951171875 406.642578125 21.8720703125 406.642578125 50.0810546875 c 2
 406.643554688 466.090820312 l 1
 380.751953125 517.9453125 l 1
 328.973632812 543.837890625 l 1
 236.376953125 543.837890625 l 1
 176.7734375 514.015625 l 1
 158.673828125 495.908203125 l 1
 158.673828125 50.0966796875 l 2
 158.673828125 21.88671875 135.815429688 -0.98046875 107.620117188 -0.98046875 c 0
 79.423828125 -0.98046875 56.5673828125 21.88671875 56.5673828125 50.0966796875 c 2
 56.5673828125 517.045898438 l 2
EndSplineSet
Validated: 33
EndChar

StartChar: n
Encoding: 110 110 79
Width: 580
Flags: HW
LayerCount: 2
Fore
SplineSet
58.90625 525.676757812 m 2
 58.90625 525.689453125 58.90625 525.703125 58.90625 525.715820312 c 2
 58.90625 604.858398438 l 2
 58.90625 633.54296875 81.970703125 656.795898438 110.419921875 656.795898438 c 0
 130.998046875 656.795898438 148.756835938 644.631835938 157.010742188 627.045898438 c 1
 205.1328125 651.310546875 l 2
 212.287109375 654.91796875 220.17578125 656.795898438 228.173828125 656.795898438 c 2
 345.9296875 656.795898438 l 2
 353.924804688 656.795898438 361.809570312 654.919921875 368.959960938 651.315429688 c 2
 447.453125 611.760742188 l 2
 457.431640625 606.731445312 465.522460938 598.573242188 470.506835938 588.510742188 c 2
 509.739257812 509.321289062 l 2
 513.309570312 502.11328125 515.168945312 494.168945312 515.168945312 486.112304688 c 2
 515.16796875 50.841796875 l 2
 515.16796875 22.1572265625 492.104492188 -1.095703125 463.653320312 -1.0947265625 c 0
 435.204101562 -1.0947265625 412.139648438 22.158203125 412.139648438 50.841796875 c 2
 412.140625 473.862304688 l 1
 386.018554688 526.592773438 l 1
 333.772460938 552.920898438 l 1
 240.337890625 552.920898438 l 1
 180.196289062 522.595703125 l 1
 161.93359375 504.182617188 l 1
 161.93359375 50.857421875 l 2
 161.93359375 22.1728515625 138.870117188 -1.080078125 110.419921875 -1.080078125 c 0
 81.970703125 -1.080078125 58.90625 22.1728515625 58.90625 50.857421875 c 2
 58.90625 525.676757812 l 2
EndSplineSet
Validated: 33
EndChar

StartChar: o
Encoding: 111 111 80
Width: 664
Flags: HW
LayerCount: 2
Fore
SplineSet
253.342773438 646.5859375 m 6
 260.524414062 650.162109375 268.444335938 652.0234375 276.474609375 652.0234375 c 6
 394.659179688 652.0234375 l 6
 402.681640625 652.0234375 410.59375 650.1640625 417.771484375 646.594726562 c 6
 496.598632812 607.393554688 l 6
 501.584960938 604.9140625 506.13671875 601.6484375 510.076171875 597.720703125 c 6
 549.4609375 558.469726562 l 6
 553.37890625 554.565429688 556.640625 550.05859375 559.120117188 545.123046875 c 6
 598.533203125 466.696289062 l 6
 602.125 459.548828125 603.997070312 451.6640625 603.997070312 443.670898438 c 6
 603.994140625 208.333984375 l 6
 603.994140625 200.337890625 602.122070312 192.452148438 598.52734375 185.30078125 c 6
 559.1171875 106.911132812 l 6
 556.633789062 101.97265625 553.369140625 97.4638671875 549.446289062 93.5576171875 c 6
 510.0625 54.337890625 l 6
 506.1328125 50.423828125 501.594726562 47.1669921875 496.624023438 44.6904296875 c 6
 417.796875 5.439453125 l 6
 410.61328125 1.8623046875 402.690429688 0 394.659179688 0 c 6
 276.474609375 0 l 6
 268.444335938 0 260.522460938 1.861328125 253.340820312 5.4375 c 6
 174.543945312 44.6669921875 l 6
 169.575195312 47.138671875 165.040039062 50.392578125 161.111328125 54.302734375 c 6
 121.698242188 93.5263671875 l 6
 117.767578125 97.4384765625 114.497070312 101.956054688 112.010742188 106.903320312 c 6
 72.59765625 185.353515625 l 6
 69.0068359375 192.501953125 67.13671875 200.3828125 67.13671875 208.375 c 6
 67.13671875 443.651367188 l 6
 67.13671875 451.642578125 69.0068359375 459.525390625 72.59765625 466.672851562 c 6
 112.009765625 545.122070312 l 6
 114.49609375 550.071289062 117.767578125 554.587890625 121.697265625 558.5 c 6
 161.112304688 597.723632812 l 6
 165.041015625 601.633789062 169.578125 604.888671875 174.545898438 607.361328125 c 6
 253.342773438 646.5859375 l 6
288.685546875 549.078125 m 5
 228.310546875 519.024414062 l 5
 200.762695312 491.608398438 l 5
 170.564453125 431.5 l 5
 170.564453125 220.52734375 l 5
 200.763671875 160.416992188 l 5
 228.311523438 133.000976562 l 5
 288.686523438 102.944335938 l 5
 382.444335938 102.944335938 l 5
 442.841796875 133.018554688 l 5
 470.37109375 160.435546875 l 5
 500.56640625 220.493164062 l 5
 500.567382812 431.516601562 l 5
 470.364257812 491.619140625 l 5
 442.842773438 519.047851562 l 5
 382.458984375 549.078125 l 5
 288.685546875 549.078125 l 5
EndSplineSet
Validated: 1
EndChar

StartChar: p
Encoding: 112 112 81
Width: 601
Flags: HW
LayerCount: 2
Fore
SplineSet
57.8974609375 555.709960938 m 2
 57.8974609375 593.241210938 l 2
 57.8974609375 621.198242188 80.5595703125 643.860351562 108.515625 643.860351562 c 0
 122.448242188 643.860351562 135.065429688 638.232421875 144.217773438 629.125 c 2
 163.013671875 638.51953125 l 2
 170.041015625 642.032226562 177.7890625 643.860351562 185.64453125 643.860351562 c 2
 339.901367188 643.860351562 l 2
 347.756835938 643.860351562 355.504882812 642.032226562 362.53125 638.51953125 c 2
 439.663085938 599.96875 l 2
 444.536132812 597.533203125 448.985351562 594.326171875 452.836914062 590.47265625 c 2
 491.413085938 551.87109375 l 2
 495.252929688 548.028320312 498.44921875 543.592773438 500.87890625 538.735351562 c 2
 539.458984375 461.609375 l 2
 542.9765625 454.579101562 544.807617188 446.825195312 544.807617188 438.96484375 c 2
 544.807617188 207.530273438 l 2
 544.807617188 199.666015625 542.974609375 191.909179688 539.455078125 184.876953125 c 2
 500.875976562 107.787109375 l 2
 498.443359375 102.924804688 495.243164062 98.4873046875 491.3984375 94.6435546875 c 2
 452.8203125 56.0732421875 l 2
 448.978515625 52.232421875 444.543945312 49.03515625 439.685546875 46.603515625 c 2
 362.557617188 8.001953125 l 2
 355.5234375 4.482421875 347.766601562 2.6494140625 339.900390625 2.650390625 c 2
 185.641601562 2.6533203125 l 2
 177.78125 2.654296875 170.029296875 4.484375 163 8 c 2
 159.134765625 9.93359375 l 1
 159.134765625 -216.65625 l 2
 159.134765625 -244.61328125 136.471679688 -267.27734375 108.515625 -267.27734375 c 0
 80.5595703125 -267.27734375 57.8974609375 -244.61328125 57.8974609375 -216.65625 c 2
 57.8974609375 90.8291015625 l 2
 57.8828125 91.5322265625 57.8828125 92.2373046875 57.8974609375 92.943359375 c 2
 57.8974609375 553.59375 l 2
 57.8828125 554.299804688 57.8828125 555.004882812 57.8974609375 555.709960938 c 2
159.134765625 123.126953125 m 1
 197.595703125 103.890625 l 1
 327.943359375 103.887695312 l 1
 387.041992188 133.46484375 l 1
 414.016601562 160.43359375 l 1
 443.569335938 219.489257812 l 1
 443.5703125 427.009765625 l 1
 414.006835938 486.109375 l 1
 387.04296875 513.08984375 l 1
 327.956054688 542.623046875 l 1
 197.590820312 542.623046875 l 1
 159.134765625 523.401367188 l 1
 159.134765625 123.126953125 l 1
EndSplineSet
Validated: 1
EndChar

StartChar: q
Encoding: 113 113 82
Width: 643
Flags: HW
LayerCount: 2
Fore
SplineSet
247.942382812 637.791992188 m 6
 254.971679688 641.307617188 262.723632812 643.137695312 270.583984375 643.137695312 c 6
 424.870117188 643.137695312 l 6
 432.7265625 643.137695312 440.474609375 641.309570312 447.501953125 637.796875 c 6
 466.297851562 628.40234375 l 6
 475.450195312 637.509765625 488.067382812 643.137695312 502 643.137695312 c 4
 529.956054688 643.137695312 552.618164062 620.475585938 552.618164062 592.518554688 c 6
 552.618164062 554.928710938 l 6
 552.631835938 554.263671875 552.631835938 553.595703125 552.618164062 552.928710938 c 6
 552.618164062 92.1630859375 l 6
 552.631835938 91.49609375 552.631835938 90.8291015625 552.618164062 90.1640625 c 6
 552.618164062 -217.37890625 l 6
 552.618164062 -245.3359375 529.956054688 -268 502 -268 c 4
 474.043945312 -268 451.380859375 -245.3359375 451.380859375 -217.37890625 c 6
 451.380859375 9.208984375 l 5
 447.512695312 7.2744140625 l 6
 440.481445312 3.7578125 432.729492188 1.9267578125 424.8671875 1.927734375 c 6
 270.583984375 1.9306640625 l 6
 262.723632812 1.931640625 254.973632812 3.76171875 247.943359375 7.27734375 c 6
 170.8125 45.8515625 l 6
 165.943359375 48.287109375 161.499023438 51.4921875 157.650390625 55.3427734375 c 6
 119.099609375 93.9169921875 l 6
 115.258789062 97.7607421875 112.060546875 102.198242188 109.630859375 107.05859375 c 6
 71.0517578125 184.208007812 l 6
 67.537109375 191.237304688 65.70703125 198.987304688 65.70703125 206.846679688 c 6
 65.70703125 438.22265625 l 6
 65.70703125 446.081054688 67.5361328125 453.833007812 71.0517578125 460.861328125 c 6
 109.62890625 538.009765625 l 6
 112.059570312 542.87109375 115.2578125 547.30859375 119.099609375 551.153320312 c 6
 157.65234375 589.727539062 l 6
 161.5 593.578125 165.944335938 596.782226562 170.813476562 599.217773438 c 6
 247.942382812 637.791992188 l 6
451.380859375 122.404296875 m 5
 451.380859375 522.678710938 l 5
 412.924804688 541.900390625 l 5
 282.536132812 541.900390625 l 5
 223.447265625 512.348632812 l 5
 196.506835938 485.392578125 l 5
 166.944335938 426.271484375 l 5
 166.944335938 218.797851562 l 5
 196.5078125 159.676757812 l 5
 223.447265625 132.720703125 l 5
 282.538085938 103.16796875 l 5
 412.916015625 103.165039062 l 5
 451.380859375 122.404296875 l 5
EndSplineSet
Validated: 1
EndChar

StartChar: r
Encoding: 114 114 83
Width: 412
Flags: HW
LayerCount: 2
Fore
SplineSet
54.4912109375 434.459960938 m 2
 54.4765625 435.163085938 54.4765625 435.870117188 54.4912109375 436.577148438 c 2
 54.4912109375 589.98046875 l 2
 54.4912109375 617.977539062 75.7373046875 640.673828125 101.9453125 640.673828125 c 0
 126.756835938 640.673828125 147.120117188 620.3359375 149.223632812 594.416015625 c 1
 150.458007812 595.235351562 151.728515625 595.993164062 153.030273438 596.688476562 c 2
 225.341796875 635.3203125 l 2
 231.931640625 638.83984375 239.200195312 640.673828125 246.568359375 640.673828125 c 2
 318.877929688 640.673828125 l 2
 345.0859375 640.673828125 366.333007812 617.977539062 366.333007812 589.98046875 c 0
 366.333007812 561.984375 345.0859375 539.288085938 318.877929688 539.288085938 c 2
 257.7734375 539.288085938 l 1
 202.369140625 509.689453125 l 1
 177.092773438 482.693359375 l 1
 149.40234375 423.516601562 l 1
 149.40234375 49.26171875 l 2
 149.40234375 21.2646484375 128.155273438 -1.4306640625 101.9453125 -1.4306640625 c 0
 75.7373046875 -1.4306640625 54.4912109375 21.2646484375 54.4912109375 49.26171875 c 2
 54.4912109375 434.459960938 l 2
EndSplineSet
Validated: 5
EndChar

StartChar: s
Encoding: 115 115 84
Width: 618
Flags: HW
LayerCount: 2
Fore
SplineSet
225.838867188 662.392578125 m 2
 233.3046875 666.060546875 241.540039062 667.971679688 249.888671875 667.971679688 c 2
 372.796875 667.971679688 l 2
 381.141601562 667.971679688 389.374023438 666.063476562 396.836914062 662.3984375 c 2
 478.766601562 622.173828125 l 2
 505.330078125 609.1328125 516.099609375 577.408203125 502.823242188 551.31640625 c 0
 489.545898438 525.223632812 457.250976562 514.645507812 430.6875 527.685546875 c 2
 360.108398438 562.338867188 l 1
 262.583984375 562.338867188 l 1
 208.037109375 535.541992188 l 1
 180.748046875 481.938476562 l 1
 180.748046875 466.638671875 l 1
 208.02734375 413.10546875 l 1
 262.583984375 386.302734375 l 1
 372.796875 386.302734375 l 2
 381.146484375 386.302734375 389.381835938 384.392578125 396.848632812 380.724609375 c 2
 478.779296875 340.474609375 l 2
 489.181640625 335.364257812 497.616210938 327.078125 502.818359375 316.860351562 c 2
 543.796875 236.36328125 l 2
 547.532226562 229.028320312 549.4765625 220.94140625 549.4765625 212.740234375 c 2
 549.4765625 172.4921875 l 2
 549.4765625 164.291992188 547.532226562 156.204101562 543.797851562 148.869140625 c 2
 502.818359375 68.37109375 l 2
 497.616210938 58.154296875 489.182617188 49.8671875 478.779296875 44.7568359375 c 2
 396.848632812 4.5078125 l 2
 389.3828125 0.83984375 381.149414062 -1.0693359375 372.799804688 -1.0703125 c 2
 208.938476562 -1.07421875 l 2
 200.590820312 -1.0751953125 192.358398438 0.833984375 184.891601562 4.501953125 c 2
 102.93359375 44.7548828125 l 2
 76.3720703125 57.80078125 65.6064453125 89.5244140625 78.88671875 115.615234375 c 0
 92.166015625 141.704101562 124.46484375 152.280273438 151.026367188 139.235351562 c 2
 221.629882812 104.55859375 l 1
 360.103515625 104.5625 l 1
 414.649414062 131.359375 l 1
 441.9375 184.961914062 l 1
 441.9375 200.271484375 l 1
 414.649414062 253.874023438 l 1
 360.103515625 280.670898438 l 1
 249.888671875 280.670898438 l 2
 241.5390625 280.670898438 233.302734375 282.579101562 225.836914062 286.248046875 c 2
 143.90625 326.497070312 l 2
 133.510742188 331.60546875 125.079101562 339.884765625 119.876953125 350.09765625 c 2
 78.8955078125 430.520507812 l 2
 75.158203125 437.860351562 73.208984375 445.953125 73.208984375 454.159179688 c 2
 73.208984375 494.407226562 l 2
 73.208984375 502.607421875 75.154296875 510.696289062 78.8876953125 518.029296875 c 2
 119.8671875 598.528320312 l 2
 125.068359375 608.747070312 133.504882812 617.032226562 143.90625 622.143554688 c 2
 225.838867188 662.392578125 l 2
EndSplineSet
Validated: 33
EndChar

StartChar: t
Encoding: 116 116 85
Width: 526
Flags: HW
LayerCount: 2
Fore
SplineSet
210.161132812 911.159179688 m 0
 238.118164062 911.159179688 260.780273438 888.49609375 260.780273438 860.541015625 c 2
 260.780273438 641.209960938 l 1
 402.997070312 641.209960938 l 2
 430.953125 641.209960938 453.615234375 618.546875 453.615234375 590.590820312 c 0
 453.615234375 562.634765625 430.953125 539.97265625 402.997070312 539.97265625 c 2
 260.780273438 539.97265625 l 1
 260.780273438 178.29296875 l 1
 286.450195312 126.935546875 l 1
 337.798828125 101.235351562 l 1
 402.995117188 101.243164062 l 2
 430.950195312 101.243164062 453.614257812 78.5791015625 453.615234375 50.62109375 c 0
 453.6171875 22.671875 430.956054688 0.0068359375 403 0 c 2
 325.84375 0 l 2
 317.979492188 0 310.221679688 1.8291015625 303.188476562 5.3505859375 c 2
 226.059570312 43.9501953125 l 2
 216.267578125 48.8505859375 208.329101562 56.79296875 203.434570312 66.5859375 c 2
 164.8828125 143.721679688 l 2
 161.37109375 150.75 159.54296875 158.493164062 159.54296875 166.350585938 c 2
 159.54296875 539.97265625 l 1
 94.4521484375 539.97265625 l 2
 66.49609375 539.97265625 43.8330078125 562.634765625 43.8330078125 590.590820312 c 0
 43.8330078125 618.546875 66.49609375 641.209960938 94.4521484375 641.209960938 c 2
 159.54296875 641.209960938 l 1
 159.54296875 860.541015625 l 2
 159.54296875 888.49609375 182.206054688 911.159179688 210.161132812 911.159179688 c 0
EndSplineSet
Validated: 33
EndChar

StartChar: u
Encoding: 117 117 86
Width: 611
Flags: HW
LayerCount: 2
Fore
SplineSet
124.395507812 635.283203125 m 4
 152.869140625 635.283203125 175.952148438 612.8203125 175.952148438 585.110351562 c 6
 175.952148438 176.462890625 l 5
 202.098632812 125.541015625 l 5
 254.3984375 100.071289062 l 5
 347.895507812 100.07421875 l 5
 408.087890625 129.37109375 l 5
 426.362304688 147.154296875 l 5
 426.362304688 585.110351562 l 6
 426.362304688 612.8203125 449.4453125 635.283203125 477.919921875 635.283203125 c 4
 506.39453125 635.283203125 529.477539062 612.8203125 529.477539062 585.110351562 c 6
 529.477539062 126.54296875 l 6
 529.477539062 126.428710938 529.477539062 126.315429688 529.477539062 126.19921875 c 6
 529.477539062 49.9384765625 l 6
 529.477539062 22.23046875 506.39453125 -0.2333984375 477.919921875 -0.2333984375 c 4
 457.337890625 -0.2333984375 439.572265625 11.5048828125 431.306640625 28.4755859375 c 5
 383.129882812 5.029296875 l 6
 375.969726562 1.544921875 368.076171875 -0.2685546875 360.071289062 -0.26953125 c 6
 242.220703125 -0.2734375 l 6
 234.2109375 -0.2734375 226.309570312 1.5419921875 219.145507812 5.03125 c 6
 140.586914062 43.2890625 l 6
 130.614257812 48.146484375 122.526367188 56.021484375 117.541015625 65.7294921875 c 6
 78.2763671875 142.200195312 l 6
 74.7021484375 149.1640625 72.8388671875 156.842773438 72.8388671875 164.626953125 c 6
 72.8388671875 585.110351562 l 6
 72.8388671875 612.8203125 95.9208984375 635.283203125 124.395507812 635.283203125 c 4
EndSplineSet
Validated: 1
EndChar

StartChar: v
Encoding: 118 118 87
Width: 736
Flags: HW
LayerCount: 2
Fore
SplineSet
122.9375 647.866210938 m 0
 153.384765625 657.4296875 186.8828125 643.475585938 197.755859375 616.701171875 c 2
 365.642578125 203.334960938 l 1
 533.52734375 616.701171875 l 2
 544.40234375 643.475585938 577.899414062 657.4296875 608.346679688 647.866210938 c 0
 638.794921875 638.3046875 654.661132812 608.84765625 643.787109375 582.072265625 c 2
 420.7734375 32.96484375 l 2
 412.451171875 12.4765625 390.3828125 -1.1982421875 365.642578125 -1.1982421875 c 0
 340.903320312 -1.1982421875 318.833007812 12.4765625 310.512695312 32.96484375 c 2
 87.49609375 582.072265625 l 2
 76.623046875 608.84765625 92.4892578125 638.3046875 122.9375 647.866210938 c 0
EndSplineSet
Validated: 33
EndChar

StartChar: w
Encoding: 119 119 88
Width: 990
Flags: HW
LayerCount: 2
Fore
SplineSet
121.783203125 651.715820312 m 0
 153.2890625 659.553710938 186.126953125 643.671875 195.130859375 616.243164062 c 2
 328.28515625 210.546875 l 1
 444.63671875 463.784179688 l 2
 453.647460938 483.396484375 475.462890625 496.254882812 499.72265625 496.254882812 c 0
 523.983398438 496.25390625 545.798828125 483.395507812 554.80859375 463.783203125 c 2
 671.16015625 210.521484375 l 1
 804.315429688 616.2421875 l 2
 813.317382812 643.670898438 846.154296875 659.553710938 877.659179688 651.715820312 c 0
 909.163085938 643.879882812 927.40625 615.2890625 918.405273438 587.860351562 c 2
 737.571289062 36.8564453125 l 2
 730.600585938 15.619140625 708.892578125 0.58984375 683.553710938 -0.5380859375 c 0
 658.216796875 -1.6669921875 634.860351562 11.357421875 625.439453125 31.8642578125 c 2
 499.719726562 305.518554688 l 1
 374.004882812 31.90234375 l 2
 364.583007812 11.39453125 341.2265625 -1.6279296875 315.890625 -0.4990234375 c 0
 290.552734375 0.6279296875 268.84375 15.658203125 261.873046875 36.8955078125 c 2
 81.0380859375 587.859375 l 2
 72.0361328125 615.288085938 90.279296875 643.87890625 121.783203125 651.715820312 c 0
EndSplineSet
Validated: 33
EndChar

StartChar: x
Encoding: 120 120 89
Width: 673
Flags: HW
LayerCount: 2
Fore
SplineSet
69.4599609375 620.379882812 m 0
 92.888671875 637.37109375 126.802734375 633.614257812 145.209960938 611.98828125 c 2
 328.850585938 396.234375 l 1
 512.489257812 611.98828125 l 2
 530.895507812 633.614257812 564.809570312 637.37109375 588.237304688 620.379882812 c 0
 611.666015625 603.388671875 615.734375 572.081054688 597.327148438 550.456054688 c 2
 397.45703125 315.631835938 l 1
 597.327148438 80.8056640625 l 2
 615.734375 59.1787109375 611.666015625 27.873046875 588.237304688 10.880859375 c 0
 564.809570312 -6.1103515625 530.895507812 -2.35546875 512.489257812 19.2734375 c 2
 328.850585938 235.02734375 l 1
 145.209960938 19.2734375 l 2
 126.802734375 -2.35546875 92.888671875 -6.1103515625 69.4599609375 10.880859375 c 0
 46.033203125 27.873046875 41.962890625 59.1787109375 60.369140625 80.8056640625 c 2
 260.243164062 315.631835938 l 1
 60.369140625 550.456054688 l 2
 41.962890625 572.081054688 46.033203125 603.388671875 69.4599609375 620.379882812 c 0
EndSplineSet
Validated: 33
EndChar

StartChar: y
Encoding: 121 121 90
Width: 631
Flags: HW
LayerCount: 2
Fore
SplineSet
106.25 641.3359375 m 4
 132.577148438 650.182617188 161.541992188 637.275390625 170.9453125 612.506835938 c 6
 316.109375 230.138671875 l 5
 461.250976562 612.504882812 l 6
 470.653320312 637.2734375 499.618164062 650.181640625 525.9453125 641.336914062 c 4
 552.272460938 632.493164062 565.994140625 605.245117188 556.592773438 580.477539062 c 6
 363.783203125 72.53515625 l 6
 363.5703125 71.974609375 363.345703125 71.416015625 363.110351562 70.8623046875 c 6
 285.954101562 -110.58203125 l 6
 283.405273438 -116.576171875 279.586914062 -122.01953125 274.732421875 -126.581054688 c 6
 236.181640625 -162.821289062 l 6
 232.342773438 -166.421875 227.912109375 -169.432617188 223.059570312 -171.716796875 c 6
 145.928710938 -208.029296875 l 6
 120.9296875 -219.796875 90.5205078125 -210.274414062 78.0087890625 -186.755859375 c 4
 65.4970703125 -163.237304688 75.62109375 -134.631835938 100.62109375 -122.858398438 c 6
 170.423828125 -89.9931640625 l 5
 195.822265625 -66.125 l 5
 262 89.5048828125 l 5
 75.60546875 580.475585938 l 6
 66.203125 605.2421875 79.9228515625 632.491210938 106.25 641.3359375 c 4
EndSplineSet
Validated: 33
EndChar

StartChar: z
Encoding: 122 122 91
Width: 678
Flags: HW
LayerCount: 2
Fore
SplineSet
63.1162109375 581.395507812 m 0
 63.1162109375 608.91796875 86.416015625 631.229492188 115.157226562 631.229492188 c 2
 551.295898438 631.229492188 l 2
 571.21875 631.229492188 589.392578125 620.337890625 598.100585938 603.1796875 c 0
 606.809570312 586.022460938 604.525390625 565.608398438 592.216796875 550.607421875 c 2
 222.219726562 99.6591796875 l 1
 551.30078125 99.6318359375 l 2
 580.041992188 99.62890625 603.338867188 77.31640625 603.3359375 49.79296875 c 0
 603.333007812 22.271484375 580.033203125 -0.0380859375 551.291992188 -0.037109375 c 2
 115.153320312 0 l 2
 95.2314453125 0.001953125 77.060546875 10.8935546875 68.3525390625 28.0517578125 c 0
 59.6435546875 45.2099609375 61.9287109375 65.62109375 74.2373046875 80.6220703125 c 2
 444.227539062 531.561523438 l 1
 115.157226562 531.561523438 l 2
 86.416015625 531.561523438 63.1162109375 553.873046875 63.1162109375 581.395507812 c 0
EndSplineSet
Validated: 33
EndChar

StartChar: underscore
Encoding: 95 95 92
Width: 1000
Flags: HO
LayerCount: 2
Fore
SplineSet
127.643554688 -61.576171875 m 0
 127.643554688 -33.11328125 150.717773438 -10.0380859375 179.182617188 -10.0380859375 c 2
 807.463867188 -10.0380859375 l 2
 835.928710938 -10.0380859375 858.999023438 -33.11328125 858.999023438 -61.576171875 c 0
 858.999023438 -90.041015625 835.928710938 -113.115234375 807.463867188 -113.115234375 c 2
 179.182617188 -113.115234375 l 2
 150.717773438 -113.115234375 127.643554688 -90.041015625 127.643554688 -61.576171875 c 0
EndSplineSet
EndChar

StartChar: backslash
Encoding: 92 92 93
Width: 769
Flags: HW
LayerCount: 2
Fore
SplineSet
64.064453125 926.920898438 m 0
 83.220703125 939.69140625 109.102539062 934.514648438 121.872070312 915.359375 c 2
 693.55859375 57.806640625 l 2
 706.329101562 38.6533203125 701.15234375 12.7705078125 682 0 c 0
 662.840820312 -12.7705078125 636.958984375 -7.59375 624.1875 11.5595703125 c 2
 52.501953125 869.11328125 l 2
 39.7314453125 888.26953125 44.908203125 914.151367188 64.064453125 926.920898438 c 0
EndSplineSet
Validated: 33
EndChar

StartChar: Egrave
Encoding: 200 200 95
Width: 667
Flags: HW
LayerCount: 2
Fore
SplineSet
207.125976562 1276 m 4
 176.713867188 1261.77832031 164.387695312 1227.19238281 179.592773438 1198.75 c 6
 273.40234375 1023.28027344 l 6
 288.608398438 994.837890625 325.588867188 983.309570312 356 997.530273438 c 4
 386.412109375 1011.75195312 398.739257812 1046.33789062 383.533203125 1074.78027344 c 6
 289.723632812 1250.25 l 6
 274.517578125 1278.69238281 237.538085938 1290.22167969 207.125976562 1276 c 4
88.7626953125 861.298828125 m 2
 88.7626953125 889.25390625 111.424804688 911.916992188 139.380859375 911.916992188 c 2
 525.0546875 911.916992188 l 2
 553.010742188 911.916992188 575.673828125 889.25390625 575.673828125 861.298828125 c 0
 575.673828125 833.341796875 553.010742188 810.6796875 525.0546875 810.6796875 c 2
 190 810.6796875 l 1
 190 526.244140625 l 1
 409.34765625 526.244140625 l 2
 437.302734375 526.244140625 459.965820312 503.58203125 459.965820312 475.625976562 c 0
 459.965820312 447.669921875 437.302734375 425.006835938 409.34765625 425.006835938 c 2
 190 425.006835938 l 1
 190 102 l 1
 525.0546875 102 l 2
 553.010742188 102 575.673828125 79.3359375 575.673828125 51.3779296875 c 0
 575.673828125 23.4208984375 553.010742188 0.7568359375 525.0546875 0.7568359375 c 2
 139.380859375 0.7568359375 l 2
 111.424804688 0.7568359375 88.7626953125 23.4208984375 88.7626953125 51.3779296875 c 2
 88.7626953125 861.298828125 l 2
EndSplineSet
EndChar

StartChar: Agrave
Encoding: 192 192 96
Width: 800
Flags: HW
LayerCount: 2
Fore
SplineSet
254.125976562 1271.46972656 m 4
 223.713867188 1257.24804688 211.387695312 1222.66210938 226.592773438 1194.21972656 c 6
 320.40234375 1018.75 l 6
 335.608398438 990.307617188 372.588867188 978.779296875 403 993 c 4
 433.412109375 1007.22167969 445.739257812 1041.80761719 430.533203125 1070.25 c 6
 336.723632812 1245.71972656 l 6
 321.517578125 1274.16210938 284.538085938 1285.69140625 254.125976562 1271.46972656 c 4
393.594726562 909.473632812 m 0
 415.3828125 909.473632812 434.725585938 895.53125 441.615234375 874.862304688 c 2
 633.9453125 297.874023438 l 2
 634.3046875 296.899414062 634.633789062 295.911132812 634.93359375 294.909179688 c 2
 711.58203125 64.9638671875 l 2
 720.422851562 38.4423828125 706.08984375 9.7783203125 679.568359375 0.9345703125 c 0
 653.047851562 -7.908203125 624.380859375 6.427734375 615.540039062 32.94921875 c 2
 549.935546875 229.763671875 l 1
 237.25390625 229.763671875 l 1
 171.6484375 32.94921875 l 2
 162.80859375 6.427734375 134.142578125 -7.908203125 107.62109375 0.9345703125 c 0
 81.099609375 9.7783203125 66.7666015625 38.4423828125 75.6064453125 64.9638671875 c 2
 152.239257812 294.860351562 l 2
 152.547851562 295.89453125 152.887695312 296.916015625 153.259765625 297.921875 c 2
 345.573242188 874.862304688 l 2
 352.462890625 895.53125 371.806640625 909.473632812 393.594726562 909.473632812 c 0
271 331 m 1
 516.189453125 331 l 1
 393.594726562 698.78515625 l 1
 271 331 l 1
EndSplineSet
EndChar

StartChar: Aacute
Encoding: 193 193 97
Width: 800
Flags: HW
LayerCount: 2
Fore
SplineSet
515 1270 m 0
 545.412109375 1255.77832031 557.73828125 1221.19238281 542.533203125 1192.75 c 2
 448.723632812 1017.28027344 l 2
 433.517578125 988.837890625 396.537109375 977.309570312 366.125976562 991.530273438 c 0
 335.713867188 1005.75195312 323.38671875 1040.33789062 338.592773438 1068.78027344 c 2
 432.40234375 1244.25 l 2
 447.608398438 1272.69238281 484.587890625 1284.22167969 515 1270 c 0
393.594726562 909.473632812 m 4
 415.3828125 909.473632812 434.725585938 895.53125 441.615234375 874.862304688 c 6
 633.9453125 297.874023438 l 6
 634.3046875 296.899414062 634.633789062 295.911132812 634.93359375 294.909179688 c 6
 711.58203125 64.9638671875 l 6
 720.422851562 38.4423828125 706.08984375 9.7783203125 679.568359375 0.9345703125 c 4
 653.047851562 -7.908203125 624.380859375 6.427734375 615.540039062 32.94921875 c 6
 549.935546875 229.763671875 l 5
 237.25390625 229.763671875 l 5
 171.6484375 32.94921875 l 6
 162.80859375 6.427734375 134.142578125 -7.908203125 107.62109375 0.9345703125 c 4
 81.099609375 9.7783203125 66.7666015625 38.4423828125 75.6064453125 64.9638671875 c 6
 152.239257812 294.860351562 l 6
 152.547851562 295.89453125 152.887695312 296.916015625 153.259765625 297.921875 c 6
 345.573242188 874.862304688 l 6
 352.462890625 895.53125 371.806640625 909.473632812 393.594726562 909.473632812 c 4
271 331 m 5
 516.189453125 331 l 5
 393.594726562 698.78515625 l 5
 271 331 l 5
EndSplineSet
EndChar

StartChar: Acircumflex
Encoding: 194 194 98
Width: 800
Flags: HW
LayerCount: 2
Fore
SplineSet
360.956054688 1099.4765625 m 6
 379.9453125 1113.71972656 406.055664062 1113.71972656 425.043945312 1099.4765625 c 6
 587.786132812 977.405273438 l 6
 611.379882812 959.708007812 616.159179688 926.234375 598.461914062 902.640625 c 0
 580.765625 879.046875 547.291015625 874.267578125 523.698242188 891.96484375 c 2
 393 990 l 5
 262.30078125 891.96484375 l 2
 238.708007812 874.267578125 205.234375 879.046875 187.537109375 902.640625 c 0
 169.83984375 926.234375 174.620117188 959.708007812 198.212890625 977.405273438 c 6
 360.956054688 1099.4765625 l 6
393.594726562 909.473632812 m 0
 415.3828125 909.473632812 434.725585938 895.53125 441.615234375 874.862304688 c 2
 633.9453125 297.874023438 l 2
 634.3046875 296.899414062 634.633789062 295.911132812 634.93359375 294.909179688 c 2
 711.58203125 64.9638671875 l 2
 720.422851562 38.4423828125 706.08984375 9.7783203125 679.568359375 0.9345703125 c 0
 653.047851562 -7.908203125 624.380859375 6.427734375 615.540039062 32.94921875 c 2
 549.935546875 229.763671875 l 1
 237.25390625 229.763671875 l 1
 171.6484375 32.94921875 l 2
 162.80859375 6.427734375 134.142578125 -7.908203125 107.62109375 0.9345703125 c 0
 81.099609375 9.7783203125 66.7666015625 38.4423828125 75.6064453125 64.9638671875 c 2
 152.239257812 294.860351562 l 2
 152.547851562 295.89453125 152.887695312 296.916015625 153.259765625 297.921875 c 2
 345.573242188 874.862304688 l 2
 352.462890625 895.53125 371.806640625 909.473632812 393.594726562 909.473632812 c 0
271 331 m 1
 516.189453125 331 l 1
 393.594726562 698.78515625 l 1
 271 331 l 1
EndSplineSet
EndChar

StartChar: questiondown
Encoding: 191 191 99
Width: 634
Flags: HW
LayerCount: 2
Fore
SplineSet
171.250976562 -95.6591796875 m 2
 178.27734375 -99.1708984375 186.025390625 -101 193.881835938 -101 c 2
 386.719726562 -101 l 2
 394.575195312 -101 402.323242188 -99.1708984375 409.350585938 -95.658203125 c 2
 486.477539062 -57.107421875 l 2
 496.270507812 -52.212890625 504.212890625 -44.2744140625 509.11328125 -34.484375 c 2
 547.690429688 42.59765625 l 2
 551.2109375 49.6318359375 553.04296875 57.3876953125 553.04296875 65.251953125 c 2
 553.043945312 142.401367188 l 2
 553.043945312 150.2578125 551.21484375 158.006835938 547.702148438 165.034179688 c 2
 509.124023438 242.209960938 l 2
 506.6875 247.084960938 503.479492188 251.533203125 499.624023438 255.384765625 c 2
 461.047851562 293.927734375 l 2
 457.208984375 297.763671875 452.778320312 300.95703125 447.924804688 303.385742188 c 2
 378.131835938 338.31640625 l 1
 351.182617188 365.26171875 l 1
 321.62890625 424.310546875 l 1
 321.62890625 450.948242188 l 2
 321.62890625 478.903320312 298.966796875 501.56640625 271.010742188 501.56640625 c 0
 243.0546875 501.56640625 220.391601562 478.903320312 220.391601562 450.948242188 c 2
 220.391601562 412.350585938 l 2
 220.391601562 404.486328125 222.224609375 396.729492188 225.744140625 389.696289062 c 2
 264.323242188 312.614257812 l 2
 266.755859375 307.75390625 269.955078125 303.31640625 273.798828125 299.473632812 c 2
 312.350585938 260.926757812 l 2
 316.193359375 257.084960938 320.627929688 253.88671875 325.486328125 251.455078125 c 2
 395.2890625 216.520507812 l 1
 422.249023438 189.583984375 l 1
 451.806640625 130.454101562 l 1
 451.805664062 77.2119140625 l 1
 426.12890625 25.9072265625 l 1
 374.772460938 0.23828125 l 1
 205.827148438 0.23828125 l 1
 139.384765625 33.4482421875 l 2
 114.377929688 45.947265625 83.9736328125 35.8076171875 71.474609375 10.8017578125 c 0
 58.9765625 -14.205078125 69.115234375 -44.6083984375 94.12109375 -57.107421875 c 2
 171.250976562 -95.6591796875 l 2
271.002929688 631.698242188 m 0
 284.4296875 631.698242188 297.307617188 637.034179688 306.801757812 646.526367188 c 2
 345.381835938 685.10546875 l 2
 354.875976562 694.59765625 360.208984375 707.469726562 360.208984375 720.8984375 c 0
 360.208984375 734.326171875 354.875 747.198242188 345.380859375 756.69140625 c 2
 306.80078125 795.26953125 l 2
 297.305664062 804.762695312 284.427734375 810.090820312 271 810.090820312 c 0
 257.573242188 810.090820312 244.697265625 804.748046875 235.206054688 795.254882812 c 2
 196.653320312 756.676757812 l 2
 176.900390625 736.912109375 176.901367188 704.876953125 196.655273438 685.112304688 c 2
 235.20703125 646.534179688 l 2
 244.69921875 637.041015625 257.576171875 631.705078125 271.002929688 631.698242188 c 0
EndSplineSet
EndChar

StartChar: Adieresis
Encoding: 196 196 100
Width: 800
Flags: HW
LayerCount: 2
Fore
SplineSet
612 1218.62402344 m 4
 625.912109375 1218.62695312 639.252929688 1213.02636719 649.08984375 1203.05664062 c 6
 689.056640625 1162.54882812 l 6
 698.893554688 1152.58007812 704.418945312 1139.05664062 704.416015625 1124.95703125 c 4
 704.4140625 1110.85742188 698.8828125 1097.33691406 689.041015625 1087.37109375 c 6
 649.075195312 1046.89550781 l 6
 628.592773438 1026.15332031 595.400390625 1026.16015625 574.926757812 1046.91015625 c 6
 534.987304688 1087.38867188 l 6
 514.512695312 1108.140625 514.5078125 1141.78515625 534.9765625 1162.54296875 c 6
 574.916015625 1203.04589844 l 6
 584.75 1213.01855469 598.088867188 1218.62207031 612 1218.62402344 c 4
187 1218.61425781 m 4
 200.911132812 1218.61621094 214.252929688 1213.01660156 224.088867188 1203.046875 c 6
 264.056640625 1162.54003906 l 6
 273.890625 1152.57324219 279.416015625 1139.05371094 279.416015625 1124.95703125 c 4
 279.416015625 1110.86035156 273.890625 1097.34179688 264.0546875 1087.37402344 c 6
 224.087890625 1046.87109375 l 6
 214.250976562 1036.90234375 200.909179688 1031.30273438 186.998046875 1031.30566406 c 4
 173.086914062 1031.30761719 159.747070312 1036.91210938 149.9140625 1046.88476562 c 6
 109.974609375 1087.39257812 l 6
 89.51171875 1108.14746094 89.5126953125 1141.78027344 109.9765625 1162.53320312 c 6
 149.916015625 1203.03613281 l 6
 159.75 1213.00878906 173.088867188 1218.61230469 187 1218.61425781 c 4
393.594726562 909.473632812 m 0
 415.3828125 909.473632812 434.725585938 895.53125 441.615234375 874.862304688 c 2
 633.9453125 297.874023438 l 2
 634.3046875 296.899414062 634.633789062 295.911132812 634.93359375 294.909179688 c 2
 711.58203125 64.9638671875 l 2
 720.422851562 38.4423828125 706.08984375 9.7783203125 679.568359375 0.9345703125 c 0
 653.047851562 -7.908203125 624.380859375 6.427734375 615.540039062 32.94921875 c 2
 549.935546875 229.763671875 l 1
 237.25390625 229.763671875 l 1
 171.6484375 32.94921875 l 2
 162.80859375 6.427734375 134.142578125 -7.908203125 107.62109375 0.9345703125 c 0
 81.099609375 9.7783203125 66.7666015625 38.4423828125 75.6064453125 64.9638671875 c 2
 152.239257812 294.860351562 l 2
 152.547851562 295.89453125 152.887695312 296.916015625 153.259765625 297.921875 c 2
 345.573242188 874.862304688 l 2
 352.462890625 895.53125 371.806640625 909.473632812 393.594726562 909.473632812 c 0
271 331 m 1
 516.189453125 331 l 1
 393.594726562 698.78515625 l 1
 271 331 l 1
EndSplineSet
EndChar

StartChar: Eacute
Encoding: 201 201 101
Width: 667
Flags: HW
LayerCount: 2
Fore
SplineSet
423 1276 m 4
 453.412109375 1261.77832031 465.73828125 1227.19238281 450.533203125 1198.75 c 6
 356.723632812 1023.28027344 l 6
 341.517578125 994.837890625 304.537109375 983.309570312 274.125976562 997.530273438 c 4
 243.713867188 1011.75195312 231.38671875 1046.33789062 246.592773438 1074.78027344 c 6
 340.40234375 1250.25 l 6
 355.608398438 1278.69238281 392.587890625 1290.22167969 423 1276 c 4
88.7626953125 861.298828125 m 2
 88.7626953125 889.25390625 111.424804688 911.916992188 139.380859375 911.916992188 c 2
 525.0546875 911.916992188 l 2
 553.010742188 911.916992188 575.673828125 889.25390625 575.673828125 861.298828125 c 0
 575.673828125 833.341796875 553.010742188 810.6796875 525.0546875 810.6796875 c 2
 190 810.6796875 l 1
 190 526.244140625 l 1
 409.34765625 526.244140625 l 2
 437.302734375 526.244140625 459.965820312 503.58203125 459.965820312 475.625976562 c 0
 459.965820312 447.669921875 437.302734375 425.006835938 409.34765625 425.006835938 c 2
 190 425.006835938 l 1
 190 102 l 1
 525.0546875 102 l 2
 553.010742188 102 575.673828125 79.3359375 575.673828125 51.3779296875 c 0
 575.673828125 23.4208984375 553.010742188 0.7568359375 525.0546875 0.7568359375 c 2
 139.380859375 0.7568359375 l 2
 111.424804688 0.7568359375 88.7626953125 23.4208984375 88.7626953125 51.3779296875 c 2
 88.7626953125 861.298828125 l 2
EndSplineSet
EndChar

StartChar: Edieresis
Encoding: 203 203 102
Width: 667
Flags: HW
LayerCount: 2
Fore
SplineSet
520 1218.62402344 m 4
 533.912109375 1218.62695312 547.252929688 1213.02636719 557.08984375 1203.05664062 c 6
 597.056640625 1162.54882812 l 6
 606.893554688 1152.58007812 612.418945312 1139.05664062 612.416015625 1124.95703125 c 4
 612.4140625 1110.85742188 606.8828125 1097.33691406 597.041015625 1087.37109375 c 6
 557.075195312 1046.89550781 l 6
 536.592773438 1026.15332031 503.400390625 1026.16015625 482.926757812 1046.91015625 c 6
 442.987304688 1087.38867188 l 6
 422.512695312 1108.140625 422.5078125 1141.78515625 442.9765625 1162.54296875 c 6
 482.916015625 1203.04589844 l 6
 492.75 1213.01855469 506.088867188 1218.62207031 520 1218.62402344 c 4
151 1218.61425781 m 4
 164.911132812 1218.61621094 178.252929688 1213.01660156 188.088867188 1203.046875 c 6
 228.056640625 1162.54003906 l 6
 237.890625 1152.57324219 243.416015625 1139.05371094 243.416015625 1124.95703125 c 4
 243.416015625 1110.86035156 237.890625 1097.34179688 228.0546875 1087.37402344 c 6
 188.087890625 1046.87109375 l 6
 178.250976562 1036.90234375 164.909179688 1031.30273438 150.998046875 1031.30566406 c 4
 137.086914062 1031.30761719 123.747070312 1036.91210938 113.9140625 1046.88476562 c 6
 73.974609375 1087.39257812 l 6
 53.51171875 1108.14746094 53.5126953125 1141.78027344 73.9765625 1162.53320312 c 6
 113.916015625 1203.03613281 l 6
 123.75 1213.00878906 137.088867188 1218.61230469 151 1218.61425781 c 4
88.7626953125 861.298828125 m 2
 88.7626953125 889.25390625 111.424804688 911.916992188 139.380859375 911.916992188 c 2
 525.0546875 911.916992188 l 2
 553.010742188 911.916992188 575.673828125 889.25390625 575.673828125 861.298828125 c 0
 575.673828125 833.341796875 553.010742188 810.6796875 525.0546875 810.6796875 c 2
 190 810.6796875 l 1
 190 526.244140625 l 1
 409.34765625 526.244140625 l 2
 437.302734375 526.244140625 459.965820312 503.58203125 459.965820312 475.625976562 c 0
 459.965820312 447.669921875 437.302734375 425.006835938 409.34765625 425.006835938 c 2
 190 425.006835938 l 1
 190 102 l 1
 525.0546875 102 l 2
 553.010742188 102 575.673828125 79.3359375 575.673828125 51.3779296875 c 0
 575.673828125 23.4208984375 553.010742188 0.7568359375 525.0546875 0.7568359375 c 2
 139.380859375 0.7568359375 l 2
 111.424804688 0.7568359375 88.7626953125 23.4208984375 88.7626953125 51.3779296875 c 2
 88.7626953125 861.298828125 l 2
EndSplineSet
EndChar

StartChar: Odieresis
Encoding: 214 214 103
Width: 760
Flags: HW
LayerCount: 2
Fore
SplineSet
597 1218.62402344 m 4
 610.912109375 1218.62695312 624.252929688 1213.02636719 634.08984375 1203.05664062 c 6
 674.056640625 1162.54882812 l 6
 683.893554688 1152.58007812 689.418945312 1139.05664062 689.416015625 1124.95703125 c 4
 689.4140625 1110.85742188 683.8828125 1097.33691406 674.041015625 1087.37109375 c 6
 634.075195312 1046.89550781 l 6
 613.592773438 1026.15332031 580.400390625 1026.16015625 559.926757812 1046.91015625 c 6
 519.987304688 1087.38867188 l 6
 499.512695312 1108.140625 499.5078125 1141.78515625 519.9765625 1162.54296875 c 6
 559.916015625 1203.04589844 l 6
 569.75 1213.01855469 583.088867188 1218.62207031 597 1218.62402344 c 4
172 1218.61425781 m 4
 185.911132812 1218.61621094 199.252929688 1213.01660156 209.088867188 1203.046875 c 6
 249.056640625 1162.54003906 l 6
 258.890625 1152.57324219 264.416015625 1139.05371094 264.416015625 1124.95703125 c 4
 264.416015625 1110.86035156 258.890625 1097.34179688 249.0546875 1087.37402344 c 6
 209.087890625 1046.87109375 l 6
 199.250976562 1036.90234375 185.909179688 1031.30273438 171.998046875 1031.30566406 c 4
 158.086914062 1031.30761719 144.747070312 1036.91210938 134.9140625 1046.88476562 c 6
 94.974609375 1087.39257812 l 6
 74.51171875 1108.14746094 74.5126953125 1141.78027344 94.9765625 1162.53320312 c 6
 134.916015625 1203.03613281 l 6
 144.75 1213.00878906 158.088867188 1218.61230469 172 1218.61425781 c 4
272.359375 905.813476562 m 2
 279.389648438 909.329101562 287.141601562 911.16015625 295.001953125 911.16015625 c 2
 449.260742188 911.16015625 l 2
 457.114257812 911.16015625 464.859375 909.333007812 471.884765625 905.822265625 c 2
 549.04296875 867.271484375 l 2
 553.916015625 864.836914062 558.364257812 861.630859375 562.215820312 857.778320312 c 2
 639.345703125 780.625 l 2
 645.831054688 774.137695312 650.430664062 766.010742188 652.655273438 757.111328125 c 2
 691.205078125 602.876953125 l 2
 692.208007812 598.862304688 692.71484375 594.741210938 692.71484375 590.602539062 c 2
 692.715820312 320.625976562 l 2
 692.715820312 316.48828125 692.208984375 312.365234375 691.205078125 308.350585938 c 2
 652.653320312 154.107421875 l 2
 650.4296875 145.21484375 645.830078125 137.0859375 639.34765625 130.599609375 c 2
 562.220703125 53.435546875 l 2
 558.374023438 49.5859375 553.931640625 46.37890625 549.064453125 43.943359375 c 2
 471.907226562 5.349609375 l 2
 464.875976562 1.8291015625 457.122070312 0 449.260742188 0 c 2
 295 0 l 2
 287.141601562 0.0068359375 279.388671875 1.8359375 272.359375 5.349609375 c 2
 195.231445312 43.921875 l 2
 190.364257812 46.357421875 185.922851562 49.5576171875 182.075195312 53.4072265625 c 2
 104.947265625 130.557617188 l 2
 98.462890625 137.04296875 93.8623046875 145.171875 91.63671875 154.064453125 c 2
 53.056640625 308.36328125 l 2
 52.052734375 312.37890625 51.544921875 316.501953125 51.544921875 320.641601562 c 2
 51.544921875 590.591796875 l 2
 51.544921875 594.73046875 52.052734375 598.854492188 53.056640625 602.870117188 c 2
 91.6357421875 757.166992188 l 2
 93.8623046875 766.072265625 98.4677734375 774.204101562 104.9609375 780.693359375 c 2
 182.091796875 857.772460938 l 2
 185.935546875 861.612304688 190.372070312 864.809570312 195.231445312 867.239257812 c 2
 272.359375 905.813476562 l 2
306.954101562 809.922851562 m 1
 247.8515625 780.36328125 l 1
 186.446289062 719 l 1
 152.782226562 584.359375 l 1
 152.782226562 326.874023438 l 1
 186.451171875 192.221679688 l 1
 247.862304688 130.79296875 l 1
 306.955078125 101.243164062 l 1
 437.307617188 101.235351562 l 1
 496.424804688 130.807617188 l 1
 557.834960938 192.256835938 l 1
 591.478515625 326.85546875 l 1
 591.477539062 584.373046875 l 1
 557.837890625 718.96484375 l 1
 496.435546875 780.384765625 l 1
 437.318359375 809.922851562 l 1
 306.954101562 809.922851562 l 1
EndSplineSet
EndChar

StartChar: Ocircumflex
Encoding: 212 212 104
Width: 760
Flags: HW
LayerCount: 2
Fore
SplineSet
356.956054688 1155.4765625 m 6
 375.9453125 1169.71972656 402.055664062 1169.71972656 421.043945312 1155.4765625 c 6
 583.786132812 1033.40527344 l 6
 607.379882812 1015.70800781 612.159179688 982.234375 594.461914062 958.640625 c 4
 576.765625 935.046875 543.291015625 930.267578125 519.698242188 947.96484375 c 6
 389 1046 l 5
 258.30078125 947.96484375 l 6
 234.708007812 930.267578125 201.234375 935.046875 183.537109375 958.640625 c 4
 165.83984375 982.234375 170.620117188 1015.70800781 194.212890625 1033.40527344 c 6
 356.956054688 1155.4765625 l 6
272.359375 905.813476562 m 2
 279.389648438 909.329101562 287.141601562 911.16015625 295.001953125 911.16015625 c 2
 449.260742188 911.16015625 l 2
 457.114257812 911.16015625 464.859375 909.333007812 471.884765625 905.822265625 c 2
 549.04296875 867.271484375 l 2
 553.916015625 864.836914062 558.364257812 861.630859375 562.215820312 857.778320312 c 2
 639.345703125 780.625 l 2
 645.831054688 774.137695312 650.430664062 766.010742188 652.655273438 757.111328125 c 2
 691.205078125 602.876953125 l 2
 692.208007812 598.862304688 692.71484375 594.741210938 692.71484375 590.602539062 c 2
 692.715820312 320.625976562 l 2
 692.715820312 316.48828125 692.208984375 312.365234375 691.205078125 308.350585938 c 2
 652.653320312 154.107421875 l 2
 650.4296875 145.21484375 645.830078125 137.0859375 639.34765625 130.599609375 c 2
 562.220703125 53.435546875 l 2
 558.374023438 49.5859375 553.931640625 46.37890625 549.064453125 43.943359375 c 2
 471.907226562 5.349609375 l 2
 464.875976562 1.8291015625 457.122070312 0 449.260742188 0 c 2
 295 0 l 2
 287.141601562 0.0068359375 279.388671875 1.8359375 272.359375 5.349609375 c 2
 195.231445312 43.921875 l 2
 190.364257812 46.357421875 185.922851562 49.5576171875 182.075195312 53.4072265625 c 2
 104.947265625 130.557617188 l 2
 98.462890625 137.04296875 93.8623046875 145.171875 91.63671875 154.064453125 c 2
 53.056640625 308.36328125 l 2
 52.052734375 312.37890625 51.544921875 316.501953125 51.544921875 320.641601562 c 2
 51.544921875 590.591796875 l 2
 51.544921875 594.73046875 52.052734375 598.854492188 53.056640625 602.870117188 c 2
 91.6357421875 757.166992188 l 2
 93.8623046875 766.072265625 98.4677734375 774.204101562 104.9609375 780.693359375 c 2
 182.091796875 857.772460938 l 2
 185.935546875 861.612304688 190.372070312 864.809570312 195.231445312 867.239257812 c 2
 272.359375 905.813476562 l 2
306.954101562 809.922851562 m 1
 247.8515625 780.36328125 l 1
 186.446289062 719 l 1
 152.782226562 584.359375 l 1
 152.782226562 326.874023438 l 1
 186.451171875 192.221679688 l 1
 247.862304688 130.79296875 l 1
 306.955078125 101.243164062 l 1
 437.307617188 101.235351562 l 1
 496.424804688 130.807617188 l 1
 557.834960938 192.256835938 l 1
 591.478515625 326.85546875 l 1
 591.477539062 584.373046875 l 1
 557.837890625 718.96484375 l 1
 496.435546875 780.384765625 l 1
 437.318359375 809.922851562 l 1
 306.954101562 809.922851562 l 1
EndSplineSet
EndChar

StartChar: Oacute
Encoding: 211 211 105
Width: 760
Flags: HW
LayerCount: 2
Fore
SplineSet
496 1276 m 4
 526.412109375 1261.77832031 538.73828125 1227.19238281 523.533203125 1198.75 c 6
 429.723632812 1023.28027344 l 6
 414.517578125 994.837890625 377.537109375 983.309570312 347.125976562 997.530273438 c 4
 316.713867188 1011.75195312 304.38671875 1046.33789062 319.592773438 1074.78027344 c 6
 413.40234375 1250.25 l 6
 428.608398438 1278.69238281 465.587890625 1290.22167969 496 1276 c 4
272.359375 905.813476562 m 2
 279.389648438 909.329101562 287.141601562 911.16015625 295.001953125 911.16015625 c 2
 449.260742188 911.16015625 l 2
 457.114257812 911.16015625 464.859375 909.333007812 471.884765625 905.822265625 c 2
 549.04296875 867.271484375 l 2
 553.916015625 864.836914062 558.364257812 861.630859375 562.215820312 857.778320312 c 2
 639.345703125 780.625 l 2
 645.831054688 774.137695312 650.430664062 766.010742188 652.655273438 757.111328125 c 2
 691.205078125 602.876953125 l 2
 692.208007812 598.862304688 692.71484375 594.741210938 692.71484375 590.602539062 c 2
 692.715820312 320.625976562 l 2
 692.715820312 316.48828125 692.208984375 312.365234375 691.205078125 308.350585938 c 2
 652.653320312 154.107421875 l 2
 650.4296875 145.21484375 645.830078125 137.0859375 639.34765625 130.599609375 c 2
 562.220703125 53.435546875 l 2
 558.374023438 49.5859375 553.931640625 46.37890625 549.064453125 43.943359375 c 2
 471.907226562 5.349609375 l 2
 464.875976562 1.8291015625 457.122070312 0 449.260742188 0 c 2
 295 0 l 2
 287.141601562 0.0068359375 279.388671875 1.8359375 272.359375 5.349609375 c 2
 195.231445312 43.921875 l 2
 190.364257812 46.357421875 185.922851562 49.5576171875 182.075195312 53.4072265625 c 2
 104.947265625 130.557617188 l 2
 98.462890625 137.04296875 93.8623046875 145.171875 91.63671875 154.064453125 c 2
 53.056640625 308.36328125 l 2
 52.052734375 312.37890625 51.544921875 316.501953125 51.544921875 320.641601562 c 2
 51.544921875 590.591796875 l 2
 51.544921875 594.73046875 52.052734375 598.854492188 53.056640625 602.870117188 c 2
 91.6357421875 757.166992188 l 2
 93.8623046875 766.072265625 98.4677734375 774.204101562 104.9609375 780.693359375 c 2
 182.091796875 857.772460938 l 2
 185.935546875 861.612304688 190.372070312 864.809570312 195.231445312 867.239257812 c 2
 272.359375 905.813476562 l 2
306.954101562 809.922851562 m 1
 247.8515625 780.36328125 l 1
 186.446289062 719 l 1
 152.782226562 584.359375 l 1
 152.782226562 326.874023438 l 1
 186.451171875 192.221679688 l 1
 247.862304688 130.79296875 l 1
 306.955078125 101.243164062 l 1
 437.307617188 101.235351562 l 1
 496.424804688 130.807617188 l 1
 557.834960938 192.256835938 l 1
 591.478515625 326.85546875 l 1
 591.477539062 584.373046875 l 1
 557.837890625 718.96484375 l 1
 496.435546875 780.384765625 l 1
 437.318359375 809.922851562 l 1
 306.954101562 809.922851562 l 1
EndSplineSet
EndChar

StartChar: Ograve
Encoding: 210 210 106
Width: 760
Flags: HW
LayerCount: 2
Fore
SplineSet
245.125976562 1276 m 4
 214.713867188 1261.77832031 202.387695312 1227.19238281 217.592773438 1198.75 c 6
 311.40234375 1023.28027344 l 6
 326.608398438 994.837890625 363.588867188 983.309570312 394 997.530273438 c 4
 424.412109375 1011.75195312 436.739257812 1046.33789062 421.533203125 1074.78027344 c 6
 327.723632812 1250.25 l 6
 312.517578125 1278.69238281 275.538085938 1290.22167969 245.125976562 1276 c 4
272.359375 905.813476562 m 2
 279.389648438 909.329101562 287.141601562 911.16015625 295.001953125 911.16015625 c 2
 449.260742188 911.16015625 l 2
 457.114257812 911.16015625 464.859375 909.333007812 471.884765625 905.822265625 c 2
 549.04296875 867.271484375 l 2
 553.916015625 864.836914062 558.364257812 861.630859375 562.215820312 857.778320312 c 2
 639.345703125 780.625 l 2
 645.831054688 774.137695312 650.430664062 766.010742188 652.655273438 757.111328125 c 2
 691.205078125 602.876953125 l 2
 692.208007812 598.862304688 692.71484375 594.741210938 692.71484375 590.602539062 c 2
 692.715820312 320.625976562 l 2
 692.715820312 316.48828125 692.208984375 312.365234375 691.205078125 308.350585938 c 2
 652.653320312 154.107421875 l 2
 650.4296875 145.21484375 645.830078125 137.0859375 639.34765625 130.599609375 c 2
 562.220703125 53.435546875 l 2
 558.374023438 49.5859375 553.931640625 46.37890625 549.064453125 43.943359375 c 2
 471.907226562 5.349609375 l 2
 464.875976562 1.8291015625 457.122070312 0 449.260742188 0 c 2
 295 0 l 2
 287.141601562 0.0068359375 279.388671875 1.8359375 272.359375 5.349609375 c 2
 195.231445312 43.921875 l 2
 190.364257812 46.357421875 185.922851562 49.5576171875 182.075195312 53.4072265625 c 2
 104.947265625 130.557617188 l 2
 98.462890625 137.04296875 93.8623046875 145.171875 91.63671875 154.064453125 c 2
 53.056640625 308.36328125 l 2
 52.052734375 312.37890625 51.544921875 316.501953125 51.544921875 320.641601562 c 2
 51.544921875 590.591796875 l 2
 51.544921875 594.73046875 52.052734375 598.854492188 53.056640625 602.870117188 c 2
 91.6357421875 757.166992188 l 2
 93.8623046875 766.072265625 98.4677734375 774.204101562 104.9609375 780.693359375 c 2
 182.091796875 857.772460938 l 2
 185.935546875 861.612304688 190.372070312 864.809570312 195.231445312 867.239257812 c 2
 272.359375 905.813476562 l 2
306.954101562 809.922851562 m 1
 247.8515625 780.36328125 l 1
 186.446289062 719 l 1
 152.782226562 584.359375 l 1
 152.782226562 326.874023438 l 1
 186.451171875 192.221679688 l 1
 247.862304688 130.79296875 l 1
 306.955078125 101.243164062 l 1
 437.307617188 101.235351562 l 1
 496.424804688 130.807617188 l 1
 557.834960938 192.256835938 l 1
 591.478515625 326.85546875 l 1
 591.477539062 584.373046875 l 1
 557.837890625 718.96484375 l 1
 496.435546875 780.384765625 l 1
 437.318359375 809.922851562 l 1
 306.954101562 809.922851562 l 1
EndSplineSet
EndChar

StartChar: agrave
Encoding: 224 224 107
Width: 605
Flags: HW
LayerCount: 2
Fore
SplineSet
194.013671875 983.623046875 m 0
 169.68359375 972.245117188 159.822265625 944.576171875 171.987304688 921.822265625 c 2
 247.034179688 781.447265625 l 2
 259.19921875 758.693359375 288.784179688 749.470703125 313.112304688 760.846679688 c 0
 337.442382812 772.224609375 347.303710938 799.893554688 335.139648438 822.646484375 c 2
 260.091796875 963.022460938 l 2
 247.926757812 985.776367188 218.342773438 995 194.013671875 983.623046875 c 0
196.102539062 647.383789062 m 2
 202.938476562 650.926757812 210.475585938 652.770507812 218.116210938 652.770507812 c 2
 368.16015625 652.770507812 l 2
 375.8046875 652.770507812 383.344726562 650.924804688 390.178710938 647.381835938 c 2
 465.2265625 608.474609375 l 2
 474.759765625 603.533203125 482.487304688 595.517578125 487.250976562 585.6328125 c 2
 524.751953125 507.819335938 l 2
 528.166015625 500.733398438 529.944335938 492.918945312 529.944335938 484.997070312 c 2
 529.944335938 408.2109375 l 2
 529.956054688 407.552734375 529.956054688 406.89453125 529.944335938 406.237304688 c 2
 529.944335938 97.029296875 l 2
 529.956054688 96.3701171875 529.956054688 95.7138671875 529.944335938 95.0576171875 c 2
 529.944335938 57.1201171875 l 2
 529.944335938 28.9228515625 507.900390625 6.06640625 480.708007812 6.06640625 c 0
 467.163085938 6.06640625 454.896484375 11.7373046875 445.994140625 20.9150390625 c 2
 427.709960938 11.43359375 l 2
 420.870117188 7.8857421875 413.329101562 6.0380859375 405.68359375 6.0400390625 c 2
 218.115234375 6.0439453125 l 2
 210.470703125 6.0439453125 202.928710938 7.8896484375 196.092773438 11.435546875 c 2
 121.071289062 50.3427734375 l 2
 111.544921875 55.2822265625 103.819335938 63.291015625 99.056640625 73.169921875 c 2
 61.5322265625 150.982421875 l 2
 58.1142578125 158.072265625 56.333984375 165.890625 56.333984375 173.81640625 c 2
 56.333984375 251.630859375 l 2
 56.333984375 259.555664062 58.1142578125 267.374023438 61.5322265625 274.463867188 c 2
 99.0556640625 352.276367188 l 2
 103.819335938 362.154296875 111.544921875 370.165039062 121.071289062 375.104492188 c 2
 196.09375 414.010742188 l 2
 202.930664062 417.556640625 210.471679688 419.403320312 218.116210938 419.403320312 c 2
 394.078125 419.403320312 l 1
 431.47265625 438.760742188 l 1
 431 496 l 1
 406.504882812 524.758789062 l 1
 356.5390625 550.661132812 l 1
 229.736328125 550.661132812 l 1
 165.108398438 517.165039062 l 2
 140.783203125 504.55859375 111.2109375 514.786132812 99.0537109375 540.006835938 c 0
 86.896484375 565.228515625 96.7578125 595.89453125 121.081054688 608.502929688 c 2
 196.102539062 647.383789062 l 2
431.47265625 324.634765625 m 1
 427.676757812 322.669921875 l 2
 420.846679688 319.134765625 413.318359375 317.294921875 405.685546875 317.294921875 c 2
 229.741210938 317.294921875 l 1
 179.79296875 291.390625 l 1
 154.805664062 239.576171875 l 1
 154.805664062 185.870117188 l 1
 179.79296875 134.055664062 l 1
 229.741210938 108.151367188 l 1
 394.05859375 108.149414062 l 1
 431.47265625 127.553710938 l 1
 431.47265625 324.634765625 l 1
EndSplineSet
EndChar

StartChar: aacute
Encoding: 225 225 108
Width: 605
Flags: HW
LayerCount: 2
Fore
SplineSet
401.986328125 979.623046875 m 0
 426.31640625 968.245117188 436.177734375 940.576171875 424.012695312 917.822265625 c 2
 348.965820312 777.447265625 l 2
 336.80078125 754.693359375 307.215820312 745.470703125 282.887695312 756.846679688 c 0
 258.557617188 768.224609375 248.696289062 795.893554688 260.860351562 818.646484375 c 2
 335.908203125 959.022460938 l 2
 348.073242188 981.776367188 377.657226562 991 401.986328125 979.623046875 c 0
196.102539062 647.383789062 m 2
 202.938476562 650.926757812 210.475585938 652.770507812 218.116210938 652.770507812 c 2
 368.16015625 652.770507812 l 2
 375.8046875 652.770507812 383.344726562 650.924804688 390.178710938 647.381835938 c 2
 465.2265625 608.474609375 l 2
 474.759765625 603.533203125 482.487304688 595.517578125 487.250976562 585.6328125 c 2
 524.751953125 507.819335938 l 2
 528.166015625 500.733398438 529.944335938 492.918945312 529.944335938 484.997070312 c 2
 529.944335938 408.2109375 l 2
 529.956054688 407.552734375 529.956054688 406.89453125 529.944335938 406.237304688 c 2
 529.944335938 97.029296875 l 2
 529.956054688 96.3701171875 529.956054688 95.7138671875 529.944335938 95.0576171875 c 2
 529.944335938 57.1201171875 l 2
 529.944335938 28.9228515625 507.900390625 6.06640625 480.708007812 6.06640625 c 0
 467.163085938 6.06640625 454.896484375 11.7373046875 445.994140625 20.9150390625 c 2
 427.709960938 11.43359375 l 2
 420.870117188 7.8857421875 413.329101562 6.0380859375 405.68359375 6.0400390625 c 2
 218.115234375 6.0439453125 l 2
 210.470703125 6.0439453125 202.928710938 7.8896484375 196.092773438 11.435546875 c 2
 121.071289062 50.3427734375 l 2
 111.544921875 55.2822265625 103.819335938 63.291015625 99.056640625 73.169921875 c 2
 61.5322265625 150.982421875 l 2
 58.1142578125 158.072265625 56.333984375 165.890625 56.333984375 173.81640625 c 2
 56.333984375 251.630859375 l 2
 56.333984375 259.555664062 58.1142578125 267.374023438 61.5322265625 274.463867188 c 2
 99.0556640625 352.276367188 l 2
 103.819335938 362.154296875 111.544921875 370.165039062 121.071289062 375.104492188 c 2
 196.09375 414.010742188 l 2
 202.930664062 417.556640625 210.471679688 419.403320312 218.116210938 419.403320312 c 2
 394.078125 419.403320312 l 1
 431.47265625 438.760742188 l 1
 431 496 l 1
 406.504882812 524.758789062 l 1
 356.5390625 550.661132812 l 1
 229.736328125 550.661132812 l 1
 165.108398438 517.165039062 l 2
 140.783203125 504.55859375 111.2109375 514.786132812 99.0537109375 540.006835938 c 0
 86.896484375 565.228515625 96.7578125 595.89453125 121.081054688 608.502929688 c 2
 196.102539062 647.383789062 l 2
431.47265625 324.634765625 m 1
 427.676757812 322.669921875 l 2
 420.846679688 319.134765625 413.318359375 317.294921875 405.685546875 317.294921875 c 2
 229.741210938 317.294921875 l 1
 179.79296875 291.390625 l 1
 154.805664062 239.576171875 l 1
 154.805664062 185.870117188 l 1
 179.79296875 134.055664062 l 1
 229.741210938 108.151367188 l 1
 394.05859375 108.149414062 l 1
 431.47265625 127.553710938 l 1
 431.47265625 324.634765625 l 1
EndSplineSet
EndChar

StartChar: acircumflex
Encoding: 226 226 109
Width: 605
Flags: HW
LayerCount: 2
Fore
SplineSet
272.365234375 913.725585938 m 2
 287.556640625 925.120117188 308.444335938 925.120117188 323.634765625 913.725585938 c 2
 453.829101562 816.068359375 l 2
 472.704101562 801.91015625 476.52734375 775.131835938 462.369140625 756.256835938 c 0
 448.212890625 737.381835938 421.432617188 733.55859375 402.55859375 747.715820312 c 2
 298 826.14453125 l 1
 193.440429688 747.715820312 l 2
 174.56640625 733.55859375 147.787109375 737.381835938 133.629882812 756.256835938 c 0
 119.471679688 775.131835938 123.295898438 801.91015625 142.169921875 816.068359375 c 2
 272.365234375 913.725585938 l 2
196.102539062 647.383789062 m 2
 202.938476562 650.926757812 210.475585938 652.770507812 218.116210938 652.770507812 c 2
 368.16015625 652.770507812 l 2
 375.8046875 652.770507812 383.344726562 650.924804688 390.178710938 647.381835938 c 2
 465.2265625 608.474609375 l 2
 474.759765625 603.533203125 482.487304688 595.517578125 487.250976562 585.6328125 c 2
 524.751953125 507.819335938 l 2
 528.166015625 500.733398438 529.944335938 492.918945312 529.944335938 484.997070312 c 2
 529.944335938 408.2109375 l 2
 529.956054688 407.552734375 529.956054688 406.89453125 529.944335938 406.237304688 c 2
 529.944335938 97.029296875 l 2
 529.956054688 96.3701171875 529.956054688 95.7138671875 529.944335938 95.0576171875 c 2
 529.944335938 57.1201171875 l 2
 529.944335938 28.9228515625 507.900390625 6.06640625 480.708007812 6.06640625 c 0
 467.163085938 6.06640625 454.896484375 11.7373046875 445.994140625 20.9150390625 c 2
 427.709960938 11.43359375 l 2
 420.870117188 7.8857421875 413.329101562 6.0380859375 405.68359375 6.0400390625 c 2
 218.115234375 6.0439453125 l 2
 210.470703125 6.0439453125 202.928710938 7.8896484375 196.092773438 11.435546875 c 2
 121.071289062 50.3427734375 l 2
 111.544921875 55.2822265625 103.819335938 63.291015625 99.056640625 73.169921875 c 2
 61.5322265625 150.982421875 l 2
 58.1142578125 158.072265625 56.333984375 165.890625 56.333984375 173.81640625 c 2
 56.333984375 251.630859375 l 2
 56.333984375 259.555664062 58.1142578125 267.374023438 61.5322265625 274.463867188 c 2
 99.0556640625 352.276367188 l 2
 103.819335938 362.154296875 111.544921875 370.165039062 121.071289062 375.104492188 c 2
 196.09375 414.010742188 l 2
 202.930664062 417.556640625 210.471679688 419.403320312 218.116210938 419.403320312 c 2
 394.078125 419.403320312 l 1
 431.47265625 438.760742188 l 1
 431 496 l 1
 406.504882812 524.758789062 l 1
 356.5390625 550.661132812 l 1
 229.736328125 550.661132812 l 1
 165.108398438 517.165039062 l 2
 140.783203125 504.55859375 111.2109375 514.786132812 99.0537109375 540.006835938 c 0
 86.896484375 565.228515625 96.7578125 595.89453125 121.081054688 608.502929688 c 2
 196.102539062 647.383789062 l 2
431.47265625 324.634765625 m 1
 427.676757812 322.669921875 l 2
 420.846679688 319.134765625 413.318359375 317.294921875 405.685546875 317.294921875 c 2
 229.741210938 317.294921875 l 1
 179.79296875 291.390625 l 1
 154.805664062 239.576171875 l 1
 154.805664062 185.870117188 l 1
 179.79296875 134.055664062 l 1
 229.741210938 108.151367188 l 1
 394.05859375 108.149414062 l 1
 431.47265625 127.553710938 l 1
 431.47265625 324.634765625 l 1
EndSplineSet
EndChar

